<?xml version="1.0" encoding="utf-8"?>
<!-- Generator: Adobe Illustrator 27.9.0, SVG Export Plug-In . SVG Version: 6.00 Build 0)  -->
<svg version="1.1" id="Layer_2_00000161611377161135702230000011958051072224263814_"
	 xmlns="http://www.w3.org/2000/svg" xmlns:xlink="http://www.w3.org/1999/xlink" x="0px" y="0px" viewBox="0 0 807.2 784.1"
	 style="enable-background:new 0 0 807.2 784.1;" xml:space="preserve">
<style type="text/css">
	.st0{fill:#FFFFFF;}
	.st1{fill:none;}
	.st2{fill:#854ABE;}
	.st3{fill:#2E2C2D;}
	.st4{fill:#6D39A8;}
	.st5{fill:#FEFEFE;}
	.st6{fill:#040404;}
	.st7{fill:#DD8C3D;}
	.st8{fill:#542688;}
	.st9{fill:#2F2D2D;}
	.st10{fill:#A88A8A;}
	.st11{fill:#676767;}
	.st12{fill:#C10506;}
	.st13{fill:#727272;}
</style>
<g id="Layer_3">
	<g>
		<path class="st0" d="M227,784.1c-8.9,0-17.4-0.6-25.9-2c-0.6,0-1.1,0-1.7,0c-6.6,0-11.8-2-15.3-3.3c-0.7-0.3-1.4-0.5-1.9-0.7
			c-20.4-6.7-21.3-22.9-21.2-27.7c0.2-6.2,2.4-11.7,6.5-16.2c-5.5-2-10.6-3.2-15.6-3.8c-14-1.5-26.2-2.8-35.1-12.1
			c-9-9.3-9.8-21.5-10.7-35.6c-1.9-29.3,2.4-57.4,7-81.1c-2.8,0.3-5.6,0.5-8.2,0.5c-11.1,0-20.7-2.9-28.8-8.7
			c-7.2-5.2-16.4-15.3-19.4-34.1l-0.2-0.9c-3-18.5-6.4-39.5-1.6-61.3c1.2-5.4,3-10.4,4.5-14.7c0.4-1.2,0.8-2.2,1.2-3.3
			c3.5-9.9,9.2-15.8,17.2-17.5c0.4-0.6,0.8-1.3,1.2-1.8c0.6-0.9,1.2-2,2-3.1c-3-1.5-6.5-3.2-9.9-5C36.2,433,15.2,402.3,8.9,360.3
			c-2.5-16.9-3.2-33.6-2.1-49.7c-0.1-0.3-0.4-0.8-0.8-1.6c-7.1-12.9-7.9-27.9-2.3-44.5c-0.1-4.5-0.2-13.7-0.2-13.7
			c-0.2-12.8-0.5-26.1-0.8-39.2c-0.6-24.8-0.1-57.6,8.8-91c15.9-59,56.1-97,119.4-113c25.6-6.5,51.8-7,74.9-7.4
			c4.1-0.1,8.4-0.1,13-0.1c10,0,19.9,0.2,29.6,0.4l1.1,0c9,0.2,18.3,0.3,27.5,0.3l1.3,0c12.3,0,24.9-0.2,37-0.4
			C328,0.2,341.2,0,354.5,0c4.1,0,8.2,0,12.4,0.1c24.5,0.3,50.6,1,77.1,6.9c70.4,15.6,115.6,63.2,127.1,134.1
			c2.8,17.1,4.3,34.8,4.5,52.7c11.2-5,22.4-9.9,33.6-14.9c4.1-1.8,8.4-2.8,12.8-2.8c4.4,0,9,0.9,13.5,2.8
			c32.5,13.1,70.7,28.5,108.7,43.7c8.7,3.5,14.6,9.3,17.5,17.2c8.4,22.7,18.1,45.6,27.5,67.7c4.9,11.5,9.9,23.4,14.8,35.3
			c4.1,10.1,4.3,20,0.5,30.1c-13,34.4-26.1,69.7-39,104.9c-4,10.9-11.5,18.7-22.1,23.2c-29.5,12.3-61.1,25.8-99.5,42.3
			c-5,2.2-10.1,3.2-15.1,3.2c-4.7,0-9.4-1-14-2.8c-4.8-2-9.7-3.8-14.8-5.8l-3.1-1.2c-3.3,7.2-6.7,14.7-10.3,22.1
			c3.3,15.3-1.6,29.8-13.5,39.9c-0.2,0.2-0.4,0.4-0.6,0.6l-0.1,0.1c-1.6,1.5-4.1,3.7-7.6,5.6c-0.5,0.3-1,0.6-1.5,0.9
			c-0.1,0.1-0.3,0.2-0.4,0.2c-2.4,1.7-5.6,4.7-8,13.7c-0.8,3.1-3.4,12.5-12.4,19.2l-5.4,4h-2.6c-2.6,0.9-5.4,1.3-8.4,1.3
			c-4,0-7.8-0.7-10.9-1.3c-10.7-2-19.6-5.5-27.4-10.6c-4.6-3-11.4-7.5-14.4-16.3c-1.3-3.7-1.6-7.6-1.1-11.7
			c-2.9-1.6-5.4-3.2-7.8-4.9c0.7,3.4,1.2,6.6,1.7,9.8c4.2,26.4,8.4,57.2,4.3,88.8c-2.8,21.5-16.3,27.5-27.2,28.8
			c-1.2,0.1-3.1,0.7-5.1,1.2c-3.5,1-7.9,2.2-12.9,2.6c-4.8,0.4-9.8,1.5-15.3,3.6c6.7,7.4,7.3,15.2,7,19.3
			c-0.6,8.7-5.8,16.4-14.3,21.3c-5.5,3.1-14,7.2-24.7,7.2l-0.5,0c-8.6,1.4-17.3,2.1-26.5,2.1c-13.4,0-27.7-1.5-43.7-4.5
			c-0.4-0.1-0.8-0.1-1.2-0.2l-0.1,0c-3.3-0.6-7.7-1.3-12.3-3.6c-1.7-0.8-3.4-1.9-4.9-3c-2.6,1.8-5.5,3.2-8.6,4.2l-1,0.3
			c-2.8,0.9-6.1,1.9-9.7,2.6C253.9,782.7,240.1,784.1,227,784.1z"/>
		<path class="st0" d="M6.4,308.8c0.5,0.9,0.8,1.5,0.9,1.8c-1.2,16.1-0.5,32.8,2.1,49.7c6.3,41.9,27.2,72.5,62,91.1
			c3.5,1.9,7,3.6,10.4,5.3c-0.9,1.3-1.6,2.5-2.3,3.5c-0.4,0.6-0.9,1.4-1.3,2c-7.9,1.6-13.6,7.4-17,17.2c-0.4,1.1-0.8,2.2-1.2,3.3
			c-1.6,4.3-3.3,9.2-4.5,14.6c-4.7,21.7-1.3,42.7,1.6,61.1l0.2,0.9c3,18.6,12.1,28.6,19.2,33.7c10,7.2,22.6,9.9,37.3,8
			c-5,25.8-8.9,53.3-7.1,81.7c0.9,14,1.7,26.1,10.6,35.3c8.8,9.1,20.9,10.5,34.8,12c5.6,0.6,11,2,16.4,4c-4.3,4.5-6.6,10-6.9,16.4
			c-0.2,4.7,0.8,20.7,20.8,27.2c0.5,0.2,1.2,0.4,1.9,0.7c3.7,1.4,9.5,3.7,16.8,3.3c8.4,1.3,16.9,2,25.8,2c13.1,0,27-1.4,42.3-4.3
			c3.7-0.7,6.9-1.7,9.7-2.5l1-0.3c3.3-1,6.2-2.5,8.8-4.3c1.5,1.2,3.3,2.3,5.1,3.2c4.5,2.2,9,3,12.2,3.5c0.4,0.1,0.9,0.2,1.3,0.2
			c26.5,5,48.9,5.8,70.1,2.4c10.7,0.1,19.3-3.9,24.9-7.2c8.3-4.7,13.4-12.3,14.1-20.9c0.3-4.4-0.4-12.2-7.3-19.5
			c5.3-2,10.6-3.4,16.1-3.9c5-0.4,9.3-1.6,12.8-2.6c2-0.6,3.9-1.1,5.2-1.2c10.7-1.2,24.1-7.2,26.8-28.4c4.1-31.5-0.1-62.3-4.3-88.7
			c-0.6-3.7-1.3-7.4-2-11c3.1,2.2,6.1,4.1,9.1,5.7c-0.5,3.6-0.4,7.6,1,11.8c2.9,8.6,9.7,13.1,14.2,16.1c7.7,5,16.5,8.5,27.2,10.5
			c5.2,1,12.2,2.3,19.1,0h2.5l5.3-3.9c8.9-6.6,11.4-15.9,12.2-18.9c2.4-9,5.6-12.2,8.2-14c0.1-0.1,0.3-0.2,0.4-0.2
			c0.6-0.3,1.1-0.7,1.6-0.9c3.4-1.9,5.9-4.1,7.5-5.5c0.3-0.2,0.5-0.5,0.8-0.7c11.9-10.1,16.6-24.3,13.3-39.6
			c3.6-7.7,7.2-15.3,10.5-22.7c1.2,0.4,2.3,0.9,3.5,1.3c5.1,2,10,3.8,14.8,5.8c9.5,3.9,19.2,3.7,28.8-0.4
			c38.5-16.6,70.1-30,99.5-42.3c10.5-4.4,17.9-12.1,21.8-22.9c12.9-35.2,26.1-70.5,39-104.9c3.8-10,3.6-19.8-0.5-29.8
			c-4.9-11.8-9.9-23.8-14.8-35.3c-9.4-22.1-19.1-45-27.5-67.8c-2.9-7.8-8.7-13.5-17.2-16.9c-38.2-15.3-76.4-30.7-108.7-43.7
			c-9.1-3.7-17.8-3.7-26,0c-11.4,5.1-22.9,10.2-34.3,15.2c-0.1-18.1-1.6-36-4.5-53.4C559.1,70.5,514.1,23,443.8,7.4
			c-26.5-5.9-52.5-6.6-77-6.9c-17.3-0.2-34.8,0.1-51.7,0.3c-12.2,0.2-24.7,0.4-37,0.4c-9.9,0-20-0.2-29.8-0.4
			c-13.9-0.3-28.3-0.5-42.6-0.2c-23.1,0.5-49.2,1-74.8,7.4C67.8,24,27.8,61.9,12,120.7c-9,33.3-9.4,66-8.8,90.9
			c0.3,13,0.5,26.3,0.8,39.2c0.1,4.6,0.2,9.2,0.2,13.8C-1.4,281.1-0.6,295.9,6.4,308.8L6.4,308.8z M479.4,465.1
			c0.4-0.2,0.8-0.4,1.2-0.5c0.3,0.6,0.5,1.1,0.8,1.7C480.7,465.8,480,465.4,479.4,465.1L479.4,465.1z"/>
		<g>
			<path class="st1" d="M311.2,162.5c-6.5,0-10.5-3.3-11.3-9.2l1-0.1c0.7,5.4,4.4,8.1,10.9,8.1c1.1,0,2.3-0.1,3.5-0.2l0.2,1
				C313.9,162.4,312.5,162.5,311.2,162.5z"/>
			<path class="st1" d="M300.4,153.3c0.9,6.9,6.5,9.9,15,8.3C306.8,162.7,301.3,160.1,300.4,153.3z"/>
			<path class="st1" d="M337.1,139L337.1,139c5-4.7,10.1-9.2,14.6-13.2c1.8-1.6,3.5-3.1,5-4.5l1.2-1.1l-0.4,1.6
				c0,0.1-0.1,0.5-0.1,0.5l0,0.1l-1.5,1.3c-6.5,5.7-13.9,12.1-18.1,16l0,0L337.1,139L337.1,139z"/>
			<path class="st1" d="M357.1,121.6c-5.5,4.9-12.6,11.2-19.6,17.7c4.6-4.2,12.8-11.4,19.5-17.2C357,122,357,121.8,357.1,121.6z"/>
			<path class="st1" d="M210.7,167l0.1,0c11.3-0.1,22.7-1.7,33.9-4.7l0.3,1c-10.9,3.1-22.4,4.7-34.2,4.8l-0.1,0L210.7,167z"/>
			<path class="st1" d="M244.9,162.8c-11.2,3.1-22.7,4.7-34.1,4.7C222.8,167.4,234.1,165.8,244.9,162.8z"/>
			<circle class="st1" cx="400" cy="469.3" r="0.5"/>
			<polygon class="st1" points="400,469.3 400,469.3 400,469.3 			"/>
			<path class="st1" d="M342.6,508.9L342.6,508.9c0-0.7,0-1.5,0-2.2c0-2.2,0-4.6,0.1-6.8l1,0c-0.1,3.8-0.1,7.1-0.1,9l-0.5,0
				L342.6,508.9z"/>
			<path class="st1" d="M343.2,499.9c-0.2,3-0.1,6-0.1,9C343.1,507.2,343.1,503.9,343.2,499.9z"/>
			<path class="st1" d="M405.1,490.6c-0.4-1.3-0.8-2.5-1.2-3.8c-0.7-2.1-1.4-4.3-1.8-6.5l1-0.2c0.7,2.4,1.3,4.7,1.9,6.6
				c0.4,1.5,0.8,2.7,1.1,3.7L405.1,490.6z"/>
			<path class="st1" d="M402.6,480.2c0.7,3.5,2,6.9,3,10.3C405,488.3,403.8,484.4,402.6,480.2z"/>
			<path class="st1" d="M228.4,523.9c0.1-2.4,0.2-4.8,0.3-7.1c0.1-4.1,0.2-8.3,0.7-12.4l1,0.1l-0.2,4.5c-0.2,5.3-0.4,10.3-0.8,14.9
				L228.4,523.9z"/>
			<path class="st1" d="M229.9,504.5c-0.7,6.3-0.6,12.9-0.9,19.4C229.4,518,229.6,511.2,229.9,504.5z"/>
			<path class="st1" d="M282.4,480.2c-0.6-0.6-1.1-1.4-1.6-2.1l0.8-0.6c0.5,0.6,1.1,1.3,1.6,2L282.4,480.2z"/>
			<path class="st1" d="M281.2,477.9c0.5,0.7,1,1.4,1.6,2C282.2,479.2,281.7,478.5,281.2,477.9z"/>
			<polygon class="st1" points="232.6,476.8 232.6,476.8 232.6,476.8 			"/>
			<polygon class="st1" points="232.6,476.8 232.6,476.8 232.6,476.8 			"/>
			<path class="st2" d="M207,162c-3,0-6.7-0.5-8.4-4.5c-1.8-4.1,1.2-7.7,3.9-10.8c0.5-0.6,1.1-1.2,1.5-1.8
				c10.6-13.5,23.3-25,34.5-35.3c0.2-0.2,0.4-0.4,0.6-0.6c1.6-1.3,2.9-2.5,0.9-5.7c-33.8,15.2-62.6,26.7-93.7,33.5
				c-31.2,6.9-71.7,7.9-93.1,7.9h0c-6.6,0-13.1-0.1-19.6-0.3l-0.6,0l0.1-0.6c0.3-1.5,0.6-3.1,1-4.6l0.2-1c0.3-1.2,0.6-2.4,0.9-3.6
				l0.3-1.4c0.3-1.1,0.6-2.1,0.8-3.2c0.1-0.5,0.3-1,0.4-1.5c0.3-1,0.6-2,0.9-3c0.2-0.5,0.3-1.1,0.5-1.6c0.3-1,0.6-1.9,0.9-2.9
				c0.2-0.6,0.4-1.1,0.6-1.7c0.3-1,0.7-1.9,1-2.9c0,0,0.5-1.3,0.6-1.6c0.4-1,0.8-2,1.2-3c0,0,0.4-1.1,0.5-1.4
				c0.6-1.5,1.2-2.9,1.8-4.4C60.2,69.8,90,46.4,135.9,34.6c20.9-5.4,42.6-6,63.5-6.7c2.7-0.1,5.4-0.2,8.1-0.3
				c24.7-0.8,51-1.6,77.6-1.6c4.1,0,8.2,0,12.2,0.1c31,0.3,64.2,1.3,107.4,3.2c36,1.6,65.9,11.3,91.4,29.8
				c20.2,14.6,34.4,35.5,43.3,64c0.8,2.7,0.9,4.4,0.1,5.7c-0.7,1.3-2.2,2.1-5,2.7c-22.5,5-45.2,7.6-67.3,7.6c-7.3,0-14.7-0.3-22-0.8
				c-29.7-2.2-54.9-8.3-77.1-18.6c-0.5-0.3-2.1-0.7-3.9-1l-0.6-0.1l0.2-0.6c0.3-0.7,0.5-1.3,0.7-1.9c-1.9,1.7-4.5,4-7.4,6.5
				l-1.2,1.1l0.1-0.4c-1.2,1.1-2.5,2.2-3.8,3.4c-4.5,4-9.6,8.6-14.6,13.2c-5.8,5.3-12.3,11.4-20.6,14.6c-0.5,0.2-1.1,0.5-1.6,0.7
				c-1.5,0.7-3,1.4-4.6,1.4c-1.4,0-2.6-0.5-3.7-1.5c-3.2-2.8-2.7-6.6-1.8-9.9c0.9-3.3,2.1-6.5,3.3-9.6c0.7-1.9,1.5-3.9,2.2-5.8
				c0.4-1.2,1-2.3,1.6-3.3c1.1-2.1,2.2-4,2-6.5c-0.2,0.1-0.5,0.2-0.7,0.2c-0.8,0.3-1.5,0.5-1.7,0.9c-0.3,0.6-0.6,1.2-0.9,1.7
				l-0.1,0.1l-0.1,0.1c-5.5,2.9-11.6,6.3-18.1,10.1c-10.5,6-21.4,12.2-30.4,16.2c-1.3,0.6-2.4,1.1-3.5,1.5
				c-13.4,5.4-29.4,10.9-46.5,11.2c-0.8,0-1.6,0.1-2.4,0.1C209.1,161.9,208,162,207,162L207,162z"/>
			<path class="st2" d="M146.1,136.4c32.9-7.2,63.7-20,94-33.6c3,4.3,0.4,5.6-1.4,7.2c-12.1,11.1-24.2,22.2-34.4,35.2
				c-2.8,3.6-7.4,7.4-5.3,12.1c2.4,5.5,8.6,4,13.5,3.9c16.3-0.3,31.4-5.2,46.3-11.1c1.1-0.4,2.3-0.9,3.4-1.5
				c14.5-6.5,34.1-18.8,48.5-26.3c0.3-0.6,0.6-1.1,0.9-1.7c0.4-0.8,2.1-1,3.3-1.6c0.8,4.4-2.4,7.3-3.6,10.7
				c-1.8,5.2-4,10.2-5.5,15.4c-0.8,3.1-1.4,6.7,1.6,9.4c3.3,3,6.5,0.5,9.4-0.7c8-3.1,14.2-8.8,20.4-14.5c7-6.5,14.2-12.8,19.6-17.7
				c0,0.2-0.1,0.3-0.1,0.5c3.6-3.1,6.8-5.9,8.7-7.6c-0.3,1.1-0.7,2.3-1.2,3.6c1.6,0.3,3.4,0.8,4,1.1c24.4,11.3,50.3,16.6,76.9,18.6
				c30,2.3,59.7-0.2,89.1-6.8c4.6-1,6.1-2.6,4.5-7.8c-8-25.6-20.9-47.7-43.1-63.7c-27.3-19.7-58.1-28.2-91.1-29.7
				c-35.8-1.6-71.6-2.9-107.4-3.2c-29.9-0.3-59.8,0.6-89.8,1.6c-24,0.8-48.1,0.9-71.6,6.9c-40.7,10.5-73.6,31-90.9,71.3
				c-0.6,1.5-1.2,2.9-1.8,4.4c-0.2,0.5-0.4,0.9-0.5,1.4c-0.4,1-0.8,2-1.2,3c-0.2,0.5-0.4,1.1-0.6,1.6c-0.3,1-0.7,1.9-1,2.9
				c-0.2,0.6-0.4,1.1-0.6,1.7c-0.3,1-0.6,1.9-0.9,2.9c-0.2,0.5-0.3,1.1-0.5,1.6c-0.3,1-0.6,2-0.9,3c-0.1,0.5-0.3,1-0.4,1.5
				c-0.3,1.1-0.6,2.1-0.8,3.2c-0.1,0.5-0.2,0.9-0.3,1.4c-0.3,1.2-0.6,2.4-0.8,3.6c-0.1,0.3-0.2,0.7-0.2,1c-0.3,1.5-0.6,3.1-0.9,4.6
				C68.9,145,114,143.5,146.1,136.4L146.1,136.4z"/>
			<path class="st3" d="M292.4,269.6c-9.1,0-18.3-1.1-27.1-2.2c-4.2-0.5-8.5-1-12.7-1.4c-4.9-0.5-8.2-2.6-10.5-6.6
				c-0.2-0.4-0.5-0.8-0.7-1.2c-0.7-1.1-1.4-2.1-1.7-3.4c-4.8-18.2-17.4-27.8-40.9-31c-13.3-1.8-27.3-2.7-41.7-2.7
				c-13.2,0-26.7,0.7-41.3,2.2c-18.6,1.9-33.7,11.5-45,28.4c-3.9,5.9-7.6,9.5-14.1,9.5c-1.1,0-2.3-0.1-3.6-0.3
				c-1.3-0.2-2.6-0.3-4-0.3c-5.3,0-10.7,1.7-14.3,3l-0.2,0.1l-0.2-0.1c-0.5-0.2-1.1-0.2-1.6-0.2c-0.2,0-0.5,0-0.7,0
				c-0.2,0-0.5,0-0.7,0c-0.5,0-1.1,0-1.6-0.2c-1.5-0.5-2.2-2-2.1-4.7c0.4-12.8,0.6-25.8,0.8-38.4c0.2-14.8,0.4-30,1-45
				c0.1-2.1,0.2-4.4,0.4-6.9l0.1-1c0.2-2.3,0.4-4.5,0.6-6.7l0.1-0.9c0.6-4.9,1.3-9.7,2.2-14.4v-0.6l0.6,0.2
				c10.8,3.2,29.3,3.8,36.2,4c3.4,0.1,6.9,0.2,10.3,0.2c42.7,0,85.3-8.3,126.5-24.7c0.7-0.3,1.4-0.7,2.2-1.1
				c1.6-0.9,3.4-1.9,5.6-1.9c1.1,0,2.2,0.3,3.3,0.8l0.6,0.3l-0.4,0.5c-2.5,2.9-5.2,5.7-7.8,8.4c-4.9,5-9.5,9.8-13.2,15.5
				c-3.7,5.7-4.8,10.3-3.3,13.7c1.5,3.4,5.7,5.5,12.4,6.4c1.7,0.2,3.3,0.4,4.8,0.4l0.1,0c11.7-0.1,23.1-1.7,34-4.7
				c23.1-6.3,45-18.8,63.5-36.3l0.8,0.6c-4.3,8-7.9,15.2-8.3,23.5c-0.1,1.1,0,2.1,0.1,3.1c0.7,5.3,4.4,8.3,10.3,8.3
				c1.3,0,2.6-0.1,4.1-0.4c15-2,40.2-25.6,48.1-41.9l0.3-0.6l0.5,0.5c4.2,4.1,8,6.6,14.1,9.3c0.5,0.2,0.9,0.4,1.4,0.6
				c0.7,0.3,1.5,0.6,2.3,1c0.6,0.2,1.2,0.5,1.9,0.7c25.4,9.9,52.1,14.7,81.7,14.7c6.1,0,12.3-0.2,18.6-0.6
				c20.7-1.4,37.2-4.6,51.7-10.1c1.4-0.5,2.5-0.8,3.5-0.8c3.3,0,4,3.2,4.5,6c3.5,17.2,5.4,35.4,5.6,54.1c0.1,5.2,0.1,10.4,0.1,15.7
				c0.1,16,0.2,32.5,0.8,48.8c0.1,2.7-0.6,4.2-2.1,4.7c-0.6,0.2-1.2,0.2-1.7,0.2c-0.2,0-0.5,0-0.7,0c-0.2,0-0.5,0-0.7,0
				c-0.5,0-1.1,0-1.6,0.2l-0.2,0.1l-0.2-0.1c-5.6-2-11.1-3-16.2-3c-1.6,0-3.2,0.1-4.7,0.3c-0.9,0.1-1.7,0.2-2.5,0.2
				c-5.1,0-8.5-2.3-11-7.4c-0.4-0.9-1.1-1.7-1.8-2.6c-0.4-0.5-0.8-0.9-1.1-1.4c-11.5-15.7-25.4-24.2-42.4-26
				c-15.8-1.7-30-2.5-43.2-2.5c-16.9,0-32.3,1.3-47.2,4c-18.4,3.3-29.1,12-33.8,27.4c-2.8,9.3-8.6,14-17.3,14c-0.6,0-1.1,0-1.7-0.1
				c-0.4,0-0.9,0-1.3,0c-1.7,0-3.3,0.2-4.8,0.6C307.4,268.7,300.3,269.6,292.4,269.6z M192.8,192c0.9,0,1.8,0.1,2.7,0.2
				c0.9,0.1,1.8,0.2,2.7,0.2c2.8,0,4.4-1,5.1-3.2c1.4-4.2-1.8-6.6-4.9-8.8c-0.6-0.5-1.2-0.9-1.8-1.4c-3.7-3-8.3-5.1-14.5-6.7
				c-2.6-0.6-5.2-1.2-7.7-1.7c-2.3-0.5-4.7-1-7-1.5c-4.8-1.2-9.6-1.8-14.4-1.8c-10.7,0-21.4,2.9-32.6,8.8c-2.7,1.4-5.1,3.2-7,5
				c-2.1,2.1-3,4.3-2.5,6.2c0.5,1.9,2.4,3.4,5.3,4.1c2.7,0.7,5.7,0.7,8.5,0.7l1.3,0c4.6,0,9.3,0,13.9,0c2.9,0,17.1,0,17.1,0l0.5,0
				c3.3,0,16.5,0,19.8,0C182.4,192.1,187.6,192,192.8,192L192.8,192z M414.7,157.5c-14.1,0.1-28.7,3.6-38.9,9.6
				c-5.9,3.5-10,7.1-12.8,11.6c-2.2,3.5-2.6,6.4-1,9c1,1.8,2.6,2.6,4.9,2.6c1.1,0,2.4-0.2,3.5-0.4c22.2-4,39.2-5.7,55.3-5.7
				c9.3,0,17.9,0.6,26.5,1.8c0.5,0.1,1.1,0.1,1.6,0.1c1.8,0,3-0.5,3.7-1.5c0.8-1.2,0.7-3.3-0.3-5.7c-1.6-3.9-4.7-6.6-8-9.3
				C440,162,428.4,158,414.7,157.5z"/>
			<path class="st3" d="M29.8,262.7c1.4,0.5,3.3-0.2,4.7,0.4c6-2.2,12.5-3.8,18.6-2.7c8.6,1.5,12.8-2.5,17.1-8.9
				c10.8-16.2,25.6-26.6,45.4-28.6c27.7-2.8,55.5-3.3,83.1,0.5c19.5,2.7,35.7,10.1,41.3,31.3c0.4,1.6,1.5,3,2.4,4.4
				c2.2,3.9,5.5,5.9,10.2,6.3c20.4,1.9,40.8,6.5,61.3,1c2-0.5,4.2-0.7,6.3-0.6c10,0.7,15.7-4.5,18.5-13.6
				c5.2-17,17.7-24.7,34.2-27.7c30.1-5.4,60.3-4.7,90.6-1.5c18.3,1.9,32.1,11.6,42.8,26.2c1,1.4,2.3,2.6,3,4.1c2.7,5.5,6.5,7.8,13,7
				c7.1-0.9,14.3,0.3,21.1,2.7c1.4-0.6,3.3,0,4.7-0.4c1.1-0.4,1.9-1.4,1.8-4.2c-0.8-21.5-0.7-43-0.9-64.5c-0.2-18.2-1.9-36.1-5.5-54
				c-0.9-4.4-1.8-7-7.3-4.9c-16.7,6.3-34.2,9-51.9,10.2c-34.4,2.3-68.1-1.5-100.5-14.1c-0.7-0.3-1.3-0.5-1.9-0.7
				c-0.8-0.3-1.6-0.7-2.4-1c-0.5-0.2-1-0.4-1.4-0.6c-6-2.6-9.9-5.2-14.2-9.4c-7.6,15.6-32.9,40.1-48.4,42.2c-8.5,1.6-14-1.4-15-8.3
				c-0.1-1-0.2-2-0.1-3.2c0.5-8.7,4.4-16.3,8.4-23.8c-19,18-40.9,30.2-63.8,36.4c-10.8,3-22.1,4.6-34.1,4.7c-1.7,0-3.4-0.2-5-0.4
				c-13.8-1.8-17.1-9.1-9.4-20.8c5.8-8.8,13.9-15.7,21-23.9c-4.6-2.2-7.6,1-10.7,2.3c-44,17.5-89.6,26-137,24.6
				c-7.5-0.2-25.6-0.8-36.3-4c0,0,0,0,0,0c-0.9,4.8-1.6,9.5-2.2,14.4c0,0.3-0.1,0.6-0.1,0.9c-0.3,2.2-0.5,4.5-0.6,6.7
				c0,0.3,0,0.7-0.1,1c-0.2,2.3-0.3,4.6-0.4,6.9c-1.1,27.8-0.9,55.6-1.8,83.4C28,261.3,28.7,262.3,29.8,262.7L29.8,262.7z
				 M362.6,178.3c3.3-5.1,7.9-8.7,13-11.7c9.8-5.7,24.4-9.6,39.1-9.7c10.9,0.4,23.9,3.2,34.8,12.2c3.3,2.7,6.4,5.5,8.1,9.5
				c2.2,5.3,0.2,8.6-5.5,7.8c-27.5-4-54.6-0.9-81.6,3.9c-3.5,0.6-7,1-9-2.4C359.7,184.7,360.6,181.4,362.6,178.3L362.6,178.3z
				 M112.9,180.7c2-2,4.6-3.8,7.1-5.1c14.9-7.9,30.6-11.2,47.4-7c4.9,1.2,9.9,2,14.7,3.3c5.3,1.3,10.4,3.3,14.7,6.8
				c3.5,2.8,8.7,5.3,6.9,10.8c-1.7,5.1-7.1,3.2-11,3.2c-11.7,0.1-23.5,0-35.2,0c0,0,0,0,0,0c-10.5,0-21,0.1-31.5,0
				c-3.3,0-6.8,0.1-10-0.7C109.6,190.2,108.3,185.2,112.9,180.7L112.9,180.7z"/>
			<path class="st4" d="M334.2,569.1c-7.5-11.8-14.5-22.9-21.6-34c-2.1-3.3-1.8-5.7,1.3-8c10.6-8.3,17.4-19.8,24-30.9l0.3-0.5
				c0,0,3.2-8.4,5.2-13.9l1,0.2c-0.4,5.6-0.6,12.9-0.7,17.9c-0.1,2.3-0.1,4.6-0.1,6.8c0,0.7,0,1.5,0,2.2c-0.1,13.3,0,26.9,0,40
				c0,5.1,0,10.2,0,15.2c0.7,4.6,1.2,10-0.4,17.6l-0.3,1.2L334.2,569.1z"/>
			<path class="st4" d="M338.7,495.9c-6.9,11.5-13.7,23.1-24.5,31.5c-3,2.3-3.1,4.4-1.2,7.4c9.6,15,19.1,30.1,29.7,46.8
				c1.5-7.2,1.2-12.3,0.4-17.5c0-18.4-0.2-36.8-0.1-55.2c0-3-0.1-6,0.1-9c0.1-5.6,0.3-12.6,0.7-18
				C341.9,487.5,338.7,495.9,338.7,495.9z"/>
			<path class="st5" d="M464.4,565.3c-1.3,0-2.8-0.3-4.7-1.1c-1-0.4-2-0.8-3-1.2c-4.8-1.9-9.8-3.9-14.8-4.7
				c-8.6-1.2-10.9-6.5-13.1-13.3c-5.5-17-11.7-34-17.6-50.6c-1.2-3.4-2.5-6.8-3.7-10.2l-0.2-0.5c-0.2-0.7-0.5-1.6-0.8-2.6
				c-1-3.4-2.5-8.4-4.3-12l-0.3-0.6l0.7-0.1c2.3-0.3,4.7-0.5,7.1-0.5c1.8,0,3.7,0.1,5.6,0.3l0.2,0c0.8,0.1,1.6,0.2,2.3,0.3l0.2,0
				c0.8,0.1,1.6,0.3,2.3,0.4c3,0.6,6,1.4,9.3,2.4l0.7,0.2c0.6,0.2,1.1,0.4,1.7,0.6l1,0.3c0.5,0.2,1,0.4,1.5,0.5
				c0.4,0.1,0.8,0.3,1.2,0.4l1.3,0.5c0.5,0.2,2.5,1,2.5,1c0.8,0.3,1.7,0.7,2.5,1c17.1,7,33.9,16.7,51.5,29.6c5.4,3.9,6,7.4,2.4,13.2
				c-9.2,14.8-17.2,28.3-24.4,41.4C469.5,563.7,467.3,565.3,464.4,565.3L464.4,565.3z"/>
			<path class="st5" d="M420.2,469.4c-0.8-0.1-1.5-0.3-2.3-0.4c-0.1,0-0.1,0-0.2,0c-0.8-0.1-1.5-0.2-2.3-0.3c-0.1,0-0.1,0-0.2,0
				c-4.1-0.4-8.3-0.4-12.6,0.2c0,0,0,0,0,0c2.3,4.7,4.2,11.8,5.1,14.7c0.1,0.2,0.1,0.4,0.2,0.5c7.3,20.2,14.7,40.4,21.3,60.8
				c2.3,6.9,4.6,11.8,12.7,13c6.1,0.9,12.1,3.6,18,5.9c5.1,2,8.2,1.3,11.2-4c7.7-14,15.9-27.8,24.4-41.4c3.3-5.4,3-8.6-2.2-12.5
				c-16-11.8-33-22-51.4-29.5c-0.8-0.3-1.7-0.7-2.5-1c-0.3-0.1-0.7-0.3-1-0.4c-0.5-0.2-1-0.4-1.5-0.6c-0.4-0.2-0.9-0.3-1.3-0.5
				c-0.4-0.2-0.8-0.3-1.2-0.4c-0.5-0.2-1-0.4-1.5-0.5c-0.3-0.1-0.6-0.2-1-0.3c-0.6-0.2-1.1-0.4-1.7-0.6c-0.2-0.1-0.4-0.1-0.7-0.2
				C426.4,470.8,423.3,470,420.2,469.4C420.2,469.4,420.2,469.4,420.2,469.4L420.2,469.4z"/>
			<path class="st5" d="M404.2,704.4c-16.5,0-32.6-1-47.9-3.1c-3.8-0.5-5.5-2.5-5.5-6.3c0-2.6-0.1-5.2-0.1-7.8
				c-0.1-4.9-0.2-10-0.1-15c0.1-7.1,0.1-14.3,0.2-21.4c0.4-34,0.8-69.2-0.8-103.8c-0.3-5.6-0.6-11.4-1-16.9
				c-0.8-11.8-1.6-24.1-1.3-36.2c-0.3-7-0.4-15.6,0.3-16.3l0.1-0.2l0.2,0c6.2-1.2,12.5-1.9,18.7-2.5c9.4-1,19.2-2.1,28.4-4.9
				c0.8-0.3,1.6-0.5,2.5-0.7c0.7-0.2,1.4-0.3,2-0.5l0.5-0.1l0.1,0.5c0.5,2.7,1.3,6.3,2.6,10.8c0.5,2.2,1.2,4.4,1.8,6.4
				c0.4,1.2,0.8,2.5,1.2,3.8c2.6,9.5,5.4,19.2,8.1,28.5c8.1,28,16.5,57,22.1,86.3c5.1,26.6,6.8,54,8.5,80.5c0.2,3.3,0.4,6.7,0.6,10
				c0.3,4.8-1.4,6.8-5.7,7.2C427.5,703.9,415.5,704.4,404.2,704.4z M369.4,630.5c-1.3,0-2.2,0.3-2.9,1.8c-2.1,4.9-1.3,11.5,2.1,17.4
				c3,5.3,7.5,8.8,12,9.4c5.1,0.7,10.5,0.8,15.6,0.9c2.1,0.1,4.3,0.1,6.5,0.2l0-0.7h0.5c1.2,0,2.4,0,3.6,0c1.2,0,2.4,0,3.6,0
				c1.6,0,3,0,4.2,0.1c0.9,0,1.7,0.1,2.5,0.1c1.8,0.1,3.4,0.2,4.7,0.2c3.2,0,4.9-0.4,5.9-1.6c1.7-1.8,2.1-5.6,1.5-14.5l0-0.6
				c0-0.7-0.1-1.3-0.1-2c0.1-5.9-2.6-8.5-8.8-8.7c-4.4-0.1-8.9-0.5-13.2-0.9c-3.9-0.3-8-0.7-11.9-0.9c-4.3-0.2-8.4-0.2-11.9-0.2
				c-1.6,0-3.1,0-4.7,0c-1.6,0-3.1,0-4.7,0c-0.9,0-1.8,0-2.7,0c-0.3,0-0.6,0-0.9,0C370,630.5,369.7,630.5,369.4,630.5z"/>
			<path class="st5" d="M400,469.3c-0.7,0.1-1.3,0.3-2,0.5c-0.8,0.2-1.6,0.4-2.4,0.7c-15.3,4.7-31.5,4.5-47.2,7.4
				c-0.8-0.2-0.2,16-0.2,16c-0.4,17.7,1.5,35.4,2.3,53c1.9,41.8,0.9,83.5,0.6,125.3c-0.1,7.6,0.2,15.2,0.3,22.8
				c0,3.4,1.4,5.3,5.1,5.8c27.7,3.8,55.5,3.9,83.3,1.6c4.3-0.3,5.5-2.5,5.3-6.7c-1.9-30.3-3.3-60.6-9.1-90.5
				c-7.5-39-19.6-76.7-30.2-114.8c-0.9-3.4-2.2-6.7-3-10.3C401.6,476.5,400.6,472.6,400,469.3C400,469.3,400,469.3,400,469.3
				L400,469.3z M420.4,632.1c6.3,0.2,9.4,2.9,9.3,9.2c0,0.8,0.1,1.7,0.1,2.5c1.1,18.2-1.5,16.9-15.3,16.3c-3.8-0.2-7.6,0-11.4,0
				c0,0.2,0,0.5,0,0.7c-7.6-0.3-15.2-0.2-22.7-1.2c-10.7-1.4-18.7-17.5-14.4-27.5c1.1-2.6,3.2-2.1,5.2-2.1c8,0,16-0.2,24,0.2
				C403.6,630.6,412,631.8,420.4,632.1L420.4,632.1z"/>
			<path class="st4" d="M307.7,524.6C296,511,296,510.7,308,500.4c1.7-1.5,3.5-2.9,5.2-4.3c4.1-3.3,8.3-6.7,11.7-10.7
				c0.5-0.6,1.1-1.2,1.8-1.9l0.4-0.4c0.6-0.6,1.2-1.1,1.8-1.6l0.2-0.2c0.6-0.5,1.2-0.9,1.8-1.3l0.2-0.1c0.6-0.4,1.3-0.8,2-1.2
				l0.3-0.1c1.4-0.7,2.9-1.2,4.4-1.5l0.2,0c0.8-0.2,1.6-0.3,2.4-0.4c0.6-0.1,1.2-0.1,1.9-0.1l1.5,0l-0.4,0.8
				c-1.6,2.6-3.4,5.4-5.2,8.5c-8.4,13.9-18.9,31.2-29.9,38.8l-0.4,0.3L307.7,524.6z"/>
			<path class="st4" d="M343,477.2c-0.1,0-0.1,0-0.2,0c-0.8,0-1.5,0-2.3,0.1c0,0,0,0,0,0c-0.8,0.1-1.6,0.2-2.3,0.4
				c-0.1,0-0.1,0-0.2,0c-1.5,0.3-2.9,0.8-4.3,1.5c-0.1,0-0.2,0.1-0.3,0.1c-0.7,0.3-1.3,0.7-2,1.1c-0.1,0-0.1,0.1-0.2,0.1
				c-0.6,0.4-1.2,0.8-1.8,1.3c-0.1,0.1-0.2,0.1-0.2,0.2c-0.6,0.5-1.2,1-1.8,1.6c-0.1,0.1-0.2,0.2-0.4,0.4c-0.6,0.6-1.2,1.2-1.8,1.9
				c-4.9,5.6-11.2,10-16.9,15c-7.8,6.7-7.9,14.6-0.3,23.5C321.2,515.2,333.6,492.1,343,477.2L343,477.2z"/>
			<path class="st6" d="M163.4,382.2c-22.3,0-44.9-4.4-67.1-13.2c-16.1-6.4-26.4-19.2-31.5-39.2c-1.2-4.8-1.9-9.9-2.6-14.7
				c-0.2-1.7-0.5-3.5-0.7-5.2c-1.4-9.5-3.1-11.2-11.3-11.2c-0.7,0-1.4,0-2.2,0c-0.4,0-0.8,0.1-1.1,0.1c-3.2,0.4-5.9,0.5-8.1,0.5h0
				c-5.1,0-8.3-0.9-10.1-2.8c-2.6-2.7-2.3-7.1-2-13.2c0.1-1.9,0.2-4,0.2-6.2c0.1-5.2,2.9-8.2,8.1-8.9c1.2-0.1,2.5-0.3,3.7-0.5
				c6.2-0.8,12.6-1.6,19-1.8c5.1-0.2,9.1-1.3,12.2-6.2c13.5-21.8,34.7-32.4,64.6-32.4c0.5,0,1.1,0,1.6,0c2.4,0,4.8,0,7.2,0
				c2.3,0,4.6,0,6.9,0c2.3,0,4.6,0,6.9,0c13.4,0,24.6,0.3,35.9,2c5.7,0.8,11.1,1.8,16.2,3c11.6,2.7,19.5,9.3,23.4,19.8
				c0.6,1.7,1.5,3.4,2.3,5c0.5,1,1,2,1.5,3c3.4,7.4,9.2,11.5,17.2,12c11.6,0.8,23.4,1.2,35.1,1.2c11.7,0,23.7-0.4,35.5-1.2
				c8.2-0.5,14-4.5,17.3-11.9c0.3-0.6,0.6-1.3,1-1.8c0.5-0.9,1-1.7,1.2-2.6c6-19.5,22.4-24.1,36.1-25.8c13.9-1.8,28.1-2.6,43.5-2.6
				c11.1,0,22.5,0.4,34.8,1.4c19.4,1.4,33.8,9.4,44.1,24.2c6.8,9.7,13.3,13.9,22,13.9c1.1,0,2.2-0.1,3.3-0.2c0.4,0,0.8-0.1,1.2-0.1
				c1.4,0,2.8,0.2,4.1,0.5c0.8,0.1,1.6,0.3,2.3,0.4c15.7,1.8,16.1,2.4,16.1,18.5c0,5.5-0.4,9.1-2.4,11.2c-2,2-5.5,2.4-10.5,2.4
				l-0.8,0c-1.2,0-2.3-0.1-3.5-0.2c-0.5,0-1.1-0.1-1.6-0.1c-1.9-0.1-4.1-0.2-5.9-0.2c-8.3,0-9.2,2.2-10.8,14.6
				c-0.8,6.3-1.6,11.9-3.1,17.5c-5.7,20.8-17.4,33.9-35.8,40c-23.5,7.7-43,11.3-61.4,11.3c-7.5,0-14.9-0.6-22.1-1.8
				c-14.4-2.4-25.7-9.5-34.7-21.7c-9.9-13.3-16.7-28.7-20.8-47.2c-4.1-18.1-9.7-21.4-27-23.3c-7.7-0.9-15.3-1.3-22.7-1.3
				c-7.5,0-15.1,0.5-22.5,1.3c-17.5,2.1-22.1,6.2-25.9,23c-3.8,16.7-9.8,31.1-18.4,44.2c-10.6,16.1-26,25-45.7,26.4
				C171.7,382,167.5,382.2,163.4,382.2z M423.6,239.7c-1.1,0-2.1,0-3.2,0c-2.6,0.1-5.3,0.2-7.9,0.3c-5.7,0.2-11.6,0.4-17.3,1.1
				c-23.9,3-40.9,20.4-43.3,44.4c-1.4,13.5-0.5,25.4,2.5,36.2c5.2,18.6,17.2,32,34.6,38.7c14,5.4,28.1,8.2,41.8,8.2
				c13.1,0,26.3-2.5,39.2-7.5c14.4-5.5,22.1-14.7,25.1-29.6c3.1-15.4,1-30.7-1-45.4c-0.3-2.3-0.6-4.7-0.9-7.1
				c-2.2-16.9-11.5-27.6-29.3-33.5C451.9,241.7,438.8,239.7,423.6,239.7z M156.8,239.6c-10.7,0-21.3,1-31.4,3.1
				c-9,1.8-16.1,4.3-22.4,7.8c-8.6,4.8-13.8,10.8-15.7,18.4c-5,19.8-9.4,43.2-3.5,67.1c2.8,11.6,9.8,19.4,21.3,24.1
				c14,5.6,28.1,8.5,42.1,8.5c12.8,0,25.8-2.4,38.8-7.1c17.7-6.4,30-18.8,36.6-36.9c3.2-8.7,3.8-18.3,3.9-27.3
				c-0.1-1.4-0.1-2.9-0.2-4.4c-0.1-3.1-0.2-6.3-0.6-9.4c-2.8-21.5-18.5-38.1-39-41.5C176.6,240.5,166.5,239.6,156.8,239.6z"/>
			<path class="st6" d="M46.7,298.3c0.4,0,0.8-0.1,1.3-0.1c10.6-0.3,12.5,1.3,14.1,11.6c1,6.7,1.6,13.4,3.3,19.9
				c4.5,17.6,13.6,31.9,31.2,38.8c25.4,10,51.9,14.7,79.2,12.7c19-1.4,34.4-9.6,45.3-26.2c9-13.6,14.8-28.3,18.4-44
				c4-17.4,9.2-21.3,26.3-23.4c15.2-1.8,30.1-1.7,45.3-0.1c17.9,2,23.4,5.8,27.4,23.7c3.8,17.1,10.2,32.8,20.8,47
				c8.8,11.8,20,19.1,34.4,21.5c28.6,4.9,56.1-0.6,83.2-9.5c19.4-6.4,30.3-20.6,35.5-39.6c1.5-5.7,2.3-11.6,3.1-17.4
				c1.9-14.7,2.9-15.7,17.2-14.8c1.7,0.1,3.4,0.3,5,0.3c11.4,0.1,13.2-1.7,13.2-13.1c0-15.8-0.3-16.2-15.7-18
				c-2.5-0.3-5.1-1.1-7.5-0.8c-11.9,1.4-19.3-4.6-25.8-13.9c-10.5-15-25.1-22.6-43.8-24c-26.2-1.9-52.2-2.1-78.2,1.3
				c-16.3,2.1-30.3,7.9-35.7,25.5c-0.5,1.6-1.5,3-2.2,4.5c-3.4,7.7-9.6,11.6-17.7,12.2c-23.6,1.6-47.2,1.6-70.8,0
				c-8.2-0.6-14.2-4.7-17.6-12.3c-1.2-2.7-2.8-5.2-3.8-8c-4.1-10.8-12.1-17-23.1-19.5c-5.3-1.2-10.7-2.2-16.1-3
				c-18.9-2.7-37.9-1.7-56.8-2c-27.5-0.3-50.6,7.8-65.8,32.2c-3.1,5-7.1,6.3-12.6,6.5c-7.6,0.3-15.1,1.3-22.6,2.3
				c-4.8,0.6-7.6,3.3-7.7,8.4C27.1,293.4,23,300.9,46.7,298.3L46.7,298.3z M351.4,285.6c2.4-24,19.7-41.9,43.8-44.8
				c8.3-1,16.8-1,25.2-1.4c14.9-0.2,29.4,1.2,43.6,5.9c16.6,5.5,27.3,15.6,29.6,33.9c2.2,17.5,5.5,34.8,1.9,52.7
				c-3,15-10.8,24.4-25.4,30c-27.4,10.5-54.5,9.7-81.3-0.7c-18-7-29.7-20.6-34.9-39.1C350.6,310.1,350.1,297.8,351.4,285.6
				L351.4,285.6z M86.9,268.8c2.2-8.6,8.3-14.5,15.9-18.7c7.1-3.9,14.7-6.2,22.5-7.9c20.5-4.2,41.1-3.9,61.5-0.6
				c21.4,3.5,36.6,20.6,39.4,41.9c0.6,4.6,0.6,9.2,0.8,13.9c-0.2,9.3-0.8,18.7-4,27.4c-6.5,17.9-18.5,30.6-36.9,37.2
				c-27.4,9.9-54.3,9.5-81.3-1.4c-11.6-4.7-18.7-12.6-21.6-24.4C77.8,313.4,81.2,291,86.9,268.8L86.9,268.8z"/>
			<path class="st7" d="M288.1,482c-0.5-1-1.1-2.1-1.8-3.4c-6.1-13.2-16.3-22.8-25.4-30.5c-13.6-11.4-28.2-22-42.2-32.3
				c-5.6-4.1-11.4-8.4-17.1-12.6l-2.1-1.6c-5.3-3.9-10.7-7.9-15-12.9l-0.5-0.5l0.7-0.3c34.2-13.4,65.2-35.6,97.6-69.9l0.2-0.2
				l0.3,0.1c4,1.4,3.4,4.4,3,6.8c-0.1,0.8-0.3,1.5-0.3,2.2c0.1,14.4,0.1,29,0.1,43.1c0,3.7,0,7.4,0,11.2c0.5-1.6,1-3.3,1.5-5.2
				l0.1,0c0-0.1,0-0.3,0-0.4c3.1-12.8,2.7-25.9,2.3-38.6l-0.1-3.5v-19.9l3.3,3.1c31.4,29.3,61.1,57,100.9,71.2l0.7,0.3l-0.5,0.6
				c-5.6,5.7-11.7,10.4-17.6,14.7c-16.2,11.9-32,23.5-47.5,35.4c-14.1,10.8-28.6,22.7-38,39.5c-0.3,0.6-0.6,1.3-0.9,2
				c-0.3,0.6-0.6,1.2-0.8,1.8l-0.4,1L288.1,482z"/>
			<path class="st7" d="M201.8,402.8c19.9,14.9,40.3,29.1,59.4,45c10.4,8.7,19.8,18.1,25.6,30.6c0.7,1.2,1.4,2.4,1.9,3.4
				c0.5-1.1,1.1-2.4,1.7-3.8c9.2-16.6,23.4-28.4,38.1-39.7c15.7-12,31.6-23.7,47.5-35.4c6.1-4.5,12.1-9,17.5-14.6
				c-40.9-14.6-71.2-43.4-103.5-73.6v18.8c0.4,14.1,1.1,28.2-2.2,42.1c0,0.9-0.1,1.8-0.2,2.7c0-0.7,0-1.5,0.1-2.2
				c-0.7,2.7-1.5,5.3-2.5,8c0-19.1,0.1-38.1-0.1-57.2c0-2.9,2.3-6.9-2.4-8.6c-27.9,29.6-59,54.9-97.8,70
				C189.6,394,195.7,398.3,201.8,402.8L201.8,402.8z M288,381.5c1.5-0.7-0.2,1.4-0.6,0C287.5,381.6,287.8,381.6,288,381.5z"/>
			<path class="st3" d="M289.2,507.2c-2.4,0-5-1.2-8.1-3.7c-7.4-6-14.8-11.9-22.7-18.2c-3.3-2.6-6.6-5.3-10.1-8l-1-0.8l1.2-0.1
				c3-0.3,5.9-0.6,8.7-0.9c6.5-0.7,12.7-1.4,18.9-1.6l0.1,0c2,0,3.8,1.9,5.2,3.6c0.5,0.7,1,1.4,1.6,2l0.4,0.5
				c1.4,1.9,2.8,3.7,4.1,4.5l0.3,0.2l-0.1,0.2l0.2-0.1l0.2,0.1c0.2,0.1,0.4,0.1,0.5,0.1c0.1,0,0.1,0,0.1,0c0,0,0.1-0.2,0.1-0.5
				l0-0.3l0.2-0.2c6.3-4.1,16.7-9,25.5-9c1,0,2,0.1,3,0.2c0.6,0.1,1.3,0.1,1.9,0.1c2.3,0.1,4.8,0.2,7.4,2.8l0.4,0.4L327,479
				c-3.1,2.5-6.3,5.1-9.4,7.6c-7.6,6.2-15.5,12.6-23.3,18.7C292.7,506.6,291,507.2,289.2,507.2L289.2,507.2z"/>
			<path class="st3" d="M289.5,484.5c0.1,0.8-0.3,1.2-1.3,0.9c-0.8,0.5-1,0.3-0.8-0.4c-1.5-0.9-3-3.1-4.6-5.1
				c-0.6-0.6-1.1-1.3-1.6-2c-1.6-1.9-3.3-3.5-4.9-3.4c-8.8,0.4-17.5,1.5-27.6,2.5c11.8,9.5,22.4,17.8,32.7,26.2
				c3.9,3.2,8.1,5.2,12.5,1.8c11-8.5,21.8-17.5,32.7-26.3c-3.2-3.2-6.3-2.4-9.1-2.8C308.9,474.6,297.2,479.4,289.5,484.5
				L289.5,484.5z"/>
			<path class="st3" d="M327.7,471.3c-5.5,0-11-0.2-16.5-0.5c-1-0.1-2-0.1-3.6-0.2l-4.2-0.3l0.5-0.7c4.1-6.3,8.4-10.1,12.5-13.7
				c0.6-0.5,1.2-1,1.7-1.5c10.4-9.3,21.7-17.8,32.6-25.9c7.3-5.5,14.8-11.1,22-16.9c8.1-6.5,15.2-12.5,21.3-19.5
				c2.8-3.2,5.5-4.5,9.7-4.5c0.5,0,1,0,1.5,0c2.8,0.2,5.6,0.2,8.4,0.2c18.9,0,38.7-3.5,62.1-10.9c23.9-7.6,38.2-24,43.8-50
				c0.5-2.2,0.7-4.7,0.9-7.1c0.5-5,1-10.1,3.7-13.5c1.3-1.5,3.1-2.3,5.7-2.3c1.7,0,3.4,0.3,5.3,0.6c1.9,0.3,3.9,0.6,5.7,0.6
				c1,0,2-0.1,2.8-0.3c0.8-0.2,1.5-0.3,2.7-0.4c0.6-0.1,1.4-0.2,2.3-0.3l0.6-0.1l-0.1,0.6c-0.9,6.4-1.6,13-2.2,19.4
				c-3,28.2-6,57.3-25.4,81.6c-10.8,13.5-21.3,22.2-33.1,27.1C407.8,466.9,360.2,471.3,327.7,471.3z"/>
			<path class="st3" d="M524.7,306.5c-3.9,4.8-3,13.5-4.5,20.4c-5.4,25-19,42.4-44.1,50.4c-23.1,7.3-46.4,12.1-70.7,10.7
				c-4.7-0.3-7.7,0.6-10.8,4.2c-6.3,7.3-13.8,13.5-21.3,19.6c-18,14.6-37.3,27.4-54.6,42.9c-4.7,4.2-9.6,8-14.2,15.2
				c3.8,0.2,5.4,0.3,6.9,0.4c62.6,3.7,120.6-14.1,177.2-38c13.3-5.6,23.8-15.6,32.9-27c23.6-29.6,22.8-65.5,27.5-100.7
				c-2.6,0.3-3.8,0.4-5,0.7C537.4,306.8,528.6,301.7,524.7,306.5z"/>
			<path class="st5" d="M175.3,704.4c-9.1,0-18.8-0.3-31.4-0.9c-11.4-0.6-11.6-0.8-11.1-12c2.8-66.8,9.8-104.5,34.3-183.4l0.2-0.8
				l0.6,0.6c14.9,14.7,32.3,25,54.6,32.6c4.1,1.4,5.6,3.5,5.4,7.7l-0.2,5.1c-0.3,7.8-0.6,16-0.6,23.9c0,24.2,0.1,48.8,0.2,72.6
				c0,10.7,0.1,21.5,0.1,32.2c0,2.5,0,5-0.1,7.6c-0.3,11-0.9,11.3-7.4,11.9c-1.2,0.1-2.5,0.2-4.1,0.5
				C203.5,703.5,190.3,704.4,175.3,704.4L175.3,704.4z M163.2,659.6c1.9,0,3.8,0,5.7,0c1.9,0,3.8,0,5.7,0l1.8,0.1
				c3.1,0.1,6.3,0.2,9.5,0.2c4.9,0,8.9-0.3,12.6-0.9c7.1-1.2,10.7-4.6,11.5-10.7c0.2-1.6,0.5-3.1,0.7-4.7c0.3-2.1,0.7-4.3,0.9-6.5
				c0.3-2.6,0-4.2-0.8-5.2c-0.9-1.1-2.6-1.6-5.4-1.7c-1.6-0.1-3.2-0.1-4.9-0.1c-7.3,0-14.7,0.6-21.9,1.3c-5.7,0.5-11.5,1-17.3,1.2
				c-12,0.4-12.3,0.6-12.8,12.4c-0.1,2.3-0.1,4.6-0.1,6.9l0,0.7c0,2.4,0.5,4.2,1.7,5.3c1.2,1.2,3,1.8,5.4,1.8l0.2,0
				C158.2,659.6,160.7,659.6,163.2,659.6z"/>
			<path class="st5" d="M226.8,689.4c0.1-2.5,0.1-5.1,0.1-7.6c-0.1-34.9-0.3-69.9-0.3-104.8c0-9.7,0.5-19.4,0.8-29
				c0.1-3.8-1-5.8-5.1-7.2c-20-6.8-38.4-16.7-54.8-32.7c-24.6,79.5-31.5,116.4-34.2,183.3c-0.5,10.9-0.5,10.9,10.6,11.5
				c24,1.2,47.9,1.7,71.8-1.6C225.8,699.9,226.4,702.3,226.8,689.4L226.8,689.4z M212.1,637.2c-0.4,3.8-1.1,7.5-1.6,11.2
				c-0.9,7-5.5,10-11.9,11.1c-8,1.4-16,0.9-24,0.6c-6.3,0-12.6-0.1-19,0c-5.2,0.1-7.9-2.3-7.8-7.6c0-2.5,0-5.1,0.2-7.6
				c0.6-12.1,0.9-12.5,13.3-12.9c14.7-0.5,29.3-3,44.1-2.4C211.6,630,212.6,632.4,212.1,637.2L212.1,637.2z"/>
			<path class="st8" d="M334.6,668.3c-15.1-0.1-30.5-0.2-45.9-0.2c-15.2,0-30.8,0.1-46.3,0.2l-0.2,0c-3.1,0-5-0.6-6.3-1.8
				c-1.3-1.3-1.9-3.3-1.9-6.7c0.1-19.1-0.3-38.3-0.7-56.8c-0.1-4.6,0.9-8.4,3.3-12.1c8.1-12.6,16.2-25.6,23.9-38.6
				c2.7-4.5,6-6.7,11.3-7.3c10.4-1.3,20.9-4.9,33.2-11.3l0.4-0.2l0.2,0.4c3.2,5.1,6.3,10.2,9.4,15.3c9.3,15,18,29.2,27.1,43.5
				c2.1,3.2,2.2,6.4,2.1,9.9c-0.1,5.9-0.2,11.8-0.3,17.6c-0.2,12.8-0.4,26.1-0.3,39.2c0,3.5-0.6,5.7-1.9,7c-1.4,1.4-3.5,2-7,2
				L334.6,668.3z"/>
			<path class="st8" d="M341.8,592.9c-12.1-19.2-24-38.5-36.5-58.8c-11.4,6-22,9.9-33.4,11.3c-5.1,0.6-8.3,2.7-10.9,7.1
				c-7.7,13-15.7,25.9-23.9,38.6c-2.4,3.8-3.3,7.4-3.2,11.8c0.4,18.9,0.7,37.9,0.7,56.8c0,5.9,1.7,8.1,7.9,8.1
				c30.7-0.3,61.5-0.3,92.2,0c6.5,0.1,8.8-1.8,8.7-8.5c-0.2-18.9,0.4-37.9,0.6-56.8C343.9,599.2,343.8,596.1,341.8,592.9
				L341.8,592.9z"/>
			<path class="st3" d="M246,468.9c-11.7,0-23.3-0.6-34.6-1.7c-6.3-0.6-12.5-1.2-18.8-1.8c-4.5-0.4-6.6-1.2-7.4-2.8
				c-0.8-1.5-0.2-3.6,2-7.2c2.1-3.5,4.5-6.9,6.8-10.2c1.7-2.5,3.5-5,5.2-7.6c4.5-6.9,4.3-8.6-1.8-14.5c-8.1-8-13.5-12.3-18.9-12.3
				c-5.3,0-10.8,4-19.1,11.5c-0.8,0.7-1.7,1.5-2.5,2.3c-4.9,4.5-10,9.2-17.7,10c-3,0.3-6.8,2.3-9.6,5.1c-3.1,3.1-6.3,4.6-10,4.6h0
				c-3.4,0-6.8-1.2-10.9-2.7c-25.4-9.4-43.4-22.3-56.6-40.9c-9.2-13-13.3-27.9-16.6-42.1c-2.4-10-3.4-20-4.5-30.6
				c-0.8-7.4-1.6-15.1-2.9-22.8l-0.1-0.6l0.6,0c1.9,0.1,3.5,0.2,5.1,0.3c2.6,0.2,4.9,0.3,7.1,0.3c0.3,0,1,0,1,0c1.4,0,2.6,0,3.7,0
				c9.1,0,9.3,1.6,11.1,11.9c0.2,1.1,0.4,2.3,0.5,3.4c0.3,1.8,0.5,3.6,0.9,5.3c5.4,26.8,19.8,43.6,44.1,51.2
				c23.6,7.5,43.2,10.9,61.6,10.9c3.4,0,6.8-0.1,10.1-0.4c0.5,0,0.9-0.1,1.3-0.1c3.2,0,5.5,1.1,7.7,3.6
				c13.1,14.8,29.3,26.6,44.9,38.1l0.2,0.1c10.5,7.7,21.5,16.5,34.5,27.7c0.3,0.3,0.7,0.6,1,0.9c2.9,2.4,5.8,4.9,7.7,9.8l0.2,0.6
				l-0.7,0C262.4,468.6,254,468.9,246,468.9z"/>
			<path class="st3" d="M129.3,439.2c2.5-2.6,6.4-4.9,9.9-5.2c8.9-0.8,14-6.9,19.9-12.1c17.5-15.6,22.1-15.5,38.7,0.8
				c6.2,6.1,6.5,8,1.8,15.2c-3.9,6-8.3,11.7-12,17.8c-4,6.5-2.9,8.5,5,9.2c6.3,0.6,12.6,1.2,18.8,1.8c19.5,1.9,39,2.1,59.3,0.9
				c-2-5.3-5.5-7.8-8.6-10.4c-11.2-9.6-22.6-18.9-34.5-27.6c-16-11.7-32-23.3-45.2-38.2c-2.6-2.9-5-3.7-8.7-3.4
				c-24.7,1.8-48.5-3.2-71.9-10.6c-25.7-8.1-39.3-26.1-44.4-51.6c-0.6-2.9-0.9-5.8-1.4-8.7c-2-11.7-2-11.7-14.5-11.5
				c-3.7,0.1-7.4-0.3-12.9-0.6c3.1,18.5,3.4,36.2,7.4,53.4c3.5,14.8,7.5,29.2,16.5,41.9c14.3,20,33.6,32.3,56.3,40.7
				C116.5,443.8,122.7,445.9,129.3,439.2L129.3,439.2z"/>
			<path class="st9" d="M242.7,742.5c-0.6,0-1.2,0-1.8,0c-8.7-0.4-17.5-0.6-26-0.8c-2.5-0.1-5.1-0.1-7.6-0.2l-3.4-0.1l0-0.5
				c0.1-0.8,0.1-1.6,0.1-2.4c0.1-1.7,0.2-3.4,0.4-5.2c0.8-8.5-2.8-13.8-11.3-16.3l-0.4-0.1c-3.1-0.9-6.2-1.9-9.7-4.9l-0.8-0.7
				l1.1-0.2c4.1-0.6,8.1-1.2,12-1.7c9.2-1.3,17.8-2.6,26.6-3.7c8.8-1.1,10.4-2,11.5-10.8c0.6-5.1,0.8-10.4,1-15.6
				c0.1-2.3,0.2-4.6,0.3-6.9l0-0.5l0.5,0c19.5,0.6,37.5,0.9,54.9,0.9c18,0,35-0.3,51.9-1l0.4,0l0.1,0.4c1.2,3.7,1.2,7.6,1.1,11.8
				c0,2.8-0.1,5.6,0.3,8.4c1.5,11.2,2.2,11.9,13.2,13.3c8.4,1,16.6,2.3,25.3,3.6c3.8,0.6,7.7,1.2,11.7,1.8l0.9,0.1l-0.6,0.7
				c-2,2.4-4.4,3.3-6.8,4.1c-0.6,0.2-1.2,0.4-1.8,0.7c-12,5-12.7,6-12.5,19.3c0,1.1,0.2,2.3,0.3,3.4c0.1,0.5,0.1,1.1,0.2,1.6l0,0.5
				l-9.9,0.3c-7.2,0.2-14.7,0.4-22.1,0.5c-1.4,0-2.7,0-3.8,0h0c-2.6,0-4.2-0.1-5.5-0.4c-3.3-0.8-4.5-2.9-6.4-7.4l0-0.1l0-0.1
				c-0.1-1.2-0.5-2-1.1-2.7c-3.2-4.6-7.9-4.6-12.9-4.6h-0.1c-7.6,0-15.2,0-22.8,0c-7.9,0-15.7,0-23.6,0h-0.1c-5,0-9.7,0-12.9,4.6
				c-0.3,0.3-0.6,0.7-0.9,1c-0.5,0.5-1.1,1.2-1.1,1.6c0.5,5.2-1.4,7.8-6.1,8.2C244,742.5,243.4,742.5,242.7,742.5z"/>
			<path class="st9" d="M343.5,692.4c-0.9-6.9,0.7-14-1.3-20.1c-36.1,1.4-71.2,1.2-106.9,0.1c-0.4,7.5-0.4,15-1.3,22.5
				c-1.1,9-2.9,10.1-12,11.2c-12.6,1.6-25.1,3.6-38.6,5.5c3.5,3.1,6.7,4,9.9,5c8.4,2.5,12.5,7.9,11.6,16.9c-0.2,2.5-0.3,5-0.5,7.6
				c0.9,0,1.9,0,2.8,0.1c11.2,0.3,22.4,0.4,33.7,1c1.3,0.1,2.6,0.1,3.7,0c3.8-0.4,6.1-2.1,5.6-7.7c-0.1-0.9,1.4-1.9,2.1-2.9
				c3.3-4.8,8.4-4.8,13.4-4.8c15.5,0,30.9,0,46.4,0c5,0,10.1,0,13.4,4.8c0.8,0.8,1.1,1.8,1.2,3c1.9,4.5,3.1,6.4,6,7.1
				c2,0.5,4.8,0.4,9.2,0.4c9.5-0.2,19.1-0.5,28.6-0.7c0.9,0,1.9-0.1,2.8-0.1c-0.2-1.7-0.4-3.3-0.4-5c-0.3-13.4,0.6-14.8,12.8-19.8
				c2.8-1.1,5.9-1.7,8.4-4.6c-12.9-1.9-24.9-3.9-37-5.4C346.1,704.7,345,703.8,343.5,692.4L343.5,692.4z"/>
			<path class="st4" d="M255,541.2c-1,0-2-0.1-3.1-0.3c-3.5-0.6-6.3-0.9-8.5-1.2c-9.1-1.1-9.2-1.3-9-10c0-2.2,0.1-4.9,0-8.3
				c-0.1-3.2-0.1-6.4-0.1-9.6c-0.1-4.3-0.1-8.7-0.2-13.1c0-0.4,0-1.7,0-3.5c0.1-4.9,0.2-14-0.1-19l0-0.4l0.4-0.1
				c0.6-0.2,1-0.3,1.4-0.4l0.1,0c0.4-0.1,0.9-0.1,1.3-0.2l0.2,0.5l0-0.5c0.2,0,0.5,0,0.7,0c0.7,0,1.5,0.1,2.2,0.2l0.1,0
				c0.4,0.1,0.8,0.2,1.2,0.3c0.1,0,0.2,0.1,0.3,0.1c0.4,0.1,0.7,0.3,0.9,0.4c0.1,0.1,0.3,0.1,0.4,0.2c0.3,0.2,0.5,0.3,0.8,0.5
				l0.1,0.1c0.1,0.1,0.2,0.1,0.2,0.2c0.4,0.3,0.7,0.6,1,1c5.6,6,11.7,11.2,18.1,16.7c5.6,4.8,11.5,9.7,16.9,15.3l0.3,0.3l-0.2,0.3
				c-1.6,2.6-3.3,5.1-4.8,7.6c-3.5,5.4-6.8,10.6-9.7,15.9C263.2,539,259.8,541.2,255,541.2L255,541.2z"/>
			<path class="st4" d="M234.5,498.7c0.2,7.6,0.2,15.1,0.4,22.7c0.4,20.2-3.8,15.6,17.1,19.1c6.1,1,10.3-0.7,13.4-6.5
				c4.2-7.7,9.2-15,14.6-23.5c-11.5-11.7-24.4-20.5-35-32c-0.3-0.3-0.6-0.6-1-0.9c-0.1-0.1-0.2-0.2-0.3-0.2
				c-0.2-0.2-0.5-0.4-0.8-0.5c-0.1-0.1-0.2-0.1-0.4-0.2c-0.3-0.1-0.6-0.3-0.8-0.4c-0.1,0-0.2-0.1-0.3-0.1c-0.4-0.1-0.7-0.2-1.1-0.3
				c0,0-0.1,0-0.1,0c-0.9-0.2-1.8-0.2-2.7-0.2c0,0-0.1,0-0.1,0c-0.4,0-0.9,0.1-1.3,0.2c0,0-0.1,0-0.1,0c-0.5,0.1-0.9,0.2-1.4,0.4
				C234.9,482.9,234.4,497,234.5,498.7L234.5,498.7z"/>
			<path class="st5" d="M227.3,536.5c-22.1-6.7-40.1-16.2-54.9-29.1L172,507c-1.7-1.4-4-3.4-2.6-6.4c0.7-1.4,1.7-2.1,3.2-2.1
				c0.7,0,1.5,0.2,2.3,0.3c0.6,0.1,1.1,0.2,1.6,0.3c2.4,0.2,4.8,0.3,7.1,0.3c17.1,0,31.8-6.5,43.6-19.2c0.4-0.4,0.7-0.8,1.2-1.1
				l0.3-0.2c0.3-0.3,0.6-0.5,1-0.8l0.2-0.2c0.4-0.3,0.8-0.5,1.1-0.8l0.2-0.1c0.5-0.3,0.9-0.5,1.3-0.7l0.1,0l0.7,0l-0.1,0.6
				c-1.7,7.4-2.3,18.1-2.7,27.6c-0.4,4.1-0.6,8.3-0.7,12.3c-0.1,2.3-0.1,4.7-0.3,7.1c-0.4,5.4-0.8,9.3-1.5,12.2l-0.1,0.5
				L227.3,536.5z"/>
			<path class="st5" d="M169.8,500.8c-1.4,2.9,1.2,4.7,3,6.2c15.7,13.7,33.8,22.7,54.7,29c0.7-3.3,1.1-7.5,1.5-12.2
				c0.4-6.6,0.3-13.1,0.9-19.4c0.5-10.3,1.1-20.5,2.7-27.7c0,0,0,0,0,0c-0.4,0.2-0.9,0.4-1.3,0.7c-0.1,0-0.1,0.1-0.2,0.1
				c-0.4,0.2-0.7,0.5-1.1,0.7c-0.1,0.1-0.2,0.1-0.3,0.2c-0.3,0.2-0.6,0.5-0.9,0.8c-0.1,0.1-0.2,0.2-0.3,0.2
				c-0.4,0.3-0.8,0.7-1.1,1.1c-13.8,14.9-31,20.9-51.1,19C174,499.4,171.2,497.8,169.8,500.8L169.8,500.8z"/>
			<path class="st3" d="M138,496.8c-1.4,0-2.9-0.1-4.5-0.4c-14.4-2.4-28-7.6-41.7-13.1l-0.6-0.3l0.4-0.5
				c11.2-13.6,23.7-27.7,40-38.4c7.1-4.7,12.2-6.7,17.1-6.7c4.3,0,8.5,1.6,13.6,5.3c12.9,9.2,19.9,24.1,17,36.2
				c-2,8.4-8.6,10-14.5,11.3c-0.5,0.1-1.6,0.4-1.6,0.4l-0.2-0.1c-2.7-2-2.5-4.5-2.4-6.7c0.1-1.5,0.2-2.9-0.6-4
				c-3.5,1.6-5.4,4.7-7.3,7.8l-0.6,1C148.7,494.2,144.2,496.8,138,496.8L138,496.8L138,496.8z"/>
			<path class="st3" d="M151.8,488.3c2.1-3.4,4.2-7.4,8.5-9.1c2.7,3.1-1.3,7.6,3.1,10.9c6.3-1.5,13.4-2.5,15.5-11.3
				c2.8-11.9-4-26.6-16.9-35.7c-10.2-7.2-17.3-7.1-30.1,1.4c-15.3,10.1-27.6,23.3-39.9,38.3c14.1,5.7,27.4,10.8,41.6,13.1
				C141.5,497.2,147.4,495.4,151.8,488.3z"/>
			<path class="st3" d="M229.5,355.1c7.9-16.7,12.6-33.8,16.5-49.9c1.7-6.8,6.6-11.1,13.8-12.1c9.5-1.3,19.2-2,28.9-2
				c9.5,0,19.2,0.6,28.8,1.9c7.9,1,13.1,5.9,14.9,14.2c3.8,17.5,9,33.1,15.8,47.7l-0.8,0.6c-2-1.5-4.1-3-6.1-4.5
				c-13.7-10.1-27.8-20.5-39.2-33.9c-3.9-4.5-8.4-7-13.2-7c-5,0-9.9,2.6-14.1,7.6c-10.5,12.3-23.4,22-36,31.3
				c-2.9,2.2-5.8,4.4-8.7,6.6L229.5,355.1z"/>
			<path class="st3" d="M302.6,316.9c13,15.2,29.3,26.4,45.2,38.3c-7.3-15.5-12.3-31.4-15.9-47.8c-1.7-7.8-6.5-12.8-14.5-13.8
				c-19.2-2.5-38.5-2.6-57.6,0.1c-6.7,0.9-11.7,4.8-13.4,11.7c-4.2,17-8.9,33.8-16.6,49.9c15.6-12,31.8-22.8,44.6-37.9
				C283.2,307.4,294.3,307.1,302.6,316.9z"/>
			<path class="st5" d="M106.3,575.9c-3.6,0-6.9-0.5-10.1-1.5c-5.6-1.8-9.6-5.6-11.8-11.3c-4.6-11.7-6.1-22.8-4.6-33.9l0.1-0.6
				l0.6,0.2c12.5,4.3,25.3,4.9,37.7,5.4c3.3,0.2,6.8,0.3,10.2,0.5c0.6,0,1.3,0.1,2,0.1c3.1,0,6.4-0.4,10.4-1.3
				c7.2-1.7,9.3-4.2,9.5-11.8c0.1-3.5,0.1-7.2,0.1-10.7c0-3.1,0-6.4,0.1-9.6l0-0.6c0-3.1,0.1-7.2,4-7.2c0.3,0,0.6,0,0.9,0.1
				c4.1,0.6,8.1,4.1,7.6,9.5c-0.1,1.8-0.8,3.5-1.5,5.2c-0.3,0.7-0.6,1.4-0.8,2.1c-1.3,4-2.7,7.9-4,11.9c-2.8,8.2-5.7,16.8-8.4,25.2
				C143.2,563.2,124.4,575.9,106.3,575.9L106.3,575.9L106.3,575.9z"/>
			<path class="st5" d="M160.3,510.3c0.8-2.4,2.1-4.8,2.3-7.2c0.4-5-3.3-8.3-7.2-8.9c-4.5-0.7-4.3,4-4.4,7.3
				c-0.1,6.7,0,13.5-0.2,20.2c-0.2,7.7-2.3,10.6-9.9,12.3c-4.1,0.9-8.4,1.6-12.5,1.3c-15.9-1.1-32.1-0.6-48-6
				c-1.6,12,0.4,23,4.6,33.7c2.1,5.4,5.9,9.2,11.5,11c18.9,6.2,45.2-7.5,51.4-26.5C151.9,535,156.2,522.7,160.3,510.3L160.3,510.3z"
				/>
			<path class="st5" d="M532.6,592.1c-0.4,0-0.7,0-1.1-0.1c-13.5-1.4-27.8-16.2-28.8-30c-0.5-7,2.3-11.4,8.3-13
				c4.6-1.2,9.3-1.8,13.7-1.8c7.7,0,15.1,1.8,22,5.5c6.2,3.3,10.4,10,10.4,16.8C557,578.7,542.6,592.1,532.6,592.1L532.6,592.1z"/>
			<path class="st5" d="M511.1,549.5c-6.1,1.6-8.4,6.1-7.9,12.5c1,13.4,15,28.2,28.4,29.6c9.7,1,24.9-12.5,25-22.1
				c0-6.2-3.6-12.9-10.1-16.3C535.3,547.2,523.2,546.3,511.1,549.5L511.1,549.5z"/>
			<path class="st5" d="M129.3,528.8c-1.3,0-2.6,0-4.1,0c-11.1-0.2-24-0.7-36.3-4c-9.5-2.5-10-3.4-9.1-12.7c0.8-7.8,2.3-17,7.6-26
				l0.2-0.4l0.4,0.2c13.9,7.3,30.7,15,49.6,16.9c4.4,0.4,5.9,2,6.2,6.6c0.7,9.3,0.7,14-1.7,16.6C140,528.3,136,528.8,129.3,528.8
				L129.3,528.8z M124.4,520.1c1.4,0.4,2.7,0.7,3.8,0.7c3.2,0,5.3-1.8,6.5-5.6c0.9-2.9-0.4-5.5-4-7.7c-1.7-1.1-3.4-1.6-5.1-1.6
				c-1.7,0-3.4,0.6-4.9,1.7c-1.3,1-2.2,2.3-2.4,3.5c-0.1,0.8,0.1,1.6,0.7,2.2c0.5,0.5,0.7,0.6,0.8,0.6c0.2,0,0.6-0.6,0.8-1
				c0.4-0.8,1-1.8,2-1.9c0.3,0,0.6-0.1,0.9-0.1c0.9-0.1,1.9-0.3,2.8-0.3c1.4,0,3.4,0.3,4.3,3.1c0.3,1.1,0.3,2-0.1,2.8
				c-0.7,1.3-2.4,1.8-3.9,2.3c-0.2,0.1-0.5,0.1-0.7,0.2c-0.3,0.1-0.6,0.4-1.1,0.9C124.7,519.8,124.6,519.9,124.4,520.1L124.4,520.1z
				"/>
			<path class="st5" d="M89.1,524.2c11.8,3.2,24,3.8,36.2,4c18.5,0.4,19.5-0.9,18.2-18.9c-0.3-4.1-1.4-5.7-5.8-6.1
				c-17.4-1.7-33.3-8.3-49.8-16.9c-5,8.5-6.7,17.1-7.6,25.8C79.4,521.1,79.8,521.7,89.1,524.2L89.1,524.2z M120.5,507
				c3.4-2.5,7.1-2.2,10.6-0.1c3,1.8,5.4,4.5,4.2,8.3c-1.6,5.2-5.1,7.4-11.7,5c1.1-0.9,1.5-1.7,2.2-1.9c2.4-0.8,5.5-1.3,4.4-4.6
				c-1.2-3.7-4.4-2.8-7.4-2.3c-1.9,0.3-1.8,4.7-4,2.2C116.9,511.5,118.2,508.7,120.5,507L120.5,507z"/>
			<path class="st5" d="M499.3,586.4c-0.6,0-1.3-0.2-2.2-0.5c-0.6-0.2-1.1-0.5-1.7-0.7c-0.6-0.2-1.2-0.5-1.8-0.7
				c-12.4-5.3-18.4-8.1-19.8-12.6c-1.4-4.4,1.9-10,8.8-21.3c3.4-5.6,6.9-11.2,10.3-16.8c2.5-4.1,5-8.2,7.5-12.3
				c2.4-3.9,3.5-5.7,5.4-5.7c1.5,0,3.3,1.2,6.5,3.4c3,2.1,6.1,4.3,9.2,6.7c0.5,0.4,1.1,0.7,1.8,1.1c2,1.2,4.6,2.6,3.6,5.6l-0.1,0.3
				c-1.2,3.7-2.8,8.4-8.4,8.6c-3.6,0.1-7.2,1.1-10.8,2.7c-4.6,2.1-8.8,4.4-10,9.9c-0.7,3.4-2.7,4.9-6.3,4.9c-0.2,0-0.4,0-0.6,0
				c-0.2,0-0.5,0-0.7,0c-2.7,0-4.7,0.7-6,2.1c-1.2,1.3-1.7,3.2-1.5,5.5c0.4,4.4,3.5,7.2,7.9,7.2c0.5,0,1,0,1.5-0.1
				c0.9-0.1,1.7-0.2,2.4-0.2c4.3,0,6.8,2.1,8.1,7c0.1,0.3,0.1,0.6,0.2,0.9l0.1,0.5l0,0.1C502.4,583.6,501.8,586.4,499.3,586.4
				L499.3,586.4z"/>
			<path class="st5" d="M493.8,584c1.2,0.5,2.4,0.9,3.5,1.4c3.5,1.5,4.4-0.8,4.9-3.5c-0.1-0.4-0.1-0.8-0.3-1.2
				c-1.4-5.1-4-7.3-10-6.5c-4.8,0.7-9.4-1.9-9.9-7.5c-0.5-5.8,3.3-8.4,8.8-8.2c3.6,0.2,5.6-1.1,6.4-4.5c1.2-5.7,5.6-8.1,10.3-10.3
				c3.5-1.6,7.1-2.6,11-2.7c5.4-0.2,6.8-4.8,8-8.5c1.2-3.5-3-4.5-5.2-6.2c-3-2.3-6.1-4.5-9.2-6.7c-7-4.7-7-4.7-11.2,2.1
				c-6,9.7-11.8,19.4-17.8,29.1C469.4,572.9,469.6,573.6,493.8,584L493.8,584z"/>
			<path class="st5" d="M338.1,757.4c-2-0.3-4-0.5-6-0.7c-7.5-0.8-15.2-1.7-24.1-4.5l-1.2-0.4l1.2-0.5c6.8-3.1,13-3.8,18.9-4.4
				c3.1-0.3,6-0.6,8.8-1.2l0.3,0c3.5-0.5,7.1-0.7,11.5-0.7c3.5,0,7,0.1,10.4,0.3c3.4,0.1,6.9,0.3,10.4,0.3c1.5,0,2.8,0,4.2-0.1
				c0.2,0,0.4,0,0.6,0c0.3,0,0.5,0,0.8,0l7.4,0.7l0.1,0.2c0.5,0.7,1.3,1.1,2.4,1.5c0.5,0.2,1,0.3,1.5,0.4c2.1,0.6,4.5,1.2,6.1,4
				l0.3,0.5l-0.5,0.2c-5.5,2.3-11.3,3.6-18.3,4.1c-2.6,0.2-5.4,0.3-8.7,0.3c-2.7,0-5.4-0.1-8-0.1c-2.6-0.1-5.3-0.1-7.9-0.1
				c-3.9,0-7,0.1-10,0.4L338.1,757.4L338.1,757.4z"/>
			<path class="st7" d="M372.5,746c-12.2,0.5-24.3-1.5-36.5,0.2c-0.1,0-0.2,0-0.3,0c-8.4,1.8-17.5,0.8-27.6,5.5
				c11.3,3.6,20.8,4,30.1,5.2c11.4-1.1,23,0.4,34.6-0.5c6.1-0.5,12.1-1.6,18.2-4.1c-1.8-3.2-4.9-3.4-7.3-4.2c-1-0.3-1.9-0.8-2.6-1.6
				l0,0c-2.4-0.2-4.8-0.4-7.2-0.6C373.4,746,372.9,746,372.5,746L372.5,746z"/>
			<path class="st5" d="M239.7,757.4c-3.2,0-6.4-0.1-9.6-0.1c-7.4-0.1-15.1-0.1-22.7-0.3c-0.8,0-1.6,0-2.4-0.1
				c-5.5-0.2-11.9-0.9-17.8-4.1l-0.4-0.2l0.1-0.4c1.1-3.1,3.6-3.7,5.7-4.2c0.5-0.1,0.9-0.2,1.4-0.3c1.2-0.3,1.9-0.8,2.4-1.5l0.1-0.2
				l7.4-0.7c0.3,0,0.6,0,0.9,0c0.2,0,0.4,0,0.6,0c1.3,0.1,2.7,0.1,4.2,0.1c3.5,0,7-0.1,10.4-0.3c3.4-0.1,6.9-0.3,10.4-0.3
				c4.3,0,7.9,0.2,11.3,0.7c0.1,0,0.2,0,0.2,0c0.1,0,0.2,0,0.3,0l26.6,3.6l-1,0.7c-6.7,4.8-14,5.6-21.2,6.4
				C244.4,756.8,242,757.1,239.7,757.4L239.7,757.4L239.7,757.4z"/>
			<path class="st7" d="M241.6,746.2c-12.1-1.7-24.1,0.3-36.2-0.2c-0.5,0-1,0-1.4,0c-2.4,0.2-4.8,0.4-7.2,0.6
				c-0.7,0.9-1.6,1.3-2.6,1.7c-2.5,0.7-5.5,0.7-6.8,4.2c5.6,3,11.6,3.8,17.6,4.1c0.8,0,1.6,0.1,2.4,0.1c10.8,0.2,21.5,0.3,32.3,0.4
				c9.4-1.6,19.2-1,27.9-7.2c-8.5-1.2-16.9-2.3-25.4-3.5C242,746.2,241.8,746.2,241.6,746.2L241.6,746.2z"/>
			<path class="st10" d="M180,452.8c-1.6-3-3.5-5.3-5.3-7.5c-1.8-2.2-3.5-4.2-4.8-6.7c-0.5-1.1-2.6-1.7-5-2.4
				c-3-0.9-6.3-1.9-8.5-4.2l-0.2-0.2l0.1-0.3c1.5-3.1,4.2-4.8,6.9-6.4c0.9-0.5,1.8-1.1,2.6-1.7c0.9-0.7,1.8-1.5,2.8-2.4
				c2.3-2.1,4.7-4.3,7.6-4.3c0.6,0,1.1,0.1,1.7,0.2c6,1.7,10.7,6.1,15.2,10.4l0.4,0.3c3.1,3,0.8,6.3,0,7.3
				c-2.7,3.8-5.4,7.6-8.5,11.9l-4.6,6.5L180,452.8z"/>
			<path class="st10" d="M193.1,428.2c-4.6-4.3-9.4-9-15.4-10.7c-4.7-1.3-8.1,3.7-11.7,6.3c-3.3,2.3-7.4,3.9-9.3,7.9
				c3.9,4.2,12.2,4,13.6,6.7c2.5,5.1,6.9,8.2,10.1,14.2c4.9-6.9,8.7-12.3,12.6-17.7C194.7,432.6,195.4,430.3,193.1,428.2
				L193.1,428.2z"/>
			<path class="st5" d="M175.8,495c0.8-0.9,1.7-1.8,2.5-2.6c4-4.2,7.2-7.6,7.2-12c0.1-6.1,2.6-8.8,7.9-8.8c0.9,0,1.9,0.1,3,0.2
				c3.1,0.4,6.4,0.6,9.5,0.7c2.6,0.1,5.3,0.3,8,0.6c2.2,0.2,4.4,0.8,7,1.3c1.3,0.3,2.6,0.6,4.1,0.9l0.9,0.2l-0.6,0.6
				c-12.4,13.3-27.5,19.4-49.1,19.7l-1.2,0L175.8,495z"/>
			<path class="st5" d="M224.9,475.8c-4.5-1-7.7-1.9-11-2.3c-5.8-0.6-11.7-0.6-17.5-1.3c-6.5-0.8-10.2,0.6-10.3,8.1
				c-0.1,5.6-4.7,9.4-9.8,15C196.5,495,211.9,489.7,224.9,475.8L224.9,475.8z"/>
			<path class="st5" d="M520.6,615.1c-2.1,0-4.9-0.9-9.3-2.3c-5.8-1.9-9-2.9-10.1-5.4c-1.4-3.1,0.7-7.8,5.6-19.2l0.3-0.7l0.5,0.5
				c6.5,6.1,13.7,8.9,21.1,11.4l0.4,0.1l-0.1,0.4C526.5,610.6,525.4,615.1,520.6,615.1L520.6,615.1z"/>
			<path class="st5" d="M511.5,612.3c12.7,4.2,13,4,17.1-12.5c-7.4-2.5-14.7-5.3-21.3-11.5C501.6,601.5,503,609.5,511.5,612.3
				L511.5,612.3z"/>
			<path class="st8" d="M272.4,538.9c-0.7,0-1.5,0-2.3-0.1l-0.8-0.1c0,0,3-4.9,4.3-7c3.6-5.8,7-11.4,10.5-16.8
				c0.5-0.8,2.3-3.5,3.7-3.5c0.1,0,0.1,0,0.2,0c5.2,0.9,7.2,4.9,9.1,8.7c0.8,1.7,1.7,3.5,2.9,4.9c0.9,1.1,1.2,2.2,1,3.2
				c-0.4,1.6-2.1,2.7-3.5,3.3c-1,0.4-2,0.9-2.9,1.3C287.7,535.8,280.8,538.9,272.4,538.9L272.4,538.9z"/>
			<path class="st8" d="M287.9,512c-0.9-0.2-2.5,1.9-3.4,3.3c-4.7,7.4-9.2,14.9-14.3,23.1c10.6,0.7,18.7-3.6,27-7.2
				c2.6-1.1,4.6-3,2.4-5.7C295.8,520.8,295.2,513.3,287.9,512L287.9,512z"/>
			<path class="st4" d="M234.8,581.7c-1.7-9.4-1.3-17.9-1-26.1c0.1-3.6,0.3-7.4,0.3-11.1l0-0.6l21.6,2.7l0,0.5c0,0.5,0,0.9-0.1,1.3
				c0,0.8,0,1.4-0.3,1.9c-4.9,8-9.8,15.9-15.4,25l-4.8,7.7L234.8,581.7z"/>
			<path class="st4" d="M235.3,581.6c7.3-11.7,13.4-21.6,19.5-31.6c0.4-0.6,0.2-1.6,0.3-3c-6.5-0.8-12.9-1.6-20.6-2.6
				C234.7,556.5,232.9,568.1,235.3,581.6L235.3,581.6z"/>
			<path class="st5" d="M491.4,572c-2-0.4-6.3-1.3-6.4-5.3c0-1.6,0.4-2.8,1.3-3.8c1.2-1.2,3.2-1.8,6.1-1.8c1.4,0,2.5,0.4,3.2,1.2
				c0.7,0.8,1.1,1.8,1,3.1c-0.1,2.7-0.3,6.4-5.1,6.6L491.4,572L491.4,572z"/>
			<path class="st5" d="M492.3,561.6c-3.5,0-7,0.9-6.9,5.1c0.1,3.3,3.3,4.2,6,4.8c4.3-0.1,4.4-3.3,4.6-6.1
				C496.2,563.1,494.8,561.6,492.3,561.6z"/>
			<path class="st2" d="M367.1,185.9c3.8-11.5,13.7-18.3,30.9-21.2c5.5-1,10.4-1.4,15.1-1.4c14.9,0,26.7,5,36.1,15.2l0.9,0.9
				l-1.3-0.1c-4.1-0.3-8.4-0.4-12.8-0.4c-21.1,0-41.4,3.3-62.9,6.8l-6.2,1L367.1,185.9z"/>
			<path class="st2" d="M448.8,178.8c-14.3-15.4-32.1-16.9-50.8-13.6c-17.2,3-26.8,9.8-30.5,20.9
				C394.8,181.7,421.4,176.9,448.8,178.8z"/>
			<path class="st2" d="M199,188.4c-9.9-2-20.2-2.9-32.7-2.9c-8.2,0-16.4,0.4-24.3,0.8c-7.7,0.4-15.7,0.8-23.6,0.8l-0.9,0l0.5-0.8
				c5.9-8.9,20.2-14.4,37.4-14.4c18.1,0,35,6,44,15.7l1.1,1.1L199,188.4z"/>
			<path class="st2" d="M199.1,187.9c-19-20.4-67.9-20.6-80.7-1.4C145.1,186.5,171.2,182.3,199.1,187.9z"/>
			<path class="st5" d="M404.5,656.1c-8.5,0-17-0.6-25.1-1.2c-4.1-0.3-6.6-3-7.7-8c-0.6-3.1-1.2-6.1-1.8-9.6
				c-0.3-1.6-0.6-3.3-0.9-5.2l-0.1-0.6l0.6,0c7.8,0.6,15.2,1.7,22.4,2.8c9.5,1.4,18.5,2.8,27.8,2.9c1.8,0,3.1,0.5,3.9,1.3
				c1.3,1.4,1.2,3.4,1.1,5.4c0,0.8-0.1,1.6,0,2.2l0.1,0.6c0.3,3.5,0.8,7.9-5,8.5C415,655.8,410,656.1,404.5,656.1L404.5,656.1z"/>
			<path class="st5" d="M372.2,646.7c0.8,4,2.8,7.3,7.2,7.6c13.4,1,26.9,1.9,40.3,0.4c5.6-0.6,4.9-5,4.5-8.6
				c-0.3-3.4,1.5-8.5-4.6-8.5c-16.4-0.2-32.4-4.4-50.2-5.7C370.5,637.7,371.3,642.2,372.2,646.7L372.2,646.7z"/>
			<path class="st5" d="M145.9,363c-12.9,0-25.7-2.6-38.1-7.7c-10.8-4.5-17.2-11.8-20-23.1c-5.2-20.5-1.4-40.7,3.2-61.4
				c1.8-8,7.6-14.2,17.9-19c11-5.2,22.5-7.9,34.1-7.9c3.4,0,6.9,0.2,10.4,0.7c2.9,0.2,5.7,0.4,8.6,0.6c6.2,0.4,12.7,0.8,19.1,1.4
				c22.4,1.9,37.7,17.4,39,39.6c0.5,9.3,0.4,17.6-0.5,25.3c-2.6,22.2-14.8,37.3-36.2,44.8C170.5,360.8,157.9,363,145.9,363
				L145.9,363z M170.4,269.3c-21,0-38.9,18.4-39.1,40.2c-0.2,21.9,17.5,40.6,38.7,40.9l0.5,0c21.2,0,38.5-18,38.7-40.2
				c0.1-22.3-17.1-40.7-38.4-40.9L170.4,269.3z"/>
			<path class="st5" d="M108,354.9c25.1,10.4,50.1,9.8,75.2,1c20.9-7.4,33.3-22.2,35.9-44.4c1-8.3,1-16.8,0.5-25.2
				c-1.3-22-16.5-37.3-38.5-39.1c-9.2-0.8-18.5-1.3-27.7-1.9c-15.5-2-30.2,0.5-44.2,7.2c-8.3,4-15.5,9.6-17.6,18.7
				c-4.5,20.1-8.4,40.4-3.2,61.1C91,343.1,97.2,350.4,108,354.9L108,354.9z M170.8,268.8c21.7,0.3,39,18.7,38.9,41.4
				c-0.1,22.5-18.1,41-39.7,40.6c-21.5-0.3-39.4-19.2-39.2-41.4C131,287.2,149.4,268.6,170.8,268.8z"/>
			<path class="st5" d="M431.6,363.2c-14.5,0-29.3-3.3-44.1-9.8c-16.6-7.3-26.7-21.4-29.2-40.7c-1.1-8.3-1.3-17-0.6-26.6
				c1.5-22.2,16.9-37.7,39.1-39.5c6.4-0.5,12.9-0.9,20.4-1.4c3.8-0.2,8-0.5,12.5-0.8c2-0.3,4.3-0.5,6.7-0.5c9.1,0,19.9,2.4,30.3,6.9
				c13.1,5.6,20.3,14.6,21.9,27.6c0.4,3,0.8,6,1.2,8.9c2,13.8,4.1,28.1,0.7,42.6c-3.1,13.2-9.8,21.3-21.7,26.1
				C456.7,360.7,444.1,363.2,431.6,363.2L431.6,363.2z M407.1,269.3c-21,0-38.3,18-38.5,40.1c-0.2,22.2,17.1,40.6,38.4,41l0.6,0
				c20.9,0,38.7-18.4,39-40.1c0.2-22.1-17.1-40.5-38.7-41C407.6,269.3,407.3,269.3,407.1,269.3z"/>
			<path class="st5" d="M387.7,352.9c26.3,11.6,53.4,13.5,81,2.5c12.3-4.9,18.5-13.2,21.4-25.7c4.1-17.4,0.2-34.3-2-51.3
				c-1.7-13.6-9.6-22.1-21.6-27.2c-13-5.6-26.6-8-36.7-6.4c-13.7,0.9-23.3,1.4-33,2.2c-22,1.8-37.1,17.1-38.6,39.1
				c-0.6,8.8-0.5,17.7,0.6,26.5C361.2,331.2,371.1,345.6,387.7,352.9z M407.9,268.8c21.7,0.5,39.4,19.2,39.2,41.5
				c-0.2,22.2-18.7,41-40.1,40.6c-21.8-0.4-39.1-18.8-38.9-41.5C368.3,286.9,386.4,268.4,407.9,268.8L407.9,268.8z"/>
			<path class="st5" d="M176.6,655.8c-3.4,0-6.9-0.1-10.3-0.2c-2.2-0.1-4.4-0.1-6.6-0.1c-2.4,0-4-0.6-5.1-1.7
				c-1.7-1.7-1.6-4.5-1.6-7.2c0-0.4,0-0.9,0-1.3c0-4.3,0.6-8.2,7.3-8.4c11.7-0.2,23.3-2.1,36.2-4.3c0.6-0.1,1.3-0.2,1.9-0.4
				c1.6-0.3,3.3-0.7,5.1-0.7c1.6,0,3.1,0.3,4.4,1l0.3,0.2l0,0.3c-2.5,22.1-3.7,22.1-18.1,22.5c-1.9,0-4,0.1-6.5,0.2
				C181.5,655.8,179.2,655.8,176.6,655.8L176.6,655.8z"/>
			<path class="st5" d="M196.6,633c-12,2.1-24.1,4.1-36.2,4.3c-6,0.1-6.8,3.1-6.8,7.9c0,4.7-0.9,9.7,6.2,9.8c8,0.1,16,0.5,24,0.2
				c20.5-0.9,21.3,2.3,24-22.2C204,631.1,200.2,632.4,196.6,633z"/>
			<path class="st6" d="M287.9,382.5c-0.2,0-0.8-0.1-1-0.9l0.8-0.5c-0.1,0,0,0,0-0.1c0.3-0.1,0.5-0.2,0.7-0.2c0.2,0,0.4,0.1,0.5,0.3
				c0.1,0.1,0.2,0.3,0,0.7C288.8,382.1,288.4,382.5,287.9,382.5L287.9,382.5z"/>
			<path class="st6" d="M288,381.5c-0.3,0.1-0.5,0.1-0.6,0C287.8,382.9,289.5,380.8,288,381.5z"/>
			<path class="st6" d="M350.8,764c-12.2,0-25.2-1.4-39.9-4.1c-0.5-0.1-1.1-0.2-1.6-0.3c-4.7-0.8-10.6-1.8-10.8-7.2
				c-0.3-6.2,5.5-7.4,10.2-8.3c0.8-0.2,1.7-0.3,2.4-0.5c1.7-0.4,3.6-0.5,5.3-0.6l1-0.1c3.7-0.2,5.1-1.5,5-4.7
				c-0.1-3.4-1.6-5.2-4.6-5.7c-1.5-0.3-3.1-0.3-4.7-0.3h-0.2c-7.9,0-15.9,0-23.8,0c-8,0-16.1,0-24.1,0h-0.3c-1.5,0-3.2,0-4.6,0.3
				c-3,0.6-4.5,2.4-4.6,5.7c-0.1,3.2,1.3,4.6,5,4.8c4.2,0.2,9,0.7,13.7,2.8c2.9,1.3,5.8,3.1,5.6,6.8c-0.2,2.5-2.1,4.4-5.5,5.4
				l-1,0.3c-2.4,0.8-4.9,1.5-7.5,2c-14.1,2.6-26.8,3.9-38.7,3.9c-8.7,0-17.2-0.7-25.3-2.1c-0.7,0.1-1.5,0.2-2.2,0.2
				c-2.9,0-5.5-1-8.1-2c-0.9-0.4-1.9-0.7-2.8-1c-3.8-1.2-7.6-3.1-7.4-7.9c0.2-3.9,3.4-5.5,6.3-6.8l0.5-0.2c0.7-0.4,1.6-0.4,2.4-0.4
				l0.5,0c0.3,0,0.6,0,0.9,0l4.3-0.6c3.4-3.2,3-7,2.6-11c-0.2-1.9-0.4-3.8-0.2-5.6c-14.1-7.4-28.1-14.1-44.2-15.9
				c-25.3-2.8-26.4-3.8-28-29.1c-1.9-28.4,2.7-56.7,8-82.9c1.3-6.4,2.7-12.8,4.2-19.6c0.6-2.9,1.3-5.8,1.9-8.8
				c-9.8,6.3-18,9.8-26.5,11.2c-3,0.5-6,0.8-8.7,0.8c-16,0-25.9-9-28.6-25.9l-0.2-0.9c-2.8-17.6-5.8-35.8-1.8-53.9
				c0.9-4.1,2.4-8.2,3.8-12.1c0.4-1.2,0.8-2.3,1.3-3.5c1-2.8,1.8-4.5,2.8-4.6c7.3-0.6,10.4-5.5,13.6-10.7c1.8-2.8,3.6-5.7,6.1-7.9
				c2.7-2.3,5.1-5.1,7.6-8c1.1-1.2,2.2-2.5,3.3-3.8c-6.6-3.9-13.2-7.1-19.7-10.2c-4.3-2.1-8.7-4.2-12.9-6.5
				c-29.5-15.7-46.4-40.9-51.9-76.8c-2.3-15.5-3-30.8-1.9-45.5c0.4-4.8-1-8.3-3.2-12.4c-4.8-8.7-4.7-19,0.2-31.6
				c-0.1-5.8-0.2-11.6-0.3-17.5c-0.2-12.9-0.5-26.2-0.8-39.2c-0.6-23.5-0.2-54.4,8.2-85.3c7.1-26.5,19.9-48.3,38-64.9
				c17.2-15.7,39.7-27.1,66.9-34c23.4-5.9,47.3-6.4,70.4-6.8c4-0.1,8.1-0.1,12.6-0.1c9.8,0,19.7,0.2,29.3,0.4
				c9.6,0.2,19.5,0.4,29.3,0.4l0.9,0c12.4,0,25.1-0.2,37.3-0.4c12.8-0.2,26-0.4,38.9-0.4c4.1,0,8.2,0,12.2,0.1
				c23.4,0.2,48.3,0.9,73,6.4c31.1,6.9,56.4,20.5,75.4,40.5c19,20,31.2,46,36.3,77.3c3.7,22.8,5,46.6,3.7,70.6
				c-0.9,17.8-1.7,35.3-0.9,52.9l0.4,1.3c3.2,11.1,6.4,22.6-2.5,33.3c-1.9,2.3-1.5,5-1.1,7.8c0.1,0.9,0.3,1.9,0.3,2.8
				c1.3,23.3-1,44.6-7,65.1c-6.5,21.9-19.3,38.7-39.2,51.2c-20,12.6-41.3,22.3-63.1,28.9c-1.1,0.3-2.2,0.6-3.3,1
				c-4.6,1.3-9.3,2.6-13.9,5.2c15.3,4,26.1,7.9,36,12.9c15.8,8,27.6,16.2,37.2,26.1c7.3,7.4,16,11.7,25.2,16.2l1.1,0.5
				c10.4,5.1,10.5,5.4,6.2,16.6c-0.3,0.8-0.6,1.6-0.9,2.4l-0.3,0.7c1.4,0.3,2.8,0.6,4.1,0.9c3.5,0.7,6.7,1.4,10,2.4
				c8.5,2.4,14.8,7.8,18.8,16.2c4.5,9.5,2.9,18.5-4.8,25.8l-0.5,0.5c-1.1,1-2.2,2.1-3.5,2.8c-9.8,5.4-16.3,14-20.4,26.9
				c-2.1,6.5-3.2,9-7.3,9l0,0c-1.7,0-4-0.4-7-1c-8.2-1.6-14.6-4-20.1-7.7c-7.4-4.9-8.3-6.3-4.7-15c2.3-5.5,1-7.4-4-9.8
				c-9.9-4.7-18.5-9.3-24.2-17.9c-0.7-1-2.1-2.1-3.8-2.7c-6.5-2.5-13.2-4.9-20.3-7.5c-2.2-0.8-4.5-1.7-6.9-2.5
				c1.1,4.8,2.3,9.6,3.4,14.2c3.2,13,6.1,25.3,8.1,37.8c4,25,7.9,54.2,4.2,83.1c-0.7,5.8-2,10.6-9.7,11.5c-2.7,0.3-5.5,1.1-8.1,1.8
				c-3,0.8-6.1,1.7-9.2,1.9c-16.4,1.3-30.5,8.7-44.1,15.8c0.2,1.9,0,3.8-0.2,5.6c-0.4,4-0.8,7.8,2.6,11l4.2,0.6
				c0.5-0.1,1-0.2,1.5-0.2c2.2,0,4,1.2,5.6,2.4c2.5,2,3.8,4.1,3.7,6.1c-0.1,2-1.6,3.8-4.2,5.3c-3.8,2.2-8.9,4.6-14.7,4.6
				c-0.6,0-1.2,0-1.8-0.1C368.1,763.3,359.6,764,350.8,764L350.8,764z M188,752.2c5.7,3,11.8,3.6,17,3.8c0.8,0,1.6,0.1,2.4,0.1
				c7.6,0.2,15.3,0.2,22.7,0.3c3.2,0,6.4,0.1,9.6,0.1c2.2-0.4,4.6-0.6,6.9-0.9c6.6-0.7,13.5-1.5,19.7-5.5l-24.1-3.3
				c-0.1,0-0.2,0-0.3,0c-0.1,0-0.2,0-0.3,0c-3.4-0.5-6.9-0.7-11.2-0.7c-3.5,0-7,0.1-10.4,0.3c-3.4,0.1-6.9,0.3-10.4,0.3
				c-1.5,0-2.9,0-4.2-0.1c-0.2,0-0.4,0-0.6,0c-0.3,0-0.5,0-0.8,0l-6.9,0.6c-0.8,1-1.9,1.4-2.7,1.7c-0.5,0.1-1,0.3-1.5,0.4
				C190.9,749.5,189,749.9,188,752.2z M309.5,751.7c8.3,2.5,15.6,3.3,22.7,4.1c2,0.2,4,0.4,6,0.7c3-0.3,6.1-0.4,10-0.4
				c2.6,0,5.3,0.1,7.9,0.1c2.6,0.1,5.3,0.1,8,0.1c3.3,0,6.1-0.1,8.7-0.3c6.7-0.5,12.3-1.7,17.5-3.8c-1.4-2-3.3-2.5-5.2-3.1
				c-0.5-0.1-1-0.3-1.5-0.4c-0.8-0.3-1.9-0.7-2.7-1.6l-7-0.6c-0.2,0-0.5,0-0.8,0c-0.2,0-0.4,0-0.6,0c-1.3,0.1-2.7,0.1-4.2,0.1
				c-3.5,0-7-0.1-10.4-0.3c-3.4-0.1-6.9-0.3-10.4-0.3c-4.4,0-8,0.2-11.4,0.7l-0.3,0c-2.9,0.6-5.8,0.9-8.9,1.2
				C321.4,748.5,315.6,749.1,309.5,751.7z M207.3,740.5c2.5,0.1,5.1,0.1,7.6,0.2c8.5,0.2,17.4,0.4,26.1,0.8c0.6,0,1.2,0,1.7,0
				c0.7,0,1.3,0,1.9-0.1c3-0.3,5.7-1.3,5.2-7.1c-0.1-0.8,0.7-1.6,1.4-2.4c0.3-0.3,0.6-0.6,0.8-0.9c3.4-5,8.7-5,13.7-5h0.1
				c7.9,0,15.7,0,23.6,0c7.6,0,15.2,0,22.8,0h0.1c5,0,10.3,0,13.7,5c0.7,0.7,1.1,1.7,1.3,3.1c1.9,4.5,3,6.1,5.7,6.7
				c1.2,0.3,2.7,0.4,5.2,0.4c1.1,0,2.4,0,3.8,0c7.4-0.1,14.8-0.3,22.1-0.5l8.9-0.2c0-0.4-0.1-0.7-0.1-1.1c-0.1-1.1-0.3-2.3-0.3-3.5
				c-0.3-13.6,0.7-15.2,13.1-20.2c0.6-0.2,1.2-0.5,1.8-0.7c2-0.7,4-1.4,5.7-3.1c-3.6-0.5-7.2-1.1-10.8-1.6
				c-8.7-1.3-16.9-2.6-25.3-3.6c-11.4-1.4-12.6-2.6-14.1-14.1c-0.4-2.9-0.3-5.8-0.3-8.6c0.1-3.9,0.1-7.7-0.9-11.1
				c-16.9,0.7-33.7,1-51.6,1c-17.3,0-35.1-0.3-54.5-0.9c-0.1,2.1-0.2,4.3-0.3,6.4c-0.2,5.1-0.4,10.5-1,15.6
				c-1.2,9.4-3.2,10.5-12.4,11.7c-8.8,1.1-17.4,2.4-26.6,3.7c-3.6,0.5-7.2,1.1-10.9,1.6c3,2.4,5.8,3.2,8.5,4l0.4,0.1
				c8.8,2.7,12.9,8.5,12,17.4c-0.2,1.7-0.3,3.4-0.4,5.1c0,0.6-0.1,1.3-0.1,1.9L207.3,740.5z M348.7,478.4c-0.3,1.3-0.2,8.8,0,15.5
				c-0.3,12.1,0.5,24.3,1.3,36.1c0.4,5.5,0.7,11.3,1,16.9c1.6,34.6,1.2,69.8,0.8,103.9c-0.1,7.1-0.2,14.3-0.2,21.4
				c0,5,0.1,10,0.1,14.9c0,2.6,0.1,5.2,0.1,7.8c0,3.3,1.4,4.9,4.6,5.3c15.2,2.1,31.3,3.1,47.7,3.1c11.3,0,23.3-0.5,35.5-1.5
				c3.8-0.3,5.1-2,4.8-6.1c-0.2-3.3-0.4-6.7-0.6-10c-1.6-26.5-3.3-53.8-8.4-80.4c-5.6-29.2-14-58.2-22.1-86.2
				c-2.7-9.3-5.5-19-8.1-28.5c-0.3-0.9-0.6-2.2-1.1-3.6c-1.4-4.7-3.5-11.7-4.5-17.1c-1.5,0.3-2.7,0.6-3.9,1
				c-9.3,2.9-19.1,3.9-28.6,4.9C361,476.5,354.7,477.2,348.7,478.4z M167.8,509.1c-24.2,78.3-31.2,116-34,182.4
				c-0.2,5.3-0.3,8,0.9,9.3c1.2,1.3,4.1,1.4,9.3,1.7c12.6,0.6,22.3,0.9,31.3,0.9c14.9,0,28.1-0.8,40.4-2.5c1.6-0.2,3-0.4,4.1-0.5
				c6-0.6,6.2-0.6,6.5-11c0.1-2.5,0.1-5,0.1-7.6c0-10.7-0.1-21.5-0.1-32.2c-0.1-23.8-0.2-48.4-0.2-72.6c0-8,0.3-16.1,0.6-24l0.2-5.1
				c0.1-3.8-1.1-5.4-4.8-6.7C200,533.8,182.7,523.5,167.8,509.1z M288.8,667.1c15.3,0,30.8,0.1,45.9,0.2l0.3,0
				c3.2,0,5.1-0.5,6.3-1.7c1.2-1.2,1.7-3.1,1.7-6.3c-0.1-13.1,0.1-26.3,0.3-39.2c0.1-5.9,0.2-11.8,0.3-17.6c0-3.3-0.1-6.3-2-9.3
				c-9.1-14.3-17.8-28.5-27.1-43.5c-3-4.9-6.1-9.9-9.2-14.9c-12.2,6.3-22.7,9.9-33.1,11.2c-5,0.6-8,2.6-10.5,6.8
				c-7.7,13-15.8,26-23.9,38.6c-2.3,3.5-3.2,7.1-3.2,11.5c0.4,18.5,0.7,37.7,0.7,56.8c0,3.1,0.5,4.9,1.6,6c1.1,1.1,2.8,1.5,5.6,1.5
				l0.2,0C257.9,667.2,273.5,667.1,288.8,667.1z M507.5,589.2c-4.5,10.3-6.5,15.1-5.3,17.8c0.9,2.1,4,3.1,9.5,4.9
				c4.3,1.4,7,2.2,9,2.2c3.7,0,4.7-3.1,7.4-13.9C520.9,597.7,513.9,595,507.5,589.2z M524.7,548.2c-4.4,0-8.9,0.6-13.5,1.8
				c-5.6,1.5-8.1,5.4-7.6,12c1,13.4,14.9,27.8,27.9,29.1c0.3,0,0.6,0,1,0c9.6,0,23.4-12.7,23.5-21.7c0-6.4-3.9-12.8-9.8-15.9
				C539.5,550,532.2,548.2,524.7,548.2z M505.8,516.8c-1.3,0-2.3,1.5-4.5,5.2c-2.5,4.1-5,8.2-7.5,12.3c-3.4,5.6-6.8,11.2-10.3,16.8
				c-6.8,11-10,16.5-8.7,20.5c1.3,4,7.1,6.7,19.2,11.9c0.6,0.3,1.2,0.5,1.8,0.7c0.6,0.2,1.1,0.4,1.7,0.7c0.7,0.3,1.3,0.4,1.8,0.4
				c1.4,0,2-1.3,2.4-3.5c0-0.1,0-0.2-0.1-0.3c0-0.3-0.1-0.5-0.2-0.8c-1.2-4.5-3.3-6.3-7.1-6.3c-0.7,0-1.4,0.1-2.3,0.2
				c-0.5,0.1-1.1,0.1-1.6,0.1c-4.1,0-8.4-2.5-8.9-8.1c-0.2-2.6,0.4-4.7,1.8-6.3c1.5-1.6,3.8-2.5,6.8-2.5c0.2,0,0.5,0,0.7,0
				c0.2,0,0.4,0,0.6,0c3.1,0,4.7-1.2,5.3-4.2c1.2-5.9,5.9-8.5,10.5-10.6c3.7-1.7,7.4-2.6,11.2-2.8c4.9-0.2,6.3-4.3,7.5-7.9l0.1-0.3
				c0.7-2.1-0.7-3.1-3.1-4.5c-0.7-0.4-1.3-0.8-1.9-1.2c-3.1-2.4-6.2-4.6-9.2-6.7C508.8,518,507,516.8,505.8,516.8z M343.2,485.3
				c-1.9,5-4.1,10.7-4.1,10.7l-0.3,0.6c-6.7,11.2-13.6,22.8-24.3,31.2c-2.6,2.1-2.9,3.8-1.1,6.7c7.1,11.1,14.1,22.2,21.6,34
				l7.4,11.8c1.3-6.8,0.8-11.8,0.2-16.1c0-5.2,0-10.2,0-15.3c0-13.1-0.1-26.7,0-40C342.6,504,342.8,493.5,343.2,485.3z M235.1,545
				c0,3.6-0.1,7.1-0.3,10.6c-0.3,7.8-0.7,15.8,0.8,24.6l3.4-5.5c5.6-9.1,10.5-17,15.4-25c0.2-0.3,0.2-0.8,0.2-1.4c0-0.3,0-0.6,0-0.9
				L235.1,545z M80.8,529.9c-1.3,10.7,0.2,21.5,4.6,32.8c2.1,5.4,5.9,9,11.2,10.7c3,1,6.3,1.5,9.7,1.5c17.7,0,36.1-12.4,41-27.6
				c2.7-8.4,5.6-16.9,8.4-25.2c1.3-4,2.7-7.9,4-11.9c0.2-0.7,0.5-1.5,0.8-2.2c0.6-1.6,1.3-3.3,1.4-4.9c0.4-4.8-3.1-7.8-6.8-8.4
				c-0.3,0-0.5-0.1-0.8-0.1c-2.7,0-3,2.7-3,6.2l0,0.6c-0.1,3.2-0.1,6.4-0.1,9.6c0,3.5,0,7.1-0.1,10.7c-0.2,8-2.6,11-10.2,12.8
				c-4,0.9-7.4,1.4-10.6,1.4c-0.7,0-1.4,0-2.1-0.1c-3.4-0.2-6.8-0.4-10.1-0.5C105.9,534.6,93.2,534.1,80.8,529.9z M492.3,562.1
				c-2.6,0-4.4,0.5-5.4,1.5c-0.7,0.7-1,1.7-1,3c0.1,2.6,2.3,3.6,5.6,4.3c3.8-0.1,3.9-2.8,4-5.6c0-1-0.2-1.8-0.7-2.4
				C494.3,562.4,493.4,562.1,492.3,562.1l0-0.5L492.3,562.1z M403.4,469.3c1.7,3.6,3.1,8.3,4,11.5c0.4,1.3,0.7,2.4,1,3.1
				c1.2,3.4,2.5,6.8,3.7,10.2c6,16.5,12.1,33.6,17.6,50.6c2.2,6.7,4.3,11.5,12.3,12.7c5.1,0.7,10.2,2.8,15,4.7c1,0.4,2,0.8,3,1.2
				c1.7,0.7,3.1,1,4.3,1c2.5,0,4.4-1.4,6.2-4.8c7.2-13.1,15.2-26.6,24.4-41.4c3.3-5.3,2.8-8.2-2.1-11.8
				c-17.5-12.8-34.3-22.5-51.3-29.4c-9.9-4.1-20.5-8-31.9-8C407.6,468.8,405.4,469,403.4,469.3z M234.9,476.5
				c0.3,5.1,0.2,13.9,0.1,18.7c0,1.8-0.1,3,0,3.5c0.1,4.4,0.2,8.8,0.2,13.1c0,3.2,0.1,6.4,0.1,9.6c0.1,3.4,0,6.2,0,8.3
				c-0.1,5.3,2.6,8.3,8.2,9c2.2,0.3,5,0.6,8.6,1.2c1.1,0.2,2.1,0.3,3,0.3c4.4,0,7.5-2,9.9-6.5c2.9-5.4,6.2-10.5,9.7-16
				c1.5-2.3,3-4.7,4.6-7.2c-5.3-5.4-11-10.2-16.6-14.9c-6.5-5.5-12.6-10.7-18.2-16.8c-1.7-1.8-4-2.8-6.5-2.8
				C237,476,236,476.2,234.9,476.5z M271.1,537.9c0.5,0,0.9,0,1.4,0c8.2,0,15-3,21.6-6c1-0.4,2-0.9,2.9-1.3c1.7-0.7,2.7-1.7,3-2.6
				c0.2-0.7-0.1-1.5-0.8-2.3c-1.2-1.5-2.1-3.3-3-5.1c-1.9-3.8-3.6-7.3-8.4-8.1l0,0c-0.5,0-1.8,1.4-2.9,3c-3.5,5.5-6.9,11-10.5,16.8
				C273.4,534.2,272.2,536,271.1,537.9z M172.6,499.5c-1.1,0-1.8,0.5-2.3,1.6c-1.1,2.3,0.7,3.8,2.4,5.2l0.5,0.4
				c14.5,12.7,32.2,22.1,54,28.7c1.3-6.4,1.7-16,2.1-26.2c0.5-11.4,1-23.2,2.7-31.5c-1.5,0.8-2.8,1.9-4,3.2
				c-12,12.9-26.9,19.5-44.3,19.5c-2.3,0-4.7-0.1-7.2-0.3c-0.6-0.1-1.2-0.2-1.7-0.3C173.9,499.6,173.2,499.5,172.6,499.5z M88.1,487
				c-5,8.7-6.5,17.6-7.3,25.2c-0.9,8.8-0.6,9.2,8.4,11.6c12.2,3.3,25,3.8,36.1,4c1.5,0,2.8,0,4.1,0c6.2,0,10.2-0.4,12.1-2.5
				c2.3-2.4,2.1-7.6,1.5-15.9c-0.3-3.8-1.1-5.2-5.3-5.6C118.7,501.9,102,494.2,88.1,487z M342.1,477.7c-6.1,0.1-11.5,2.9-16.4,8.5
				c-3.5,4-7.8,7.4-11.9,10.8c-1.7,1.4-3.4,2.8-5.1,4.2c-5.8,5-8.6,7.4-8.7,10.1c0,2.7,2.7,5.9,8.1,12.3
				c10.6-7.6,20.9-24.5,29.2-38.2C339,482.7,340.6,480.1,342.1,477.7z M259.1,484.6c7.9,6.3,15.3,12.2,22.7,18.2
				c2.9,2.4,5.3,3.5,7.5,3.5c1.5,0,3-0.5,4.4-1.6c7.9-6.1,15.7-12.5,23.3-18.7c3-2.4,6-4.9,8.9-7.3c-2.2-1.9-4.3-2-6.4-2.1
				c-0.7,0-1.4-0.1-2-0.2c-0.9-0.1-1.8-0.2-2.8-0.2c-8.4,0-18.5,4.6-24.7,8.6c0,0.4-0.1,0.7-0.3,0.9c-0.1,0.2-0.4,0.4-0.9,0.4
				c-0.2,0-0.3,0-0.5-0.1c-0.3,0.2-0.5,0.3-0.7,0.3c-0.2,0-0.4-0.1-0.5-0.3c-0.2-0.2-0.2-0.5-0.2-0.7c-1.3-1-2.7-2.7-4.1-4.6
				c-2-2.7-4.3-5.7-6.4-5.7l-0.1,0c-6.1,0.2-12.3,0.9-18.8,1.6c-2.4,0.3-4.9,0.5-7.5,0.8C253.1,479.8,256.1,482.2,259.1,484.6z
				 M92.9,482.6c13.4,5.4,26.7,10.5,40.8,12.8c1.6,0.3,3,0.4,4.3,0.4c5.8,0,10.1-2.5,13.3-7.7l0.6-1c1.9-3.1,4.1-6.7,8.1-8.4
				l0.3-0.1l0.2,0.3c1.3,1.5,1.2,3.3,1.1,5c-0.1,2.1-0.3,4,1.8,5.7c0.4-0.1,0.8-0.2,1.1-0.3c5.8-1.4,11.9-2.8,13.8-10.6
				c2.8-11.7-4-26.2-16.7-35.2c-5-3.5-9-5.1-13.1-5.1c-4.6,0-9.6,2-16.5,6.5C116.3,455.4,103.9,469.2,92.9,482.6z M193.4,472.5
				c-4.8,0-6.8,2.3-6.9,7.9c-0.1,4.9-3.4,8.3-7.5,12.7c-0.5,0.6-1.1,1.2-1.7,1.8c20.3-0.5,34.7-6.3,46.6-18.7
				c-1.2-0.3-2.2-0.5-3.2-0.7c-2.5-0.6-4.7-1.1-6.9-1.3c-2.6-0.3-5.3-0.4-8-0.6c-3.1-0.2-6.4-0.3-9.6-0.7
				C195.2,472.5,194.3,472.5,193.4,472.5z M185.6,388.6c4.1,4.6,9.3,8.5,14.3,12.2l2.1,1.6c5.7,4.2,11.5,8.5,17.1,12.6
				c14.1,10.3,28.6,21,42.3,32.4c9.3,7.7,19.6,17.4,25.7,30.8c0.5,0.8,1,1.7,1.4,2.4c0.1-0.3,0.2-0.5,0.4-0.8c0.3-0.6,0.6-1.3,0.9-2
				c9.5-17.1,24.1-29,38.3-39.9c15.5-11.9,31.3-23.5,47.5-35.4c5.6-4.1,11.5-8.6,16.9-14c-39.6-14.3-69.2-41.9-100.5-71.1l-1.6-1.5
				v17.6l0.1,3.5c0.4,12.7,0.7,25.9-2.4,38.7c0,0.8-0.1,1.7-0.2,2.7l-0.5,0c-0.6,2.1-1.2,4-1.9,5.9l-1-0.2c0-4.7,0-9.4,0-14.1
				c0-14.1,0-28.7-0.1-43.1c0-0.8,0.1-1.6,0.3-2.4c0.4-2.4,0.8-4.4-2.1-5.6C250.5,353,219.6,375.2,185.6,388.6z M307.7,469.6
				c1.6,0.1,2.6,0.2,3.7,0.2c5.4,0.3,10.9,0.5,16.4,0.5c61.5,0,118.2-20.5,160.6-38.4c11.6-4.9,22-13.4,32.7-26.8
				c19.2-24.1,22.1-51.8,25.2-81.1c0.6-6.1,1.3-12.5,2.1-18.7c-0.7,0.1-1.2,0.1-1.7,0.2c-1.1,0.1-1.8,0.2-2.5,0.4
				c-0.9,0.2-1.9,0.3-3,0.3c-1.9,0-3.9-0.3-5.9-0.6c-1.8-0.3-3.6-0.6-5.2-0.6c-2.3,0-3.8,0.6-4.9,1.9c-2.5,3.1-3,7.9-3.5,12.9
				c-0.2,2.4-0.5,4.9-1,7.2c-5.7,26.5-20.2,43.1-44.5,50.8c-23.5,7.5-43.3,11-62.4,11c-2.8,0-5.7-0.1-8.5-0.2c-0.5,0-1,0-1.4,0
				c-3.9,0-6.4,1.1-9,4.1c-6.1,7.1-13.3,13.1-21.4,19.7c-7.2,5.8-14.8,11.5-22.1,17c-10.9,8.2-22.2,16.6-32.6,25.9
				c-0.6,0.5-1.2,1-1.7,1.5c-3.9,3.5-8,7-11.9,12.8L307.7,469.6z M178.5,409.8c5.7,0,11.3,4.4,19.6,12.6c6.4,6.4,6.7,8.4,1.9,15.8
				c-1.7,2.6-3.5,5.2-5.2,7.6c-2.3,3.3-4.7,6.7-6.8,10.1c-1.9,3.2-2.6,5.1-2,6.2c0.6,1.2,2.6,1.9,6.6,2.2c6.3,0.6,12.6,1.2,18.8,1.8
				c11.2,1.1,22.9,1.7,34.5,1.7c7.8,0,15.8-0.2,24-0.7c-1.8-4.2-4.5-6.5-7.1-8.7c-0.4-0.3-0.7-0.6-1.1-0.9
				c-13-11.2-23.9-19.9-34.5-27.6l-0.2-0.1c-15.7-11.5-31.9-23.3-45.1-38.2c-2.1-2.4-4.1-3.3-7-3.3c-0.4,0-0.8,0-1.3,0
				c-3.3,0.2-6.8,0.4-10.2,0.4c-18.5,0-38.2-3.5-61.9-11C77.1,370,62.4,353,57,325.8c-0.4-1.8-0.6-3.6-0.9-5.4
				c-0.2-1.1-0.3-2.2-0.5-3.4c-1.8-10.3-1.9-11.1-10.1-11.1c-1.1,0-2.3,0-3.7,0c0,0-0.7,0-1,0c-2.2,0-4.5-0.1-7.1-0.3
				c-1.4-0.1-2.8-0.2-4.4-0.2c1.2,7.6,2,15,2.8,22.3c1.1,10.6,2.2,20.5,4.5,30.5c3.3,14.1,7.3,29,16.4,41.8
				c13.1,18.4,30.9,31.2,56.1,40.5c4.2,1.5,7.4,2.6,10.6,2.6c3.5,0,6.4-1.4,9.3-4.3c2.9-3,6.9-5.1,10.2-5.4
				c7.4-0.7,12.1-5.1,17.1-9.7c0.8-0.8,1.6-1.5,2.5-2.3C167.3,413.9,173,409.8,178.5,409.8L178.5,409.8z M157.4,431.6
				c2,2,5.1,2.9,7.8,3.7c2.6,0.8,4.9,1.4,5.6,2.9c1.2,2.4,2.9,4.4,4.6,6.5c1.7,2.1,3.5,4.2,5,6.9l3.7-5.1c3.1-4.3,5.8-8.1,8.5-11.9
				c1.8-2.6,1.9-4.4,0.1-6l-0.4-0.3c-4.5-4.2-9.1-8.6-14.8-10.2c-0.5-0.1-1-0.2-1.4-0.2c-2.6,0-4.8,2-7,4c-0.9,0.9-1.9,1.7-2.9,2.4
				c-0.8,0.6-1.8,1.2-2.6,1.7C161.3,427.4,158.8,428.9,157.4,431.6z M50.2,297.6c9.2,0,10.9,2.6,12.3,12.1c0.3,1.7,0.5,3.5,0.7,5.2
				c0.7,4.8,1.3,9.9,2.5,14.6c5,19.7,15.1,32.3,30.9,38.5c22.1,8.7,44.5,13.1,66.7,13.1c4.1,0,8.2-0.1,12.3-0.4
				c19.4-1.4,34.5-10.1,44.9-25.9c8.5-13,14.5-27.3,18.3-43.8c3.9-17.2,8.9-21.6,26.8-23.8c7.4-0.9,15.1-1.3,22.6-1.3
				c7.4,0,15.1,0.4,22.8,1.3c17.5,1.9,23.6,5.5,27.8,24.1c4.1,18.3,10.9,33.6,20.7,46.8c8.9,11.9,20,18.9,34.1,21.3
				c7.1,1.2,14.5,1.8,21.9,1.8c18.3,0,37.7-3.6,61.1-11.3c18.1-5.9,29.6-18.8,35.1-39.3c1.5-5.5,2.3-11.1,3-17.3
				c1.5-12,2.4-15.5,11.8-15.5c1.9,0,4,0.1,6,0.2c0.5,0,1.1,0.1,1.6,0.1c1.1,0.1,2.3,0.2,3.4,0.2l0.7,0c5.6,0,8.2-0.6,9.8-2.1
				c1.8-1.8,2.2-5.2,2.2-10.5c0-15.6-0.2-15.7-15.3-17.5c-0.8-0.1-1.6-0.2-2.4-0.4c-1.3-0.2-2.7-0.5-4-0.5c-0.4,0-0.7,0-1.1,0.1
				c-1.2,0.1-2.3,0.2-3.4,0.2c-9,0-15.8-4.3-22.8-14.3c-10.1-14.6-24.3-22.4-43.4-23.8c-12.4-0.9-23.7-1.4-34.8-1.4
				c-15.3,0-29.5,0.9-43.4,2.6c-13.3,1.7-29.4,6.1-35.3,25.1c-0.3,1-0.8,1.9-1.3,2.8c-0.3,0.6-0.6,1.2-0.9,1.8
				c-3.4,7.7-9.5,11.9-18.1,12.5c-11.9,0.8-23.9,1.2-35.6,1.2c-11.8,0-23.6-0.4-35.2-1.2c-8.4-0.6-14.5-4.8-18-12.6
				c-0.5-1-1-2-1.5-3c-0.8-1.6-1.7-3.3-2.3-5.1c-3.9-10.3-11.3-16.5-22.7-19.2c-5-1.2-10.4-2.1-16.1-3c-11.2-1.6-22.4-2-35.7-2
				c-2.3,0-4.6,0-6.9,0c-2.3,0-4.6,0-6.9,0c-2.4,0-4.8,0-7.2,0c-0.5,0-1.1,0-1.6,0c-29.6,0-50.4,10.5-63.7,32
				c-3.5,5.6-8.3,6.5-13,6.7c-6.3,0.2-12.7,1-18.9,1.8c-1.2,0.2-2.5,0.3-3.7,0.5c-4.7,0.6-7.2,3.2-7.2,7.9c0,2.3-0.1,4.4-0.2,6.3
				c-0.3,5.8-0.5,10.1,1.7,12.4c1.6,1.7,4.6,2.5,9.4,2.5c2.2,0,4.8-0.2,7.9-0.5c0.5-0.1,0.9-0.1,1.3-0.1
				C48.8,297.6,49.5,297.6,50.2,297.6z M288.8,292.2c-9.7,0-19.3,0.7-28.8,2c-6.9,1-11.4,4.9-13,11.3c-3.8,15.5-8.4,32.1-15.7,48.2
				c2.4-1.8,4.8-3.6,7.1-5.4c12.5-9.3,25.4-19,35.8-31.2c4.4-5.2,9.6-7.9,14.9-7.9c5,0,9.9,2.5,13.9,7.3
				c11.3,13.2,25.4,23.7,39,33.7c1.5,1.1,3,2.2,4.5,3.4c-6.4-14.1-11.4-29.2-15.1-46.1c-1.7-7.8-6.6-12.4-14-13.4
				C307.9,292.9,298.2,292.2,288.8,292.2z M157,220.1c14.5,0,28.5,0.9,41.9,2.7c23.9,3.3,36.8,13,41.7,31.7c0.3,1.1,0.9,2,1.6,3.1
				c0.3,0.4,0.5,0.8,0.8,1.2c2.1,3.8,5.2,5.6,9.8,6.1c4.2,0.4,8.6,0.9,12.7,1.4c8.9,1.1,18,2.2,27,2.2c7.9,0,14.9-0.8,21.4-2.6
				c1.5-0.4,3.3-0.6,5-0.6c0.5,0,0.9,0,1.4,0c0.6,0,1.1,0.1,1.6,0.1c8.3,0,13.6-4.3,16.3-13.3c4.7-15.5,16-24.7,34.6-28.1
				c14.9-2.7,30.4-4,47.4-4c13.3,0,27.5,0.8,43.3,2.5c17.3,1.8,31.4,10.5,43.1,26.4c0.3,0.5,0.7,0.9,1.1,1.3c0.7,0.9,1.5,1.8,2,2.8
				c2.3,4.7,5.4,6.8,10.1,6.8c0.7,0,1.5-0.1,2.4-0.2c1.6-0.2,3.2-0.3,4.8-0.3c5.2,0,10.7,1,16.4,3c0.6-0.2,1.2-0.2,1.8-0.2
				c0.2,0,0.5,0,0.7,0c0.2,0,0.5,0,0.7,0c0.4,0,0.9,0,1.4-0.2c0.7-0.2,1.5-0.9,1.4-3.7c-0.6-16.3-0.7-32.8-0.8-48.8
				c0-5.2-0.1-10.4-0.1-15.7c-0.2-18.6-2-36.7-5.5-53.9c-0.8-3.7-1.4-5.2-3.6-5.2c-0.8,0-1.8,0.2-3.1,0.7
				c-14.7,5.6-31.2,8.8-52,10.2c-6.3,0.4-12.6,0.6-18.6,0.6c-29.8,0-56.6-4.8-82.1-14.7c-9.9-3.9-15.1-6.6-21.8-13.6l-0.9-1l1.4,0.2
				c1.5,0.2,5.4,1,6.5,1.5c22.1,10.2,47.2,16.3,76.8,18.5c7.3,0.6,14.6,0.8,21.9,0.8c22,0,44.6-2.5,67.1-7.6
				c2.4-0.5,3.7-1.2,4.3-2.2c0.6-1,0.5-2.6-0.2-4.9c-8.8-28.2-22.8-49-42.9-63.4c-25.4-18.3-55.1-28-90.9-29.6
				c-43.2-1.9-76.4-2.9-107.4-3.2c-4.1,0-8.1-0.1-12.2-0.1c-26.6,0-52.9,0.8-77.5,1.6c-2.7,0.1-5.4,0.2-8.1,0.3
				c-20.9,0.6-42.6,1.3-63.3,6.6c-45.5,11.7-75.1,34.9-90.5,71c-5,11.8-8.9,24.2-11.4,36.9c6.2,0.2,12.6,0.3,19,0.3
				c21.3,0,61.7-1,92.9-7.9c31.1-6.8,60-18.4,93.9-33.6l0.4-0.2l0.2,0.3c2.9,4.2,0.8,6-0.8,7.4c-0.2,0.2-0.4,0.4-0.6,0.5
				c-11.2,10.2-23.8,21.8-34.4,35.1c-0.5,0.6-1,1.2-1.6,1.9c-2.6,3-5.3,6.1-3.7,9.7c1.5,3.4,4.6,3.9,7.5,3.9c1,0,2-0.1,3-0.1
				c0.9-0.1,1.7-0.1,2.5-0.1c17-0.3,32.9-5.8,46.2-11.1c9.5-3.8,21.8-10.9,33.8-17.7c8.1-4.6,15.7-9,22-12.1l0.6,0.8
				c-28.9,30.2-66,47-104.3,47.3l-0.1,0c-1.6,0-3.2-0.2-5-0.4c-7-0.9-11.5-3.3-13.2-7c-1.7-3.7-0.6-8.6,3.4-14.6
				c3.8-5.7,8.4-10.5,13.3-15.6c2.4-2.5,5-5.1,7.3-7.9c-0.8-0.3-1.5-0.4-2.3-0.4c-1.9,0-3.5,0.9-5.1,1.8c-0.8,0.4-1.5,0.9-2.3,1.2
				c-41.3,16.4-84,24.8-126.8,24.8c-3.4,0-6.9-0.1-10.3-0.2c-6.9-0.2-24.9-0.8-35.9-3.9c-1.8,9.5-2.9,19.4-3.3,29.3
				c-0.6,15-0.8,30.2-1,45c-0.2,12.6-0.4,25.6-0.8,38.4c-0.1,2.9,0.7,3.5,1.4,3.7c0.4,0.1,0.9,0.2,1.3,0.2c0.2,0,0.5,0,0.7,0
				c0.2,0,0.5,0,0.7,0c0.6,0,1.2,0,1.8,0.2c3.7-1.3,9.1-3,14.5-3c1.4,0,2.9,0.1,4.2,0.4c1.2,0.2,2.3,0.3,3.4,0.3c6,0,9.5-3.5,13.2-9
				c11.5-17.2,26.9-26.9,45.8-28.8C130.2,220.9,143.7,220.1,157,220.1z"/>
			<path class="st6" d="M561.8,559.5c-3.8-8-9.9-13.6-18.5-16c-4.8-1.3-9.6-2.2-14.7-3.4c0.5-1.4,0.9-2.5,1.3-3.7
				c4.2-11,4.3-11-6-16c-9.4-4.6-18.8-9-26.4-16.8c-10.7-10.9-23.5-19.1-37.1-26c-11.6-5.9-23.9-9.7-37.1-13.2
				c6.2-3.6,12.4-5,18.4-6.8c22.3-6.7,43.2-16.4,62.9-28.8c19.3-12.1,32.5-28.8,39-50.9c6.3-21.3,8.3-42.9,7-65
				c-0.2-3.7-1.9-7.7,0.9-11c9.1-10.9,5.3-22.5,2-34.1c-0.7-17.7,0-35.4,0.9-53c1.2-23.7,0.1-47.2-3.7-70.5
				C540.6,81.6,501.7,40.7,439.5,26.9c-24-5.3-48.5-6.1-72.9-6.4c-29.5-0.3-59,0.6-88.5,0.7c-24,0-48-1.1-72-0.6
				c-23.5,0.5-47.2,1-70.3,6.8C82.8,40.9,45.9,71.5,31.3,125.9c-7.5,28-8.8,56.4-8.1,85.2c0.5,18.9,0.7,37.9,1.1,56.8v0
				c-4.1,10.4-5.7,21.4-0.2,31.3c2.4,4.4,3.6,7.9,3.3,12.7c-1.1,15.2-0.4,30.3,1.9,45.4c5.1,33.7,20.7,59.9,51.6,76.4
				c10.7,5.7,22,10.4,33.2,17c-4.1,4.5-7.4,8.9-11.5,12.3c-7,5.9-8.4,17.7-20,18.7c-0.9,0.1-1.9,2.7-2.4,4.2
				c-1.8,5.2-3.9,10.3-5,15.6c-4,18.3-0.9,36.7,2,54.7c3.3,20.3,16.5,28.1,36.7,24.7c9.6-1.6,18.1-5.7,27.3-11.8
				c-2.3,10.8-4.5,20.2-6.4,29.6c-5.5,27.3-9.8,54.8-8,82.8c1.6,25,2.5,25.9,27.6,28.6c16.4,1.8,30.5,8.7,44.6,16.1
				c-0.9,5.8,2.8,12.3-2.8,17.3c-1.5,0.2-3,0.4-4.5,0.7c-1.2,0.1-2.6-0.1-3.6,0.4c-2.9,1.4-6.3,2.8-6.5,6.6c-0.2,4.6,3.6,6.3,7,7.4
				c4.2,1.4,8.3,3.8,13,2.8c21.4,3.7,42.7,2.2,63.9-1.8c2.9-0.5,5.7-1.5,8.5-2.3c2.5-0.8,4.9-2.3,5.1-5c0.2-3.3-2.5-5-5.3-6.3
				c-4.3-2-8.9-2.5-13.5-2.8c-3.4-0.2-5.6-1.3-5.4-5.3c0.1-3.4,1.7-5.6,5-6.2c1.6-0.3,3.3-0.3,5-0.3c16,0,32,0,47.9,0
				c1.7,0,3.4,0,5,0.3c3.3,0.6,4.9,2.8,5,6.2c0.2,4-2.1,5.1-5.4,5.3c-2.1,0.1-4.2,0.1-6.3,0.7c-5.2,1.3-12.5,1.6-12.2,8.4
				c0.2,5.6,7.1,6.1,12,7.1c21.6,4.1,43.3,5.8,65.2,2c6,0.5,11.3-1.7,16.3-4.5c5.2-3,5.3-6.9,0.5-10.6c-1.9-1.4-4.1-2.9-6.8-2.1
				c-1.5-0.2-3-0.4-4.5-0.7c-5.6-5-1.9-11.6-2.8-17.3c14.1-7.4,28.2-14.8,44.6-16c5.8-0.5,11.4-3,17.2-3.7c7-0.8,8.5-4.9,9.2-11.1
				c3.6-27.9,0.2-55.5-4.2-83c-2.8-17.4-7.4-34.3-11.7-52.9c10.3,3.8,19.2,7,28,10.3c1.5,0.6,3.2,1.6,4,2.9c5.9,8.8,15,13.4,24,17.7
				c5.3,2.5,6.7,4.7,4.3,10.4c-3.6,8.4-2.8,9.6,4.5,14.4c6.1,4,12.8,6.2,19.9,7.6c9.8,1.9,10.7,2,13.7-7.6
				c3.7-11.7,9.7-21.2,20.6-27.2c1.4-0.8,2.7-2.1,3.9-3.2C564.7,577.5,566.3,568.9,561.8,559.5L561.8,559.5z M521.4,405.3
				c-9.1,11.4-19.6,21.4-32.9,27c-56.6,23.9-114.7,41.7-177.2,38c-1.6-0.1-3.2-0.2-6.9-0.4c4.6-7.1,9.5-11,14.2-15.2
				c17.3-15.4,36.7-28.3,54.6-42.9c7.5-6.1,15-12.3,21.3-19.6c3.1-3.6,6.1-4.5,10.8-4.2c24.3,1.4,47.6-3.4,70.7-10.7
				c25.1-8,38.8-25.5,44.1-50.4c1.5-6.9,0.6-15.6,4.5-20.4c3.9-4.7,12.7,0.4,19.3-1.2c1.2-0.3,2.4-0.3,5-0.7
				C544.2,339.8,545,375.7,521.4,405.3z M343.3,659.3c0.1,6.7-2.2,8.6-8.7,8.5c-30.7-0.3-61.5-0.3-92.2,0c-6.2,0.1-7.9-2.2-7.9-8.1
				c0.1-18.9-0.3-37.9-0.7-56.8c-0.1-4.3,0.8-8,3.2-11.8c8.2-12.7,16.2-25.6,23.9-38.6c2.6-4.4,5.8-6.5,10.9-7.1
				c11.3-1.4,21.9-5.4,33.4-11.3c12.6,20.3,24.4,39.6,36.5,58.8c2,3.2,2.1,6.3,2.1,9.6C343.7,621.4,343.2,640.4,343.3,659.3
				L343.3,659.3z M176.4,499.6c20.1,1.9,37.2-4.1,51.1-19c1.5-1.7,3.3-2.9,5.1-3.8c-3.7,15.6-2.2,45.6-5.2,59.3
				c-20.9-6.3-39-15.3-54.7-29c-1.8-1.6-4.3-3.3-3-6.2C171.2,497.8,174,499.4,176.4,499.6L176.4,499.6z M176.2,495.3
				c5.1-5.6,9.7-9.4,9.8-15c0.2-7.6,3.9-9,10.3-8.1c5.8,0.7,11.7,0.7,17.5,1.3c3.3,0.3,6.5,1.3,11,2.3
				C211.9,489.7,196.5,495,176.2,495.3L176.2,495.3z M282.5,318.4c4.7,1.7,2.4,5.7,2.4,8.6c0.2,19.1,0.1,38.1,0.1,57.2
				c1-2.6,1.8-5.3,2.5-8c0,0.7,0,1.5-0.1,2.2c0.1-0.9,0.1-1.8,0.2-2.7c3.4-13.9,2.6-28,2.2-42.1v-18.8c32.4,30.1,62.6,59,103.5,73.6
				c-5.5,5.6-11.4,10.2-17.5,14.6c-15.9,11.7-31.8,23.4-47.5,35.4c-14.7,11.3-28.9,23.1-38.1,39.7c-0.6,1.4-1.2,2.6-1.7,3.8
				c-0.5-1-1.1-2.2-1.9-3.4c-5.7-12.5-15.2-21.9-25.6-30.6c-19.1-15.9-39.5-30.1-59.4-45c-6-4.5-12.2-8.9-17-14.4
				C223.5,373.2,254.6,348,282.5,318.4L282.5,318.4z M230,355.4c7.6-16.2,12.4-33,16.6-49.9c1.7-6.9,6.7-10.8,13.4-11.7
				c19.2-2.7,38.4-2.6,57.6-0.1c8,1,12.8,6,14.5,13.8c3.6,16.4,8.6,32.2,15.9,47.8c-16-11.9-32.3-23.1-45.2-38.3
				c-8.3-9.8-19.4-9.5-28,0.6C261.8,332.5,245.6,343.4,230,355.4L230,355.4z M276.3,474.4c3.9-0.2,7.7,8.4,11.1,10.6
				c-0.2,0.7,0,0.9,0.8,0.4c1,0.3,1.4-0.1,1.3-0.9c7.7-5.1,19.5-9.9,28.1-8.7c2.8,0.4,5.9-0.4,9.1,2.8c-11,8.9-21.7,17.8-32.7,26.3
				c-4.4,3.4-8.6,1.3-12.5-1.8c-10.4-8.4-20.9-16.7-32.7-26.2C258.7,476,267.5,474.8,276.3,474.4L276.3,474.4z M308.3,500.8
				c5.7-4.9,12-9.3,16.9-15c5.2-5.9,10.9-8.8,17.7-8.6c-9.4,14.9-21.8,38-34.9,47.1C300.4,515.3,300.5,507.5,308.3,500.8z
				 M297.2,531.1c-8.3,3.6-16.4,7.9-27,7.2c5.1-8.2,9.6-15.7,14.3-23.1c0.8-1.3,2.5-3.4,3.4-3.3c7.3,1.3,7.9,8.8,11.7,13.4
				C301.7,528.1,299.7,530,297.2,531.1L297.2,531.1z M279.9,510.5c-5.3,8.5-10.4,15.8-14.6,23.5c-3.1,5.7-7.3,7.5-13.4,6.5
				c-20.8-3.4-16.7,1.2-17.1-19.1c-0.2-7.6-0.2-15.1-0.4-22.7c0-1.7,0.4-15.8-0.1-22.6c3.8-1.2,7.7-0.5,10.5,2.4
				C255.5,489.9,268.4,498.8,279.9,510.5L279.9,510.5z M255.2,547c-0.1,1.4,0.1,2.4-0.3,3c-6.1,10-12.3,19.9-19.5,31.6
				c-2.4-13.5-0.6-25.1-0.7-37.1C242.2,545.4,248.7,546.2,255.2,547L255.2,547z M343.2,564.1c0.8,5.2,1.1,10.4-0.4,17.5
				c-10.6-16.7-20.1-31.8-29.7-46.8c-1.9-3-1.8-5.1,1.2-7.4c10.8-8.4,17.6-20,24.5-31.5c0,0,3.3-8.4,5.3-13.9
				c-0.7,9.2-0.8,23-0.9,27C343,527.3,343.1,545.7,343.2,564.1z M29.9,175c0.4-10.1,1.6-20.1,3.4-29.9c10.7,3.2,28.9,3.8,36.3,4
				c47.4,1.4,93-7.1,137-24.6c3.1-1.2,6.1-4.5,10.7-2.3c-7.1,8.2-15.3,15.1-21,23.9c-7.7,11.7-4.4,19,9.4,20.8
				c1.7,0.2,3.4,0.4,5,0.4c37.2-0.3,74.6-16.4,104-47.2c-15.6,7.7-39.8,23.3-55.8,29.7c-14.9,6-30.1,10.9-46.3,11.1
				c-4.9,0.1-11.1,1.5-13.5-3.9c-2-4.7,2.5-8.5,5.3-12.1c10.2-13,22.3-24.1,34.4-35.2c1.8-1.6,4.3-2.9,1.4-7.2
				c-30.2,13.6-61.1,26.4-94,33.6C114,143.5,68.9,145,33.5,144c2.5-12.8,6.4-25.4,11.6-37.6C62.4,66,95.3,45.5,136,35.1
				c23.5-6,47.6-6.1,71.6-6.9c29.9-1,59.8-1.9,89.8-1.6c35.8,0.4,71.6,1.6,107.4,3.2c33,1.5,63.9,10,91.1,29.7
				c22.2,16,35.1,38.1,43.1,63.7c1.6,5.2,0.1,6.7-4.5,7.8c-29.4,6.6-59.1,9-89.1,6.8c-26.6-2-52.5-7.3-76.9-18.6
				c-1-0.5-4.8-1.3-6.4-1.5c6.3,6.7,11.2,9.4,21.6,13.5c32.4,12.6,66.1,16.3,100.5,14.1c17.7-1.2,35.2-3.8,51.9-10.2
				c5.6-2.1,6.4,0.5,7.3,4.9c3.6,17.8,5.4,35.8,5.5,54c0.2,21.5,0.2,43,0.9,64.5c0.1,2.8-0.7,3.9-1.8,4.2c-1.4,0.5-3.3-0.1-4.7,0.4
				c-6.8-2.4-14-3.6-21.1-2.7c-6.5,0.8-10.3-1.4-13-7c-0.7-1.5-2-2.7-3-4.1c-10.7-14.6-24.4-24.3-42.8-26.2
				c-30.2-3.2-60.4-3.9-90.6,1.5c-16.5,3-29,10.8-34.2,27.7c-2.8,9.1-8.5,14.2-18.5,13.6c-2.1-0.1-4.3,0-6.3,0.6
				c-20.6,5.5-40.9,0.9-61.3-1c-4.7-0.4-7.9-2.4-10.2-6.3c-0.8-1.5-1.9-2.9-2.4-4.4c-5.6-21.2-21.8-28.7-41.3-31.3
				c-27.7-3.8-55.4-3.3-83.1-0.5c-19.8,2-34.6,12.4-45.4,28.6c-4.3,6.4-8.5,10.5-17.1,8.9c-6.1-1.1-12.6,0.5-18.6,2.7
				c-1.4-0.6-3.3,0-4.7-0.4c-1.1-0.4-1.9-1.4-1.8-4.2C29,230.6,28.7,202.8,29.9,175L29.9,175z M27.3,277c0.1-5.1,2.9-7.8,7.7-8.4
				c7.5-0.9,15.1-2,22.6-2.3c5.5-0.2,9.5-1.5,12.6-6.5c15.1-24.4,38.3-32.5,65.8-32.2c19,0.2,38-0.8,56.8,2c5.4,0.8,10.8,1.8,16.1,3
				c11,2.5,19,8.6,23.1,19.5c1,2.7,2.6,5.3,3.8,8c3.5,7.6,9.4,11.7,17.6,12.3c23.6,1.6,47.2,1.6,70.8,0c8.1-0.5,14.3-4.5,17.7-12.2
				c0.7-1.5,1.7-2.9,2.2-4.5c5.4-17.6,19.4-23.4,35.7-25.5c26-3.3,52.1-3.2,78.2-1.3c18.6,1.4,33.3,9,43.8,24
				c6.5,9.3,13.8,15.3,25.8,13.9c2.4-0.3,5,0.5,7.5,0.8c15.4,1.8,15.7,2.1,15.7,18c0,11.3-1.8,13.2-13.2,13.1c-1.7,0-3.4-0.2-5-0.3
				c-14.4-0.9-15.4,0.1-17.2,14.8c-0.7,5.8-1.5,11.7-3.1,17.4c-5.2,19.1-16.1,33.2-35.5,39.6c-27.1,8.9-54.6,14.4-83.2,9.5
				c-14.4-2.5-25.6-9.7-34.4-21.5c-10.5-14.2-16.9-30-20.8-47c-4-17.9-9.5-21.7-27.4-23.7c-15.2-1.7-30.1-1.8-45.3,0.1
				c-17.2,2.1-22.4,6-26.3,23.4c-3.6,15.7-9.4,30.4-18.4,44c-10.9,16.5-26.3,24.8-45.3,26.2c-27.3,2-53.8-2.7-79.2-12.7
				c-17.6-6.9-26.7-21.2-31.2-38.8c-1.6-6.5-2.3-13.3-3.3-19.9c-1.5-10.3-3.4-11.9-14.1-11.6c-0.4,0-0.8,0.1-1.3,0.1
				C23,300.9,27.1,293.4,27.3,277L27.3,277z M108.9,441c-22.7-8.4-42.1-20.7-56.3-40.7c-9.1-12.7-13.1-27.2-16.5-41.9
				c-4.1-17.2-4.3-34.9-7.4-53.4c5.5,0.3,9.2,0.6,12.9,0.6C54,305.3,54,305.2,56,317c0.5,2.9,0.9,5.8,1.4,8.7
				c5.1,25.5,18.7,43.5,44.4,51.6c23.5,7.4,47.2,12.4,71.9,10.6c3.7-0.3,6.1,0.5,8.7,3.4c13.2,14.9,29.2,26.6,45.2,38.2
				c11.9,8.7,23.3,18,34.5,27.6c3.1,2.6,6.5,5.1,8.6,10.4c-20.2,1.2-39.8,1-59.3-0.9c-6.3-0.6-12.5-1.2-18.8-1.8
				c-7.9-0.7-9-2.7-5-9.2c3.7-6.1,8.1-11.8,12-17.8c4.7-7.2,4.4-9.1-1.8-15.2c-16.6-16.3-21.1-16.5-38.7-0.8
				c-5.9,5.2-11.1,11.3-19.9,12.1c-3.5,0.3-7.3,2.7-9.9,5.2C122.7,445.9,116.5,443.8,108.9,441L108.9,441z M180.4,452.6
				c-3.2-6-7.5-9.1-10.1-14.2c-1.4-2.8-9.7-2.5-13.6-6.7c1.9-4,6-5.5,9.3-7.9c3.6-2.6,7-7.7,11.7-6.3c6,1.7,10.8,6.3,15.4,10.7
				c2.3,2.1,1.6,4.4-0.1,6.7C189.2,440.3,185.3,445.7,180.4,452.6L180.4,452.6z M131.9,444.5c12.9-8.5,20-8.6,30.1-1.4
				c12.8,9.2,19.7,23.8,16.9,35.7c-2.1,8.7-9.2,9.8-15.5,11.3c-4.4-3.4-0.5-7.8-3.1-10.9c-4.3,1.8-6.4,5.7-8.5,9.1
				c-4.4,7.1-10.3,8.9-18.2,7.6c-14.2-2.3-27.4-7.4-41.6-13.1C104.4,467.8,116.7,454.6,131.9,444.5z M80.3,512.1
				c0.9-8.7,2.6-17.3,7.6-25.8c16.5,8.6,32.4,15.2,49.8,16.9c4.4,0.4,5.5,2,5.8,6.1c1.3,18,0.4,19.2-18.2,18.9
				c-12.2-0.2-24.4-0.8-36.2-4C79.8,521.7,79.4,521.1,80.3,512.1L80.3,512.1z M96.4,573.9c-5.6-1.8-9.4-5.6-11.5-11
				c-4.2-10.7-6.2-21.7-4.6-33.7c15.9,5.4,32,4.9,48,6c4.1,0.3,8.4-0.3,12.5-1.3c7.5-1.7,9.7-4.6,9.9-12.3
				c0.2-6.7,0.1-13.5,0.2-20.2c0.1-3.3-0.1-8,4.4-7.3c4,0.6,7.6,3.9,7.2,8.9c-0.2,2.4-1.5,4.8-2.3,7.2c-4.2,12.4-8.4,24.7-12.5,37.1
				C141.7,566.5,115.4,580.1,96.4,573.9z M143.9,702.9c-11.1-0.6-11.1-0.6-10.6-11.5c2.8-66.9,9.6-103.8,34.2-183.3
				c16.3,16,34.7,25.9,54.8,32.7c4.1,1.4,5.2,3.4,5.1,7.2c-0.4,9.7-0.8,19.4-0.8,29c0,34.9,0.2,69.9,0.3,104.8c0,2.5,0,5.1-0.1,7.6
				c-0.3,12.9-1,10.5-11,11.9C191.8,704.7,167.9,704.2,143.9,702.9L143.9,702.9z M267.6,749.7c-8.7,6.3-18.5,5.7-27.9,7.2
				c-10.8-0.1-21.5-0.1-32.3-0.4c-0.8,0-1.6,0-2.4-0.1c-6.1-0.2-12-1-17.6-4.1c1.3-3.6,4.3-3.5,6.8-4.2c1-0.3,2-0.7,2.6-1.7
				c2.4-0.2,4.8-0.4,7.2-0.6c0.5,0,1,0,1.4,0c12.1,0.5,24.1-1.5,36.2,0.2c0.2,0,0.4,0,0.6,0.1C250.6,747.4,259.1,748.5,267.6,749.7
				L267.6,749.7z M381,746.6L381,746.6c0.7,0.8,1.6,1.3,2.6,1.6c2.4,0.8,5.5,1,7.3,4.2c-6,2.5-12.1,3.6-18.2,4.1
				c-11.6,0.9-23.3-0.6-34.6,0.5c-9.3-1.2-18.8-1.6-30.1-5.2c10.2-4.7,19.2-3.7,27.6-5.5c0.1,0,0.2,0,0.3,0
				c12.1-1.7,24.3,0.3,36.5-0.2c0.5,0,1,0,1.4,0C376.3,746.2,378.7,746.4,381,746.6L381,746.6z M385.8,716.1
				c-12.2,5-13.1,6.4-12.8,19.8c0,1.7,0.3,3.4,0.4,5c-0.9,0-1.9,0.1-2.8,0.1c-9.5,0.3-19.1,0.5-28.6,0.7c-4.4,0.1-7.2,0.1-9.2-0.4
				c-2.9-0.7-4.1-2.6-6-7.1c-0.1-1.1-0.4-2.2-1.2-3c-3.3-4.8-8.4-4.8-13.4-4.8c-15.5,0-30.9,0-46.4,0c-5,0-10.1,0-13.4,4.8
				c-0.7,1-2.2,2-2.1,2.9c0.5,5.6-1.9,7.3-5.6,7.7c-1.1,0.1-2.3,0.1-3.7,0c-11.2-0.5-22.4-0.7-33.7-1c-0.9,0-1.9,0-2.8-0.1
				c0.2-2.5,0.3-5,0.5-7.6c0.9-8.9-3.2-14.3-11.6-16.9c-3.1-0.9-6.4-1.8-9.9-5c13.4-1.9,26-3.9,38.6-5.5c9-1.1,10.8-2.2,12-11.2
				c0.9-7.4,0.9-15,1.3-22.5c35.7,1.2,70.8,1.4,106.9-0.1c2,6.1,0.4,13.2,1.3,20.1c1.5,11.4,2.5,12.3,13.7,13.7
				c12.1,1.5,24.1,3.5,37,5.4C391.7,714.4,388.6,715,385.8,716.1L385.8,716.1z M435.9,605.3c5.7,29.9,7.1,60.2,9.1,90.5
				c0.3,4.2-0.9,6.3-5.3,6.7c-27.8,2.2-55.6,2.1-83.3-1.6c-3.7-0.5-5-2.4-5.1-5.8c-0.1-7.6-0.3-15.2-0.3-22.8
				c0.4-41.8,1.3-83.5-0.6-125.3c-0.8-17.7-2.7-35.3-2.3-53c0,0-0.6-16.2,0.2-16c15.7-3,31.9-2.7,47.2-7.4c1.5-0.5,3-0.8,4.5-1.1
				c1.2,6.9,4.4,17,5.6,21.2C416.2,528.6,428.4,566.3,435.9,605.3L435.9,605.3z M471.1,559.8c-2.9,5.3-6,6-11.2,4
				c-5.9-2.3-11.8-5-18-5.9c-8.1-1.2-10.5-6-12.7-13c-6.6-20.4-14-40.6-21.3-60.8c-0.9-2.5-2.8-10.2-5.3-15.2
				c13.8-2.1,26.5,2.3,39.2,7.5c18.4,7.5,35.3,17.7,51.4,29.5c5.3,3.9,5.6,7.1,2.2,12.5C487,532,478.8,545.8,471.1,559.8
				L471.1,559.8z M497.3,585.4c-1.2-0.5-2.4-0.9-3.5-1.4c-24.1-10.4-24.3-11.1-10.7-33.1c6-9.7,11.9-19.4,17.8-29.1
				c4.2-6.8,4.2-6.9,11.2-2.1c3.1,2.1,6.2,4.4,9.2,6.7c2.2,1.7,6.3,2.7,5.2,6.2c-1.2,3.7-2.6,8.3-8,8.5c-3.8,0.2-7.5,1.1-11,2.7
				c-4.7,2.1-9.1,4.6-10.3,10.3c-0.7,3.5-2.8,4.7-6.4,4.5c-5.5-0.2-9.2,2.4-8.8,8.2c0.5,5.6,5.1,8.2,9.9,7.5c5.9-0.9,8.6,1.3,10,6.5
				c0.1,0.4,0.2,0.8,0.3,1.2C501.6,584.7,500.8,586.9,497.3,585.4L497.3,585.4z M496.1,565.4c-0.1,2.8-0.3,6-4.6,6.1
				c-2.7-0.6-5.9-1.5-6-4.8c-0.1-4.2,3.3-5.1,6.9-5.1C494.8,561.6,496.2,563.1,496.1,565.4z M511.5,612.3c-8.5-2.8-9.9-10.8-4.2-24
				c6.6,6.2,13.9,9,21.3,11.5C524.5,616.3,524.3,616.5,511.5,612.3L511.5,612.3z M531.5,591.5c-13.3-1.3-27.4-16.1-28.4-29.6
				c-0.5-6.4,1.8-10.9,7.9-12.5c12.2-3.2,24.2-2.3,35.4,3.6c6.5,3.4,10.1,10.1,10.1,16.3C556.5,579,541.2,592.5,531.5,591.5
				L531.5,591.5z"/>
			<path class="st6" d="M366.8,191.2c-2.7,0-4.6-1-5.8-3.1c-1.7-2.9-1.3-6.3,1.1-10c2.9-4.6,7.1-8.4,13.2-11.9
				c10.3-6,25-9.7,39.4-9.7c14,0.5,25.8,4.6,35.2,12.3c3.4,2.8,6.5,5.6,8.3,9.7c1.2,2.8,1.2,5,0.2,6.6c-0.9,1.3-2.4,2-4.5,2
				c-0.5,0-1.1,0-1.7-0.1c-8.5-1.2-17.1-1.8-26.3-1.8c-16,0-33,1.8-55.1,5.7C369.3,191,368.1,191.2,366.8,191.2L366.8,191.2z
				 M413,164.3c-4.6,0-9.4,0.5-14.9,1.4c-16.4,2.8-25.9,9.1-29.8,19.8l4.6-0.7c21.6-3.5,41.9-6.8,63.1-6.8c3.9,0,7.8,0.1,11.6,0.4
				C438.4,168.9,427.1,164.3,413,164.3z"/>
			<path class="st6" d="M370.5,190.3c27-4.8,54.1-7.9,81.6-3.9c5.7,0.8,7.7-2.5,5.5-7.8c-1.7-4-4.8-6.8-8.1-9.5
				c-11-9-24-11.8-34.8-12.2c-14.7,0.1-29.3,3.9-39.1,9.7c-5.1,3-9.7,6.6-13,11.7c-1.9,3-2.9,6.4-1.1,9.5
				C363.5,191.3,367,190.9,370.5,190.3L370.5,190.3z M398,165.2c18.6-3.2,36.5-1.8,50.8,13.6c-27.4-1.9-54,2.9-81.2,7.3
				C371.3,175,380.8,168.2,398,165.2z"/>
			<path class="st6" d="M198.1,193.3c-0.9,0-1.9-0.1-2.8-0.2c-0.9-0.1-1.8-0.2-2.6-0.2c-5.2,0-10.4,0-15.5,0c-3.3,0-16.2,0-19.3,0
				l-0.5,0c-2.9,0-14.6,0-17.5,0c-4.6,0-9.3,0-13.9,0l-1.3,0c-2.9,0-6,0-8.8-0.7c-3.2-0.8-5.4-2.5-6-4.8c-0.6-2.3,0.3-4.8,2.7-7.2
				c1.9-1.9,4.4-3.7,7.2-5.2c11.3-6,22.2-8.9,33.1-8.9c4.9,0,9.8,0.6,14.6,1.8c2.3,0.6,4.7,1.1,6.9,1.5c2.6,0.5,5.2,1.1,7.8,1.7
				c6.3,1.6,11.1,3.8,14.9,6.9c0.6,0.4,1.2,0.9,1.8,1.3c3.3,2.4,6.9,5.1,5.3,10C203,192.9,200.4,193.3,198.1,193.3L198.1,193.3
				L198.1,193.3z M166.3,184.5c11.8,0,21.8,0.8,31.3,2.6c-9.1-8.8-25.1-14.3-42.2-14.3c-16.3,0-30,5-36.1,13.2
				c7.6,0,15.2-0.4,22.6-0.8C149.9,184.9,158.1,184.5,166.3,184.5z"/>
			<path class="st6" d="M196.9,178.6c-4.3-3.5-9.4-5.4-14.7-6.8c-4.9-1.2-9.8-2.1-14.7-3.3c-16.8-4.1-32.4-0.8-47.4,7
				c-2.6,1.4-5.1,3.1-7.1,5.1c-4.6,4.6-3.3,9.5,3,11.2c3.2,0.8,6.7,0.7,10,0.7c10.5,0.1,21,0,31.5,0c0,0,0,0,0,0
				c11.7,0,23.5,0.1,35.2,0c4,0,9.3,1.9,11-3.2C205.6,183.9,200.4,181.4,196.9,178.6L196.9,178.6z M118.4,186.6
				c12.8-19.3,61.6-19.1,80.7,1.4C171.2,182.3,145.1,186.5,118.4,186.6z"/>
			<path class="st6" d="M311.8,162.4c-4.1,0-7.3-1.1-9.3-3.2c-2-2.1-2.9-5.1-2.7-9c0.5-9.2,4.8-17.3,9-25c0.8-1.6,1.7-3.1,2.5-4.7
				c0.4-0.7,1.3-1.1,2.3-1.4c0.4-0.1,0.9-0.3,1.2-0.5l0.6-0.3l0.1,0.6c0.5,3.2-0.8,5.5-2,7.8c-0.6,1.1-1.2,2.1-1.5,3.2
				c-0.7,2-1.4,4-2.2,5.9c-1.2,3.1-2.4,6.3-3.3,9.5c-0.9,3.2-1.3,6.4,1.5,8.9c1,0.9,2,1.3,3,1.3c1.4,0,2.8-0.7,4.1-1.3
				c0.6-0.3,1.1-0.5,1.7-0.7c8.1-3.1,14.6-9.1,20.3-14.4c4.3-3.9,11.6-10.4,18.1-16.1c4.2-3.7,7.9-6.9,10-8.8l1.2-1.1l-0.4,1.6
				c-3.7,15.3-33.6,45.3-50.7,47.5C314.1,162.3,312.9,162.4,311.8,162.4L311.8,162.4z"/>
			<path class="st6" d="M315.3,161.6c17.3-2.2,46.8-32.4,50.3-47.1c-5.5,4.9-21.2,18.4-28.2,24.9c-6.2,5.7-12.5,11.4-20.4,14.5
				c-2.9,1.1-6.1,3.6-9.4,0.7c-3-2.7-2.5-6.3-1.6-9.4c1.4-5.2,3.7-10.2,5.5-15.4c1.2-3.5,4.3-6.3,3.6-10.7c-1.2,0.6-2.9,0.8-3.3,1.6
				c-4.9,9.4-10.9,18.6-11.5,29.5C299.8,159.3,305.6,162.9,315.3,161.6L315.3,161.6z"/>
			<path class="st6" d="M403.1,661.3c-2.3-0.1-4.7-0.2-7-0.2c-5.2-0.1-10.5-0.3-15.7-1c-4.8-0.7-9.6-4.3-12.7-9.9
				c-3.5-6.2-4.3-13.2-2.1-18.3c0.9-2.1,2.4-2.4,3.8-2.4c0.3,0,0.6,0,0.9,0c0.3,0,0.6,0,0.9,0c0.9,0,1.8,0,2.7,0c1.6,0,3.1,0,4.7,0
				c1.6,0,3.1,0,4.7,0c3.5,0,7.7,0,12,0.2c4,0.2,8.1,0.5,12,0.9c4.3,0.4,8.8,0.8,13.2,0.9c6.8,0.2,9.9,3.3,9.8,9.7
				c0,0.6,0,1.3,0.1,1.9l0,0.6c0.6,9.3,0.1,13.2-1.8,15.2c-1.5,1.6-3.7,1.9-6.7,1.9h0c-1.4,0-3-0.1-4.8-0.2c-0.8,0-1.6-0.1-2.5-0.1
				c-1.3-0.1-2.6-0.1-4.2-0.1c-1.2,0-2.4,0-3.6,0c-1,0-2.1,0-3.1,0l0,0.7L403.1,661.3z M370.1,632.4c0.3,1.6,0.5,3.1,0.8,4.6
				c0.6,3.5,1.1,6.6,1.8,9.6c0.9,4.6,3.1,7,6.8,7.2c8.1,0.6,16.6,1.2,25.1,1.2c5.5,0,10.5-0.3,15.2-0.8c4.8-0.5,4.5-3.9,4.1-7.4
				l-0.1-0.6c-0.1-0.7,0-1.6,0-2.4c0.1-1.8,0.1-3.6-0.9-4.7c-0.6-0.7-1.7-1-3.2-1c-9.3-0.1-18.3-1.5-27.9-2.9
				C384.8,634.1,377.6,633,370.1,632.4z"/>
			<path class="st6" d="M371.2,630c-2,0-4-0.6-5.2,2.1c-4.3,10,3.8,26.1,14.4,27.5c7.5,1,15.1,0.8,22.7,1.2c0-0.2,0-0.5,0-0.7
				c3.8,0,7.6-0.1,11.4,0c13.8,0.6,16.4,1.9,15.3-16.3c-0.1-0.8-0.1-1.7-0.1-2.5c0.1-6.3-3-9-9.3-9.2c-8.4-0.3-16.8-1.5-25.2-1.8
				C387.2,629.9,379.2,630.1,371.2,630L371.2,630z M424.2,646.1c0.3,3.6,1.1,8-4.5,8.6c-13.5,1.5-26.9,0.6-40.3-0.4
				c-4.4-0.3-6.4-3.6-7.2-7.6c-0.9-4.5-1.6-9-2.7-14.8c17.8,1.4,33.8,5.5,50.2,5.7C425.7,637.7,423.9,642.8,424.2,646.1L424.2,646.1
				z"/>
			<path class="st6" d="M147.3,369.6c-14.1,0-28.4-2.9-42.5-8.6c-11.8-4.8-19-12.9-21.9-24.8c-5.9-24.1-1.5-47.7,3.5-67.6
				c2-7.9,7.3-14.1,16.2-19.1c6.4-3.5,13.6-6,22.7-7.9c10.1-2.1,20.8-3.1,31.6-3.1c9.7,0,19.9,0.9,30.2,2.5
				c21,3.4,37,20.4,39.8,42.3c0.4,3.2,0.5,6.4,0.6,9.5c0,1.5,0.1,2.9,0.2,4.4c-0.2,9.1-0.8,18.8-4,27.6c-6.7,18.4-19.2,31-37.2,37.5
				C173.3,367.2,160.1,369.6,147.3,369.6L147.3,369.6z M143,244.9c-11.5,0-22.8,2.6-33.7,7.8c-10.1,4.8-15.6,10.6-17.3,18.4
				c-4.6,20.5-8.3,40.6-3.2,60.9c2.7,10.9,8.9,18,19.4,22.4c12.2,5.1,24.9,7.7,37.7,7.7c12,0,24.4-2.3,37.1-6.7
				c21.1-7.4,33-22.2,35.6-44c0.9-7.7,1.1-15.9,0.5-25.1c-1.3-21.7-16.2-36.8-38.1-38.7c-6.3-0.5-12.8-1-19-1.4
				c-2.9-0.2-5.8-0.4-8.7-0.6C149.8,245.2,146.4,244.9,143,244.9z"/>
			<path class="st6" d="M104.9,360.6c27,10.9,53.9,11.3,81.3,1.4c18.4-6.6,30.4-19.3,36.9-37.2c3.2-8.7,3.8-18.1,4-27.4
				c-0.3-4.6-0.2-9.3-0.8-13.9c-2.8-21.4-18-38.4-39.4-41.9c-20.4-3.3-41.1-3.6-61.5,0.6c-7.9,1.6-15.5,3.9-22.5,7.9
				c-7.7,4.3-13.8,10.2-15.9,18.7c-5.6,22.2-9.1,44.6-3.5,67.3C86.2,348,93.3,355.9,104.9,360.6L104.9,360.6z M91.5,271
				c2.1-9.1,9.3-14.7,17.6-18.7c14.1-6.7,28.8-9.2,44.2-7.2c9.2,0.6,18.5,1.2,27.7,1.9c22,1.8,37.2,17.1,38.5,39.1
				c0.5,8.4,0.4,16.9-0.5,25.2c-2.6,22.2-15,37-35.9,44.4c-25.1,8.8-50.1,9.5-75.2-1c-10.8-4.5-16.9-11.7-19.7-22.7
				C83.1,311.4,87,291.1,91.5,271z"/>
			<path class="st6" d="M430.7,369.7c-13.8,0-28-2.8-42.1-8.2c-17.7-6.8-29.8-20.5-35.2-39.4c-3.1-11-3.9-22.9-2.5-36.6
				c2.5-24.5,19.8-42.3,44.2-45.3c5.7-0.7,11.6-0.9,17.3-1.1c2.6-0.1,5.3-0.2,7.9-0.3c1.1,0,2.2,0,3.2,0c15.3,0,28.6,1.9,40.6,5.9
				c18,6,27.8,17.2,30,34.3c0.3,2.4,0.6,4.7,0.9,7c2,14.9,4.1,30.2,1,45.8c-3.1,15.4-11,24.7-25.7,30.4
				C457.3,367.2,443.9,369.7,430.7,369.7C430.7,369.7,430.7,369.7,430.7,369.7z M436.5,244.8c-2.3,0-4.5,0.2-6.6,0.5
				c-4.6,0.3-8.8,0.6-12.6,0.8c-7.5,0.5-14,0.9-20.4,1.4c-21.7,1.8-36.7,17-38.2,38.6c-0.7,9.5-0.5,18.1,0.6,26.4
				c2.4,18.9,12.3,32.7,28.6,39.9c14.6,6.5,29.3,9.8,43.7,9.8c12.4,0,24.8-2.5,36.9-7.3c11.6-4.6,18.1-12.5,21.1-25.3
				c3.3-14.3,1.3-28.5-0.7-42.2c-0.4-2.9-0.9-5.9-1.2-8.9c-1.6-12.6-8.6-21.3-21.3-26.8C456.1,247.2,445.5,244.8,436.5,244.8z"/>
			<path class="st6" d="M388.8,361c26.9,10.4,53.9,11.2,81.3,0.7c14.6-5.6,22.4-15,25.4-30c3.6-17.8,0.3-35.1-1.9-52.7
				c-2.3-18.3-13.1-28.4-29.6-33.9c-14.2-4.7-28.8-6.1-43.6-5.9c-8.4,0.5-16.9,0.4-25.2,1.4c-24.1,3-41.3,20.8-43.8,44.8
				c-1.2,12.3-0.8,24.6,2.5,36.4C359.1,340.4,370.8,354.1,388.8,361L388.8,361z M358.2,286.2c1.5-22,16.6-37.3,38.6-39.1
				c9.6-0.8,19.3-1.3,33-2.2c10.2-1.6,23.7,0.8,36.7,6.4c12,5.1,19.9,13.6,21.6,27.2c2.2,17.1,6,33.9,2,51.3
				c-2.9,12.5-9.2,20.8-21.4,25.7c-27.5,11-54.7,9.1-81-2.5c-16.6-7.4-26.5-21.7-28.9-40.3C357.7,303.8,357.6,295,358.2,286.2
				L358.2,286.2z"/>
			<path class="st6" d="M185.9,660.9c-3.2,0-6.4-0.1-9.5-0.2l-1.8-0.1h-0.2c-1.8,0-3.7,0-5.6,0c-1.9,0-3.8,0-5.7,0c-2.5,0-5,0-7.5,0
				l-0.2,0c-2.7,0-4.8-0.7-6.1-2.1c-1.3-1.3-2-3.4-2-6l0-0.7c0-2.3,0-4.6,0.1-6.9c0.6-12.3,1.2-13,13.8-13.4
				c5.8-0.2,11.6-0.7,17.2-1.2c7.2-0.6,14.6-1.3,22-1.3c1.7,0,3.4,0,4.9,0.1c3.1,0.1,5,0.8,6.1,2.1c1.3,1.5,1.3,3.9,1.1,6
				c-0.2,2.2-0.6,4.4-0.9,6.6c-0.2,1.6-0.5,3.1-0.7,4.7c-0.8,6.5-4.9,10.2-12.3,11.5C194.9,660.6,190.9,660.9,185.9,660.9
				L185.9,660.9z M203.5,632.5c-1.6,0-3.3,0.3-4.9,0.7c-0.7,0.1-1.3,0.3-1.9,0.4c-12.9,2.2-24.5,4.1-36.3,4.3
				c-5.4,0.1-6.3,2.5-6.3,7.4c0,0.5,0,0.9,0,1.4c-0.1,2.6-0.1,5.1,1.3,6.5c0.9,0.9,2.3,1.4,4.4,1.4c2.2,0,4.4,0.1,6.6,0.1
				c3.4,0.1,6.9,0.2,10.3,0.2c2.6,0,4.9,0,7-0.1c2.4-0.1,4.6-0.2,6.5-0.2c14-0.3,14.7-0.4,17-21.2
				C206.1,632.7,204.9,632.5,203.5,632.5z"/>
			<path class="st6" d="M205.4,629.7c-14.8-0.6-29.4,1.9-44.1,2.4c-12.4,0.4-12.8,0.8-13.3,12.9c-0.1,2.5-0.1,5.1-0.2,7.6
				c0,5.3,2.6,7.6,7.8,7.6c6.3-0.1,12.6,0,19,0c8,0.3,16,0.7,24-0.6c6.4-1.1,11-4.1,11.9-11.1c0.5-3.7,1.2-7.5,1.6-11.2
				C212.6,632.4,211.6,630,205.4,629.7L205.4,629.7z M183.7,655.2c-8,0.4-16,0-24-0.2c-7.1-0.1-6.2-5.1-6.2-9.8
				c0-4.8,0.9-7.8,6.8-7.9c12.2-0.2,24.2-2.2,36.2-4.3c3.6-0.6,7.4-2,11.1-0.1C204.9,657.5,204.2,654.2,183.7,655.2z"/>
			<path class="st6" d="M128.2,521.7c-1.4,0-3.1-0.3-4.9-1l-0.8-0.3l0.6-0.6c0.4-0.3,0.7-0.6,0.9-0.9c0.5-0.5,0.9-1,1.5-1.1
				c0.2-0.1,0.5-0.1,0.7-0.2c1.4-0.4,2.8-0.9,3.3-1.8c0.3-0.5,0.3-1.2,0-2c-0.5-1.7-1.5-2.4-3.3-2.4c-0.8,0-1.7,0.1-2.6,0.3
				c-0.3,0-0.6,0.1-0.9,0.1c-0.5,0.1-0.9,0.7-1.2,1.4c-0.4,0.8-0.9,1.5-1.7,1.5l0,0c-0.5,0-1-0.3-1.5-0.9c-0.7-0.9-1.1-1.9-0.9-3
				c0.2-1.5,1.2-3.1,2.8-4.2c1.7-1.2,3.6-1.9,5.5-1.9c1.9,0,3.8,0.6,5.7,1.8c4,2.5,5.5,5.5,4.4,8.9
				C134.4,519.6,131.9,521.7,128.2,521.7L128.2,521.7z"/>
			<path class="st6" d="M122.7,511.4c3-0.4,6.2-1.4,7.4,2.3c1.1,3.4-2,3.9-4.4,4.6c-0.7,0.2-1.1,1-2.2,1.9c6.6,2.4,10.1,0.2,11.7-5
				c1.2-3.8-1.2-6.5-4.2-8.3c-3.4-2.1-7.1-2.4-10.6,0.1c-2.3,1.6-3.5,4.5-1.7,6.5C120.9,516,120.9,511.6,122.7,511.4L122.7,511.4z"
				/>
			<path class="st6" d="M170,351.4c-21.7-0.3-39.9-19.5-39.7-41.9c0.2-22.3,18.6-41.1,40.1-41.1l0.4,0c21.9,0.3,39.5,19.1,39.4,41.9
				c-0.1,22.7-17.9,41.2-39.7,41.2C170.5,351.4,170,351.4,170,351.4z"/>
			<path class="st6" d="M170,350.9c21.6,0.3,39.6-18.1,39.7-40.6c0.1-22.7-17.2-41.2-38.9-41.4c-21.5-0.3-39.8,18.4-40,40.7
				C130.6,331.7,148.5,350.6,170,350.9L170,350.9z"/>
			<path class="st6" d="M407,351.4c-21.9-0.4-39.6-19.2-39.4-42c0.2-22.7,17.9-41.1,39.5-41.1c0.3,0,0.5,0,0.8,0
				c22.1,0.5,39.9,19.3,39.7,42c-0.2,22.3-18.6,41.1-40,41.1C407.6,351.4,407,351.4,407,351.4z"/>
			<path class="st6" d="M407,350.9c21.3,0.4,39.8-18.4,40.1-40.6c0.2-22.3-17.5-41-39.2-41.5c-21.5-0.5-39.6,18-39.8,40.6
				C367.9,332.1,385.2,350.6,407,350.9L407,350.9z"/>
			<path class="st11" d="M170.3,351c-17.3,0-31.4-9.9-31.4-22.2s14.1-22.2,31.4-22.2c17.3,0,31.4,10,31.4,22.2S187.6,351,170.3,351z
				"/>
			<ellipse class="st11" cx="170.3" cy="328.8" rx="30.9" ry="21.7"/>
			<path class="st11" d="M408,351c-17,0-30.9-10.2-30.9-22.7s13.8-22.7,30.9-22.7s30.9,10.2,30.9,22.7S425,351,408,351z"/>
			<ellipse class="st11" cx="408" cy="328.3" rx="30.4" ry="22.2"/>
			<path class="st0" d="M388.2,296.3c-12.3,0-22.4-7.5-22.4-16.7s10-16.7,22.4-16.7s22.4,7.5,22.4,16.7S400.6,296.3,388.2,296.3z"/>
			<ellipse class="st0" cx="388.2" cy="279.6" rx="21.9" ry="16.2"/>
			<ellipse class="st0" cx="147.7" cy="275.9" rx="23.1" ry="16.7"/>
			<ellipse class="st0" cx="147.7" cy="275.9" rx="22.6" ry="16.2"/>
			<path d="M525.1,623L525.1,623c-2.7-1-5.4-1.8-8-2.6c-5.3-1.5-10.8-3.1-15.6-6.4c-8.2-5.6-8.5-6.7-4.8-15.4
				c0.1-0.1,0.1-0.3,0.2-0.4c0.1-0.3,0.2-0.5,0.3-0.8c6.1-10.9,7-19.6,3-30.1c-2.9-7.6-2.7-14.3,0.7-19.4c3.7-5.6,11.3-8.9,21.3-9.2
				c5-0.2,7-1.7,8.7-6.4c3.8-10.9,8-21.4,12.7-33c0.7-1.8,0.9-2.9,0.5-3.7c-0.4-0.8-1.3-1.4-2.9-1.9c-4.9-1.7-9.7-3.6-14.4-5.4
				c-3.8-1.5-7.6-3-11.5-4.4c-3.9-1.4-6.4-3.8-8.2-7.8c-13.7-30.8-29.8-67.1-46-103c-2.1-4.6-2.3-8.3-0.7-12.4
				c14.1-36.6,27.9-72.5,40.5-108.5c1-2.8,3-4.8,6.4-6.3c34.7-15.4,72-31.9,110-48.8c1.6-0.7,3.1-1,4.7-1c1.8,0,3.7,0.4,6,1.3
				c32.4,13.1,70.6,28.5,108.7,43.7c2.2,0.9,5,2.3,6.2,5.6c8.6,23.1,18.4,46.3,27.9,68.6c4.9,11.5,9.9,23.3,14.7,35.1
				c2.2,5.4,2.3,10.1,0.3,15.5c-13,34.5-26.2,69.8-39.1,105c-2.1,5.7-5.5,9.3-11,11.6c-29.6,12.4-61.3,25.8-99.7,42.4
				c-2.5,1.1-4.9,1.6-7.2,1.6c-2.1,0-4.3-0.4-6.5-1.4c-5-2.1-10.2-4-15.2-5.9c-5.4-2.1-11-4.2-16.5-6.5c-1.2-0.5-2.1-0.7-2.8-0.7
				c-1.1,0-2.1,0.5-3.2,3.1c-5.7,13-12,26.7-18.7,40.7c-0.7,1.6-0.3,2.6,0.1,3.9c0.1,0.4,0.3,0.7,0.4,1.1c2.8,9.2,0.7,16.9-6.2,22.7
				c-0.4,0.4-0.9,0.8-1.3,1.1c-1.2,1-2.3,2.1-3.7,2.9c-9.8,5.1-16,13.8-19.6,27.2c-0.7,2.7-1.9,6-4.9,8.2l-0.1,0.1H525.1z"/>
			<path d="M525.1,622.5c-7.8-3-16.3-4-23.4-8.9c-7.9-5.4-8.3-6.3-4.6-14.8c0.2-0.4,0.2-0.8,0.4-1.2c5.5-9.7,7.5-18.7,3-30.5
				c-6.3-16.6,2.8-27.3,21.5-27.9c5.4-0.2,7.5-2,9.2-6.8c3.9-11.1,8.3-22,12.6-32.9c1.3-3.3,1.2-5-2.7-6.3c-8.7-3-17.2-6.7-25.9-9.8
				c-3.9-1.4-6.2-3.8-7.9-7.5c-15.3-34.4-30.5-68.7-46-103c-1.9-4.1-2.3-7.7-0.7-12c13.9-36,27.7-72.1,40.5-108.5
				c1.1-3,3.3-4.7,6.1-6c36.7-16.2,73.4-32.5,110-48.8c3.6-1.6,6.9-1.1,10.3,0.3c36.2,14.6,72.5,29.2,108.7,43.7
				c2.7,1.1,4.9,2.5,5.9,5.3c13,35,28.4,69.1,42.6,103.7c2.2,5.3,2.3,9.8,0.3,15.1c-13.2,35-26.2,70-39.1,105
				c-2,5.5-5.2,9-10.8,11.3c-33.3,13.9-66.5,28.1-99.7,42.4c-4.6,2-8.7,2.1-13.3,0.3c-10.5-4.3-21.2-8.1-31.7-12.4
				c-3.5-1.4-5-1-6.6,2.6c-6,13.7-12.3,27.2-18.7,40.7c-1.1,2.2,0,3.6,0.5,5.3c2.6,8.7,1,16.2-6.1,22.2c-1.6,1.4-3.1,3-4.9,3.9
				c-11.2,5.9-16.7,15.8-19.9,27.5c-0.8,3.1-2,6-4.7,7.9L525.1,622.5L525.1,622.5z"/>
			<path class="st12" d="M628.6,512.4c-1.7,0-3.5-0.4-5.5-1.1c-30.3-11.8-62.4-24.1-98.1-37.8c-3.8-1.5-6.1-3.6-7.7-7.2
				c-12.7-28.8-26.2-59.1-42.5-95.5c-1.2-2.8-1.8-5.3-0.5-8.6c12.2-32.1,24.9-65.6,37.6-99.5c1.3-3.4,3.1-5.3,6.3-6.8
				c30.9-13.7,63.6-28.3,100.1-44.7c1.4-0.6,2.7-0.9,4-0.9c1.3,0,2.6,0.3,4.1,0.9c37.3,15.1,70,28.3,99.9,40.3
				c2.9,1.2,4.7,3,6.1,6.3c9.4,22.8,19.1,45.9,28.5,68.3c3.8,9.2,7.7,18.4,11.5,27.6c0.4,1.1,0.8,2.2,1.1,3.3c0.2,0.5,0.3,1,0.5,1.5
				l0.1,0.2l-0.1,0.2c-0.2,0.5-0.3,1.1-0.5,1.6c-0.4,1.1-0.7,2.2-1.1,3.3c-3.4,9.2-6.9,18.4-10.3,27.6
				c-8.9,23.8-18.2,48.4-27.1,72.6c-1.4,3.8-3.3,6-6.7,7.4c-33.2,14-63.9,27.1-93.8,40C632.3,512,630.4,512.4,628.6,512.4z"/>
			<path class="st12" d="M773.4,358.5c-0.5,1.7-1,3.3-1.6,4.9c-12.5,33.4-25.1,66.8-37.5,100.2c-1.3,3.4-2.9,5.6-6.4,7.1
				c-31.3,13.2-62.6,26.6-93.9,40c-3.8,1.6-7,1.6-10.8,0.1c-32.7-12.7-65.4-25.3-98.1-37.8c-3.6-1.4-5.9-3.4-7.4-6.9
				c-14-31.9-28.2-63.7-42.5-95.5c-1.3-2.8-1.7-5.2-0.5-8.2c12.6-33.1,25.2-66.3,37.6-99.5c1.2-3.2,2.9-5.1,6.1-6.5
				c33.4-14.8,66.8-29.7,100.1-44.7c2.7-1.2,5-1.1,7.7,0c33.3,13.5,66.6,26.9,99.9,40.3c3,1.2,4.6,3,5.8,6
				c13.2,32,26.6,63.9,40,95.9C772.4,355.3,772.9,356.9,773.4,358.5L773.4,358.5z"/>
			<path class="st3" d="M537.2,590.4c-1.3,0-2.7-0.1-4.2-0.4c-11.8-2.1-28.4-14.7-27.5-32.1c-0.8-4.9,1.7-8.6,6.8-10.2
				c5.2-1.6,10.4-2.5,15.3-2.5c8.5,0,16.5,2.5,23.7,7.3c5.2,3.5,8.1,7.8,8.5,12.6c0.5,5-1.8,10-6.6,14.7c-2.1,2.1-4.1,4.2-6,6.4
				C544.8,589,541.5,590.4,537.2,590.4z"/>
			<path class="st3" d="M506.1,557.9c-0.8-4.8,1.8-8.2,6.5-9.7c13.5-4.2,26.8-3.2,38.6,4.8c10.7,7.2,11,17.6,1.9,26.5
				c-2.1,2.1-4.1,4.2-6.1,6.4c-3.8,4.2-9,4.5-13.9,3.7C520.8,587.3,505.1,574.7,506.1,557.9L506.1,557.9z"/>
			<path class="st13" d="M556.9,547.8c-0.5-0.3-1.1-0.7-1.8-1.1c-0.6-0.3-1.2-0.7-1.8-1c-1.5-0.9-3.1-1.8-4.8-2.6l-0.1,0
				c-9.4-4.3-9.5-4.6-5.7-14.6c0.8-2.1,1.6-4.1,2.4-6.2c2.5-6.5,5.1-13.1,7.5-19.8c0.7-1.9,1.7-3.8,3.8-3.8c0.8,0,1.6,0.2,2.7,0.7
				c5,2.2,9.9,4.2,14.6,5.8c1.6,0.6,2.7,1.1,3.1,2.1c0.4,0.9,0.2,1.9-0.5,3.4c-3.4,7.2-6.8,14.6-10,21.8c-2,4.4-4,8.8-6,13.2
				c-0.1,0.2-0.1,0.3-0.2,0.5c-0.3,0.8-0.6,1.9-2.3,2l-0.2,0L556.9,547.8z"/>
			<path class="st13" d="M557.8,547.8c-0.7-0.4-1.6-1-2.5-1.5c-2.2-1.2-4.3-2.6-6.6-3.6c-9.3-4.2-9.3-4.2-5.5-14
				c3.3-8.6,6.7-17.2,9.9-25.9c1.1-3.1,2.5-4.3,5.8-2.8c4.8,2.1,9.7,4.1,14.6,5.8c2.7,0.9,3.8,1.8,2.4,4.9
				c-5.5,11.6-10.7,23.3-16,35C559.5,546.4,559.5,547.7,557.8,547.8L557.8,547.8z"/>
			<path class="st13" d="M525.3,613.7c-0.3,0-0.6-0.1-1-0.2c-0.8-0.2-1.5-0.3-2.3-0.5c-1.4-0.3-2.6-0.6-3.8-0.9
				c-7.9-2-13-4-14.6-7.7c-1.5-3.7,0.6-8.7,4.6-15.6c0.6-1,1.3-2,2.3-2c0.6,0,1.3,0.4,2.1,1.2c4.5,4.2,10,7,16.9,8.6l0.3,0.1
				c1.3,0.3,2.2,0.5,2.3,1.1c0.4,3.1-0.9,5.7-2.2,8.3c-0.7,1.5-1.5,3-1.9,4.6C527.6,612.6,526.5,613.7,525.3,613.7z"/>
			<path class="st13" d="M524.5,613c-2.5-0.6-4.4-0.9-6.2-1.4c-16.6-4.3-18.1-7.9-9.7-22.5c1.2-2,2-2.3,3.7-0.7
				c4.8,4.5,10.7,7.3,17.1,8.8c0.8,0.2,2.2,0.4,2.2,0.8c0.6,4.8-3,8.3-4,12.7C527.1,612.4,526,613.7,524.5,613L524.5,613z"/>
			<path class="st5" d="M683.7,434.9c-1.7,0-3.8-0.6-7.2-1.5c-1.1-0.3-2.2-0.7-3.3-1c-1.3-0.4-2.6-0.9-4-1.2
				c-2.9-0.8-4.7-1.9-5.5-3.6c-0.8-1.8-0.5-4.1,1-7.4c5.5-11.9,10.9-24.1,16.1-35.9c2.5-5.7,5-11.4,7.6-17.1
				c0.8-1.7,1.6-3.5,2.4-5.1c1.5-3.2,3.1-6.5,4.3-9.8c1.9-5.3,5.2-7.9,10.1-7.9c1.3,0,2.8,0.2,4.4,0.6c10.2,2.4,19.9,6.6,28.9,12.6
				c4.9,3.3,7.4,8.6,6.8,14.7c-1.6,17.9-9.1,31.8-22.1,41.3c-5.2,3.8-11.2,5.6-18.3,5.6c-1.1,0-2.3,0-3.5-0.1l-0.1,0l-0.1,0
				c-1.1-0.5-2.1-0.8-3-0.8c-3.2,0-4.9,3.3-7,7.9C688.6,432.2,687.3,434.9,683.7,434.9z M715,371.4c-4.9,7.8-7.7,14.7-9.2,22.6
				C716.6,388.3,718.8,383,715,371.4z"/>
			<path class="st5" d="M738.3,358c5.1,3.4,7.1,8.7,6.6,14.2c-1.5,16.6-8.1,30.9-21.9,41c-6,4.3-12.9,6-21.5,5.4
				c-6-2.7-8.2,1.9-10.6,7.4c-4.1,9.5-4.7,9.5-14.1,6.9c-2.4-0.7-4.8-1.6-7.2-2.2c-6-1.6-6.7-4.8-4.2-10.3
				c8.1-17.6,15.8-35.3,23.7-53c2.2-5,4.9-9.8,6.7-15c2.5-7,7.2-8.6,13.9-7C719.9,347.8,729.4,352.1,738.3,358L738.3,358z
				 M705.2,395c12.1-6.2,14.5-11.6,10-24.7C709.8,378.6,706.7,386,705.2,395L705.2,395z"/>
			<path class="st12" d="M704.7,394.9c1.5-8.8,4.6-16.2,10.1-24.9l0.6-0.9l0.3,1c4.5,13.1,2.1,19-10.2,25.3l-0.9,0.5L704.7,394.9z"
				/>
			<path class="st12" d="M715.2,370.3c4.5,13,2.1,18.5-10,24.7C706.7,386,709.8,378.6,715.2,370.3L715.2,370.3z"/>
			<path class="st5" d="M634.5,416.5c-14.7,0-25.2-10.2-26.1-25.4c-0.4-5.9-0.1-10.8,0.8-15.2c3.9-18.7,12.7-34.4,26.1-46.8
				c5.3-4.9,12.4-7.6,20-7.6c8.8,0,17.1,3.5,22.7,9.7c4.5,4.9,5.2,11,5.3,16.8c-1.9,20.8-8.8,39.3-20.5,54.9
				c-5.1,6.9-12.8,11.3-22.8,13C638.2,416.3,636.3,416.5,634.5,416.5z M655.6,347.5c-9.4,12.1-15.1,26.4-16.9,42.3
				C646.7,377.1,652.3,362.9,655.6,347.5z"/>
			<path class="st5" d="M677.7,331.6c4.3,4.7,5.1,10.4,5.2,16.5c-1.9,20-8.3,38.4-20.4,54.6c-5.5,7.4-13.5,11.3-22.5,12.8
				c-16.8,2.9-30.1-7.5-31.1-24.5c-0.3-5-0.2-10.2,0.8-15c3.8-18.1,12.4-33.9,26-46.5C647.4,318.7,667.1,319.9,677.7,331.6
				L677.7,331.6z M638,391.9c9.2-14.2,15.3-29.7,18.6-46.4C645.6,359.1,639.6,374.6,638,391.9z"/>
			<path class="st12" d="M637.5,391.9c1.7-17.8,8-33.5,18.7-46.6l0.9,0.4c-3.4,17-9.7,32.7-18.6,46.5L637.5,391.9z"/>
			<path class="st12" d="M656.5,345.6c-3.3,16.6-9.4,32.1-18.6,46.4C639.6,374.6,645.6,359.1,656.5,345.6z"/>
			<path class="st5" d="M576.5,392.5c-2.4,0-5.5-0.8-10-2.3c-2.7-0.9-4.2-1.9-4.9-3.4c-0.8-1.8-0.3-3.9,0.7-6.6
				c5-12.7,10-25.7,14.8-38.2l3.3-8.7c0.2-0.5,0.4-1.1,0.7-1.7c1.2-2.9,2.4-5.8,1.2-7.9c-0.8-1.4-2.6-2.4-5.7-2.9
				c-1.3-0.2-2.3-0.8-2.8-1.8c-0.6-1-0.6-2.3-0.2-3.6c1.9-5.6,4.1-11.3,6.1-16.8l0.4-1c1-2.7,2.9-3.3,4.3-3.3c0.7,0,1.6,0.2,2.4,0.5
				c12.2,4.5,24.5,9,36.5,13.6c1.8,0.7,2.9,1.6,3.4,2.8c0.5,1.3,0.4,2.9-0.5,4.8c-1.4,3-2.6,6.2-3.7,9.3c-0.4,1.2-0.9,2.3-1.3,3.5
				c-1.3,3.4-3,6.8-5.7,6.8c-0.7,0-1.4-0.2-2.2-0.7c-2.2-1-4-1.5-5.4-1.5c-3.3,0-4.5,2.6-5.8,6.1c-4.5,12.4-9.8,27-15.4,41.3
				C583.5,389.1,581.4,392.5,576.5,392.5z"/>
			<path class="st5" d="M623.2,308.9c3.4,1.3,4.2,3.5,2.6,6.9c-1.9,4.2-3.4,8.6-5.1,12.9c-1.7,4.3-3.7,8-7.2,5.9
				c-8.2-3.9-10.2-0.1-11.9,4.8c-5,13.8-10,27.6-15.4,41.3c-4.9,12.7-6.9,13.2-19.6,9.1c-5.8-1.9-5.7-4.6-3.9-9.3
				c6.2-15.6,12.1-31.3,18.1-47c2.1-5.4,5.7-11.4-4.1-13.2c-2.5-0.5-3.4-2.5-2.6-4.7c2-5.9,4.3-11.8,6.5-17.7
				c1.1-2.9,3.4-3.5,6.1-2.5C598.9,299.8,611,304.3,623.2,308.9L623.2,308.9z"/>
			<path class="st5" d="M528.9,373.7c-3.2,0-6.6-0.8-10.1-2.4c-4.3-1.9-8.1-4.9-11.9-9.5c-4.3-5.2-6.1-11.5-5.2-17.8
				c0.9-6.3,4.5-11.7,10.1-15.4c0.9-0.6,1.8-0.9,2.6-0.9c1.6,0,2.9,1.1,3.9,3.4c0.6,1.3,1.1,2.7,1.6,4.1c1.2,3.4,2.5,6.9,5.8,9.9
				c1.6-4.7-0.2-7.9-2-11c-0.5-0.9-1-1.7-1.4-2.6c-6.8-14.5-5-28.6,5.2-41.9c4.9-6.4,11.7-10,19.2-10c4.7,0,9.6,1.5,14.1,4.3
				c6.1,3.9,9.5,7.9,10.4,12.2c0.8,4.4-0.8,9.4-5.1,15.2c-0.5,0.7-1,1.3-1.5,2c-4,5.3-5.9,7.7-8.2,7.7c-2.2,0-4.4-2.2-8.8-6.6
				c-0.2-0.2-0.7-0.3-1.4-0.4c-0.4-0.1-0.8-0.1-1.2-0.2c-2.3,5,0,8.4,2.4,12c0.3,0.5,0.7,1,1,1.5c8.5,13.2,4.1,34.5-8.7,43
				C536.3,372.5,532.7,373.7,528.9,373.7z"/>
			<path class="st5" d="M560.5,284.4c11.9,7.5,13.5,15.3,5.2,26.7c-0.5,0.7-1,1.3-1.5,2c-5,6.5-10.4,6.8-16.3,0.9
				c-0.5-0.5-1.5-0.4-3.2-0.8c-3.1,6.2,0.5,10.1,3.2,14.3c8.3,12.9,4,33.9-8.6,42.3c-6.6,4.4-13.4,4-20.4,0.9
				c-4.7-2.1-8.4-5.4-11.7-9.4c-8.6-10.4-6.5-25,4.7-32.4c2.9-1.9,4.6-0.3,5.8,2.3c2.2,4.7,2.9,10.3,8.1,14.6
				c2.7-6.6-1.2-10.6-3.1-14.6c-7-15-4.6-28.7,5.1-41.4C536.1,279.3,549.2,277.3,560.5,284.4L560.5,284.4z"/>
		</g>
	</g>
</g>
</svg>
